<?xml version="1.0" encoding="UTF-8" standalone="no"?>
<svg
   width="1200pt"
   height="1200pt"
   version="1.1"
   viewBox="0 0 1200 1200"
   id="svg8"
   sodipodi:docname="noun-shield-1072295.svg"
   inkscape:version="1.2.2 (b0a8486541, 2022-12-01)"
   inkscape:export-filename="favicon.png"
   inkscape:export-xdpi="90"
   inkscape:export-ydpi="90"
   xmlns:inkscape="http://www.inkscape.org/namespaces/inkscape"
   xmlns:sodipodi="http://sodipodi.sourceforge.net/DTD/sodipodi-0.dtd"
   xmlns="http://www.w3.org/2000/svg"
   xmlns:svg="http://www.w3.org/2000/svg">
  <defs
     id="defs12" />
  <sodipodi:namedview
     id="namedview10"
     pagecolor="#ffffff"
     bordercolor="#666666"
     borderopacity="1.0"
     inkscape:showpageshadow="2"
     inkscape:pageopacity="0.0"
     inkscape:pagecheckerboard="0"
     inkscape:deskcolor="#d1d1d1"
     inkscape:document-units="pt"
     showgrid="false"
     inkscape:zoom="0.53125"
     inkscape:cx="751.05882"
     inkscape:cy="800.94118"
     inkscape:window-width="1674"
     inkscape:window-height="752"
     inkscape:window-x="50"
     inkscape:window-y="114"
     inkscape:window-maximized="0"
     inkscape:current-layer="svg8" />
  <g
     id="g6"
     style="fill:#aa0000">
    <path
       d="m1066.7 213.28c-29.133-1.1484-58.359-1.1719-87.352-3.7734-41.766-3.7734-81.352-16.406-118.8-35.156-28.125-14.062-55.594-29.227-83.461-43.758-46.266-24.234-94.594-41.531-147.09-45.586-38.082-3.1523-76.426-0.20312-113.58 8.7422-34.5 8.4609-66.633 22.781-97.945 39.164-33.516 17.531-66.141 36.797-101.11 51.562-34.121 14.441-70.355 23.262-107.3 26.109-19.664 1.4766-39.422 1.5703-59.109 2.1328-7.5469 0.21094-15.094 0-22.758 0-0.16406 1.1172-0.26563 2.2461-0.30469 3.375 1.1953 44.859 1.7344 89.766 3.8203 134.58 2.5312 46.809 8.2305 93.391 17.062 139.43 11.426 63.098 28.688 125 51.562 184.9 28.688 75.234 67.625 146.14 115.71 210.73 41.398 55.738 90.074 105.68 144.73 148.5 41.836 32.672 86.344 60.938 135.63 81.094 1.8789 0.85156 4.0039 0.98438 5.9766 0.375 20.344-9.7031 41.18-18.539 60.703-29.695 63.281-36.094 118.62-82.406 168.09-135.8 47.086-51.129 87.539-107.99 120.4-169.24 30.027-55.867 54.227-114.68 72.211-175.5 15.621-51.387 27.082-103.95 34.266-157.17 4.5234-34.547 8.7422-69.234 10.758-103.97 2.3438-42.352 2.3438-84.867 3.3516-127.31 0-1.1016-0.11719-2.2266-0.21094-3.8203-1.8984 0.09375-3.5625 0.09375-5.25 0.09375zm-429.19 698.44h-75v-89.062h75zm0-171.09h-75v-452.34h75z"
       id="path2"
       style="fill:#aa0000" />
    <path
       d="m1150.3 164.88v-1.2188l-1.1484-18.141h-20.25-3.0234c-10.078-0.39844-20.297-0.67969-30.164-0.96094-22.148-0.60938-45.047-1.2422-67.125-3.2344-41.648-3.75-84.375-16.406-126.75-37.688-19.594-9.7969-39.398-20.344-58.594-30.469-11.461-6.0938-23.32-12.422-35.156-18.539-60.609-31.641-117.16-49.055-172.95-53.297-44.879-3.6406-90.051-0.13672-133.83 10.383-35.438 8.6719-70.781 22.781-114.61 45.703-10.406 5.4375-20.836 11.086-30.914 16.547-26.344 14.273-53.602 29.016-81.328 40.664-36.457 15.441-75.164 24.898-114.63 28.008-16.008 1.1953-32.625 1.5938-48.68 1.9688-5.6484 0.11719-11.297 0.30469-16.969 0.46875-5.6719 0.16406-10.992 0.23438-16.852 0.23438h-8.1562-17.625l-1.6406 17.414c0 0.51563 0 0.77344-0.14062 1.125-0.22656 1.6211-0.32031 3.2617-0.28125 4.8984 0.39062 14.734 0.74219 29.477 1.0547 44.227 0.77344 35.156 1.5938 71.555 3.2812 107.41 2.3438 48.164 8.625 100.34 19.5 159.38 13.082 72.215 32.816 143.06 58.945 211.64 32.961 86.27 77.621 167.6 132.73 241.71 47.641 64.043 103.6 121.46 166.41 170.72 53.461 41.742 104.86 72.445 157.17 93.891 3.7227 1.5117 7.6992 2.3047 11.719 2.3438 3.6914 0.015626 7.3398-0.78516 10.688-2.3438 6.1172-2.9062 12.258-5.7656 18.422-8.6016 16.898-7.8281 34.383-15.914 51.141-25.453 69.445-39.633 132.73-90.797 193.66-156.47 54.043-58.766 100.5-124.08 138.28-194.41 34.367-64.031 62.09-131.41 82.734-201.09 17.824-58.805 30.914-118.94 39.141-179.84 4.6875-35.812 9.8672-77.344 12.234-118.38 1.9453-33.891 2.4844-68.227 3.0234-101.44 0.23438-14.062 0.44531-28.125 0.77344-42.352 0.066406-1.6016 0.035156-3.207-0.09375-4.8047zm-39.375 46.547c-0.51562 32.812-1.0547 66.75-2.9531 99.844-2.3438 39.633-7.3594 80.438-11.953 115.57-7.9102 58.852-20.582 116.96-37.898 173.77-19.883 67.137-46.586 132.06-79.688 193.76-36.25 67.484-80.824 130.15-132.68 186.54-58.125 62.719-118.48 111.49-184.5 149.11-15.328 8.7422-31.312 16.125-48.211 23.953l-13.664 6.3516c-47.672-20.016-94.898-48.492-144.21-87-60.09-47.148-113.63-102.09-159.21-163.38-52.984-71.266-95.926-149.47-127.62-232.43-25.27-66.285-44.355-134.77-57.023-204.56-10.547-57.375-16.734-107.81-18.891-154.24-1.6641-35.391-2.4609-71.508-3.2344-106.48-0.21875-9.4688-0.4375-18.938-0.65625-28.406 2.3438 0 4.5 0 6.75-0.11719l16.711-0.42188c16.547-0.375 33.656-0.77344 50.695-2.0391 43.629-3.4141 86.422-13.844 126.73-30.891 29.508-12.375 57.609-27.586 84.797-42.305 9.9844-5.3906 20.297-10.992 30.469-16.406 40.922-21.328 73.57-34.43 105.84-42.422 39.816-9.5508 80.898-12.715 121.71-9.375 50.414 3.8438 102.09 19.875 157.99 48.961 11.602 6.0469 23.438 12.305 34.758 18.375 19.359 10.312 39.375 20.977 59.414 30.984 46.875 23.438 94.078 37.5 140.62 41.625 23.297 2.0859 46.875 2.7422 69.539 3.375l16.945 0.49219c-0.20313 9.2812-0.39844 18.539-0.58594 27.773z"
       id="path4"
       style="fill:#aa0000" />
  </g>
</svg>
