<?xml version="1.0" encoding="UTF-8"?>
<svg width="1200pt" height="1200pt" version="1.1" viewBox="0 0 1200 1200" xmlns="http://www.w3.org/2000/svg">
 <path d="m60 300h-60v-120h60zm0 60h-60v120h60zm600 300h360v360h-360zm60 281.22c5.1953 0.88672 9.8633 4.8945 10.332 11.965-0.058593 2.7344-0.75781 4.9688-1.8242 6.8164h37.598c-1.1055-1.8359-1.8242-4.0664-1.8711-6.7578 1.0938-16.453 23.977-16.141 25.008-0.070313-0.046876 2.7344-0.75781 4.9688-1.8008 6.8164h37.598c-1.1055-1.8359-1.8242-4.0664-1.8828-6.7578 1.0938-16.453 23.965-16.141 25.02-0.070313-0.058593 2.7344-0.75781 4.9688-1.8242 6.8164h37.598c-1.1055-1.8359-1.8242-4.0664-1.8711-6.7578 1.1055-16.453 23.977-16.141 25.008-0.070312-0.046876 2.7344-0.75781 4.9688-1.8008 6.8164h37.598c-1.1055-1.8359-1.8242-4.0664-1.8828-6.7578 0.75781-11.34 11.867-14.711 19.043-10.441v-37.465c-7.3203 4.2617-18.793 0.39453-19.043-11.004 0.75781-11.352 11.867-14.723 19.043-10.441v-37.465c-7.3203 4.2461-18.793 0.39453-19.043-11.004 0.75781-11.352 11.867-14.723 19.043-10.453v-37.465c-7.3203 4.2461-18.793 0.40625-19.043-11.004 0.75781-11.34 11.867-14.723 19.043-10.441v-37.465c-6.7695 3.9375-17.074 0.89844-18.77-8.6055h-34.43c-2.3984 13.895-22.078 13.477-24.48 0h-34.441c-2.3867 13.895-22.055 13.477-24.469 0h-34.441c-2.3867 13.895-22.066 13.477-24.469 0h-34.441c-1.0312 6.0352-5.3047 9.3828-10.055 10.129v34.344c5.1953 0.875 9.8633 4.8945 10.332 11.953-0.15625 7.6328-4.9688 11.773-10.332 12.625v34.332c5.1953 0.88672 9.8633 4.8945 10.332 11.965-0.15625 7.6328-4.9688 11.773-10.332 12.613v34.344c5.1953 0.875 9.8633 4.8945 10.332 11.953-0.15625 7.6445-4.9688 11.773-10.332 12.613v34.395zm-180 78.781h-360v-360h360zm-60-289.92c-4.7383-0.81641-9.0117-4.2344-10.055-10.078h-34.441c-2.3867 13.895-22.066 13.477-24.469 0h-34.441c-2.3984 13.895-22.066 13.477-24.469 0h-34.441c-2.3867 13.895-22.066 13.477-24.48 0h-34.441c-1.6914 9.8164-12 12.516-18.77 8.4844v37.559c7.1875-4.2734 18.324-0.71875 19.043 10.379-0.23828 11.855-11.723 15.312-19.043 10.98v37.547c7.1875-4.2734 18.324-0.70703 19.043 10.391-0.23047 11.859-11.715 15.328-19.035 10.973v37.559c7.1875-4.2734 18.324-0.71875 19.043 10.379-0.23828 11.855-11.723 15.312-19.043 10.969v37.559c7.1875-4.2734 18.324-0.71875 19.043 10.391-0.046875 2.7344-0.75781 4.9688-1.8125 6.8164h37.598c-1.1055-1.8359-1.8242-4.0664-1.8828-6.7578 1.1055-16.453 23.977-16.141 25.02-0.070312-0.046875 2.7344-0.75781 4.9688-1.8125 6.8164h37.598c-1.1055-1.8359-1.8242-4.0664-1.8828-6.7578 1.0938-16.453 23.977-16.141 25.008-0.070313-0.046875 2.7344-0.75781 4.9688-1.8125 6.8164h37.598c-1.1055-1.8359-1.8242-4.0664-1.8828-6.7578 1.0938-16.453 23.977-16.141 25.008-0.070313-0.046875 2.7344-0.75781 4.9688-1.8125 6.8164h37.598c-1.1055-1.8359-1.8242-4.0664-1.8828-6.7578 0.48047-7.2227 5.1484-11.207 10.332-12.047v-34.367c-5.3633-0.9375-10.176-5.1484-10.332-12.492 0.48047-7.2227 5.1484-11.207 10.332-12.059l-0.007812-34.305c-5.3633-0.94922-10.176-5.1602-10.332-12.492 0.48047-7.2227 5.1484-11.207 10.332-12.059v-34.371c-5.3633-0.9375-10.176-5.1602-10.332-12.492 0.48047-7.2227 5.1484-11.207 10.332-12.047v-34.383zm60-190.08h-360v-360h360zm-60-281.23c-5.3633-0.94922-10.176-5.1484-10.332-12.492 0.16797-2.4961 0.875-4.5586 1.8945-6.2773h-37.68c1.0195 1.7148 1.7266 3.7578 1.8828 6.2031-0.33594 17.305-24.672 16.738-25.008 0.085937 0.16797-2.4961 0.875-4.5586 1.8945-6.2773h-37.68c1.0195 1.7148 1.7383 3.7578 1.8945 6.2031-0.33594 17.305-24.672 16.738-25.008 0.085937 0.16797-2.4961 0.875-4.5586 1.8945-6.2773h-37.68c1.0195 1.7148 1.7266 3.7578 1.8828 6.2031-0.33594 17.305-24.672 16.738-25.02 0.085938 0.16797-2.4961 0.875-4.5586 1.8945-6.2773h-37.68c1.0195 1.7148 1.7383 3.7578 1.8945 6.2031-0.23828 11.855-11.723 15.312-19.043 10.969v37.559c7.1875-4.2734 18.324-0.71875 19.043 10.391-0.23828 11.855-11.723 15.312-19.043 10.98v37.547c7.1875-4.2734 18.324-0.70703 19.043 10.391-0.23828 11.855-11.723 15.312-19.043 10.969v37.559c7.1875-4.2734 18.324-0.71875 19.043 10.391-0.23828 11.855-11.723 15.312-19.043 10.969v37.547c6.7578-4.0195 16.957-1.0664 18.758 8.5312h34.488c2.6172-13.789 21.887-13.535 24.422 0h34.488c2.6172-13.789 21.887-13.535 24.422 0h34.488c2.6172-13.789 21.887-13.535 24.434 0h34.488c1.1289-5.9766 5.3398-9.3477 10.031-10.117v-34.367c-5.3633-0.9375-10.176-5.1484-10.332-12.492 0.48047-7.2109 5.1484-11.207 10.332-12.047v-34.367c-5.3633-0.94922-10.176-5.1484-10.332-12.492 0.48047-7.2109 5.1484-11.195 10.332-12.047v-34.367c-5.3633-0.9375-10.176-5.1484-10.332-12.492 0.48047-7.2109 5.1484-11.207 10.332-12.047v-34.434zm60 941.23h120v-60h-120zm-180 0h120v-60h-120zm-300-660h-60v120h60zm660 660h120v-60h-120zm180 0h120v-60h-120zm-840-480h-60v120h60zm0 180h-60v120h60zm-60 300h120v-120h-120zm0-1080h120v-120h-120zm180 1080h120v-60h-120zm660-1200h-120v60h120zm240 1200h120v-120h-120zm60-360h60v-120h-60zm0-180h60v-120h-60zm-240-600h120v-60h-120zm240 420h60v-120h-60zm-480-300h360v360h-360zm60 289.89c4.7148 0.80469 8.9414 4.2227 10.043 10.105h34.488c2.6055-13.789 21.875-13.535 24.422 0h34.477c2.6289-13.789 21.887-13.535 24.434 0h34.488c2.6055-13.789 21.887-13.535 24.422 0h34.488c1.8359-9.7578 12.012-12.516 18.742-8.5078v-37.465c-7.3203 4.2461-18.793 0.39453-19.043-11.004 0.75781-11.34 11.867-14.711 19.043-10.441l-0.003906-37.461c-7.3203 4.2461-18.793 0.39453-19.043-11.004 0.75781-11.352 11.867-14.711 19.043-10.441v-37.477c-7.3203 4.2617-18.793 0.40625-19.043-11.004 0.75781-11.34 11.867-14.711 19.043-10.441v-37.473c-7.3203 4.2617-18.793 0.40625-19.043-11.004 0.16797-2.4961 0.875-4.5586 1.8828-6.2773h-37.68c1.0195 1.7148 1.7383 3.7578 1.8828 6.2031-0.32422 17.305-24.66 16.738-25.008 0.085937 0.16797-2.4961 0.86328-4.5586 1.8828-6.2773h-37.68c1.0312 1.7148 1.7383 3.7578 1.8945 6.2031-0.34766 17.305-24.672 16.738-25.02 0.085937 0.16797-2.4961 0.875-4.5586 1.8828-6.2773h-37.68c1.0195 1.7148 1.7383 3.7578 1.8828 6.2031-0.32422 17.305-24.66 16.738-25.008 0.085938 0.16797-2.4961 0.86328-4.5586 1.8828-6.2773h-37.68c1.0195 1.7148 1.7383 3.7578 1.8945 6.2031-0.15625 7.6328-4.9688 11.773-10.332 12.613v34.344c5.1953 0.88672 9.8633 4.8945 10.332 11.965-0.15625 7.6328-4.9688 11.773-10.332 12.613v34.344c5.1953 0.88672 9.8633 4.8945 10.332 11.965-0.15625 7.6328-4.9688 11.773-10.332 12.613v34.344c5.1953 0.88672 9.8633 4.8945 10.332 11.965-0.15625 7.6328-4.9688 11.773-10.332 12.613l0.007813 34.277zm-240-469.89h-120v60h120zm180 0h-120v60h120zm-360 0h-120v60h120zm840 1020h60v-120h-60zm-60-1020v120h120v-120zm60 300h60v-120h-60zm-876.52-24.266c0.34766 16.656 24.684 17.23 25.02-0.070313-1.043-16.066-23.93-16.379-25.02 0.070313zm58.906 0c0.34766 16.656 24.672 17.23 25.008-0.070313-1.0312-16.066-23.902-16.379-25.008 0.070313zm58.91 0c0.34766 16.656 24.684 17.23 25.02-0.070313-1.043-16.066-23.918-16.379-25.02 0.070313zm58.918 0c0.34766 16.656 24.684 17.23 25.02-0.070313-1.043-16.066-23.926-16.379-25.02 0.070313zm-147.29 29.461c0.34766 16.668 24.684 17.23 25.02-0.070312-1.0469-16.082-23.918-16.383-25.02 0.070312zm58.918 0c0.34766 16.668 24.672 17.23 25.008-0.070312-1.043-16.082-23.914-16.383-25.008 0.070312zm58.91 0c0.34766 16.668 24.672 17.23 25.008-0.070312-1.0352-16.082-23.918-16.383-25.008 0.070312zm-147.28 29.461c0.34766 16.656 24.684 17.23 25.02-0.070312-1.043-16.082-23.93-16.383-25.02 0.070312zm58.906 0c0.34766 16.656 24.672 17.23 25.008-0.070312-1.0312-16.082-23.902-16.383-25.008 0.070312zm58.91 0c0.34766 16.656 24.684 17.23 25.02-0.070312-1.043-16.082-23.918-16.383-25.02 0.070312zm58.918 0c0.34766 16.656 24.684 17.23 25.02-0.070312-1.043-16.082-23.926-16.383-25.02 0.070312zm-147.29 29.449c0.34766 16.656 24.684 17.23 25.02-0.070313-1.0469-16.07-23.918-16.371-25.02 0.070313zm58.918 0c0.34766 16.656 24.672 17.23 25.008-0.070313-1.043-16.07-23.914-16.371-25.008 0.070313zm58.91 0c0.34766 16.656 24.672 17.23 25.008-0.070313-1.0352-16.07-23.918-16.371-25.008 0.070313zm-147.28 29.457c0.34766 16.668 24.684 17.242 25.02-0.070312-1.043-16.066-23.93-16.379-25.02 0.070312zm58.906 0c0.34766 16.668 24.672 17.242 25.008-0.070312-1.0312-16.066-23.902-16.379-25.008 0.070312zm58.91 0c0.34766 16.668 24.684 17.242 25.02-0.070312-1.043-16.066-23.918-16.379-25.02 0.070312zm58.918 0c0.34766 16.668 24.684 17.242 25.02-0.070312-1.043-16.066-23.926-16.379-25.02 0.070312zm-147.29 29.461c0.34766 16.668 24.684 17.23 25.02-0.070313-1.0469-16.07-23.918-16.383-25.02 0.070313zm58.918 0c0.34766 16.668 24.672 17.23 25.008-0.070313-1.043-16.07-23.914-16.383-25.008 0.070313zm58.91 0c0.34766 16.668 24.672 17.23 25.008-0.070313-1.0352-16.07-23.918-16.383-25.008 0.070313zm-147.28 29.461c0.34766 16.656 24.684 17.23 25.02-0.070313-1.043-16.082-23.93-16.383-25.02 0.070313zm58.906 0c0.34766 16.656 24.672 17.23 25.008-0.070313-1.0312-16.082-23.902-16.383-25.008 0.070313zm58.91 0c0.34766 16.656 24.684 17.23 25.02-0.070313-1.043-16.082-23.918-16.383-25.02 0.070313zm58.918 0c0.34766 16.656 24.684 17.23 25.02-0.070313-1.043-16.082-23.926-16.383-25.02 0.070313zm-176.73 294.56c0.34766 16.668 24.684 17.242 25.02-0.070313-1.043-16.07-23.93-16.367-25.02 0.070313zm58.906 0c0.34766 16.668 24.672 17.242 25.008-0.070313-1.0312-16.07-23.902-16.367-25.008 0.070313zm58.91 0c0.34766 16.668 24.684 17.242 25.02-0.070313-1.043-16.07-23.918-16.367-25.02 0.070313zm58.918 0c0.34766 16.668 24.684 17.242 25.02-0.070313-1.043-16.07-23.926-16.367-25.02 0.070313zm-147.29 29.461c0.34766 16.668 24.684 17.23 25.02-0.085937-1.0469-16.066-23.918-16.367-25.02 0.085937zm58.918 0c0.34766 16.668 24.672 17.23 25.008-0.085937-1.043-16.066-23.914-16.367-25.008 0.085937zm58.91 0c0.34766 16.668 24.672 17.23 25.008-0.085937-1.0352-16.066-23.918-16.367-25.008 0.085937zm-147.28 29.461c0.34766 16.668 24.684 17.23 25.02-0.085938-1.043-16.066-23.93-16.367-25.02 0.085938zm58.906 0c0.34766 16.668 24.672 17.23 25.008-0.085938-1.0312-16.066-23.902-16.367-25.008 0.085938zm58.91 0c0.34766 16.668 24.684 17.23 25.02-0.085938-1.043-16.066-23.918-16.367-25.02 0.085938zm58.918 0c0.34766 16.668 24.684 17.23 25.02-0.085938-1.043-16.066-23.926-16.367-25.02 0.085938zm-147.29 29.461c0.34766 16.656 24.684 17.23 25.02-0.085938-1.0469-16.066-23.918-16.367-25.02 0.085938zm58.918 0c0.34766 16.656 24.672 17.23 25.008-0.085938-1.043-16.066-23.914-16.367-25.008 0.085938zm58.91 0c0.34766 16.656 24.672 17.23 25.008-0.085938-1.0352-16.066-23.918-16.367-25.008 0.085938zm-147.28 29.445c0.34766 16.668 24.684 17.242 25.02-0.085938-1.043-16.043-23.93-16.352-25.02 0.085938zm58.906 0c0.34766 16.668 24.672 17.242 25.008-0.085938-1.0312-16.043-23.902-16.352-25.008 0.085938zm58.91 0c0.34766 16.668 24.684 17.242 25.02-0.085938-1.043-16.043-23.918-16.352-25.02 0.085938zm58.918 0c0.34766 16.668 24.684 17.242 25.02-0.085938-1.043-16.043-23.926-16.352-25.02 0.085938zm-147.29 29.461c0.34766 16.668 24.684 17.242 25.02-0.085938-1.0469-16.043-23.918-16.367-25.02 0.085938zm58.918 0c0.34766 16.668 24.672 17.242 25.008-0.085938-1.043-16.043-23.914-16.367-25.008 0.085938zm58.91 0c0.34766 16.668 24.672 17.242 25.008-0.085938-1.0352-16.043-23.918-16.367-25.008 0.085938zm-147.28 29.461c0.34766 16.656 24.684 17.23 25.02-0.085937-1.043-16.055-23.93-16.367-25.02 0.085937zm58.906 0c0.34766 16.656 24.672 17.23 25.008-0.085937-1.0312-16.055-23.902-16.367-25.008 0.085937zm58.91 0c0.34766 16.656 24.684 17.23 25.02-0.085937-1.043-16.055-23.918-16.367-25.02 0.085937zm58.918 0c0.34766 16.656 24.684 17.23 25.02-0.085937-1.043-16.055-23.926-16.367-25.02 0.085937zm319.56-176.82c-1.043-16.066-23.914-16.367-25.02 0.070313 0.35938 16.668 24.684 17.234 25.02-0.070313zm58.918 0c-1.043-16.066-23.914-16.367-25.008 0.070313 0.34766 16.668 24.66 17.234 25.008-0.070313zm58.91 0c-1.043-16.066-23.914-16.367-25.02 0.070313 0.34766 16.668 24.672 17.234 25.02-0.070313zm58.906 0c-1.0312-16.066-23.914-16.367-25.008 0.070313 0.33594 16.668 24.684 17.234 25.008-0.070313zm-147.28 29.449c-1.0312-16.066-23.914-16.367-25.008 0.085938 0.34766 16.664 24.672 17.227 25.008-0.085938zm58.922 0c-1.0547-16.066-23.93-16.367-25.02 0.085938 0.34766 16.664 24.66 17.227 25.02-0.085938zm58.895 0c-1.0312-16.066-23.902-16.367-25.008 0.085938 0.34766 16.664 24.684 17.227 25.008-0.085938zm-147.27 29.457c-1.043-16.066-23.914-16.367-25.02 0.085938 0.35938 16.668 24.684 17.23 25.02-0.085938zm58.918 0c-1.043-16.066-23.914-16.367-25.008 0.085938 0.34766 16.668 24.66 17.23 25.008-0.085938zm58.91 0c-1.043-16.066-23.914-16.367-25.02 0.085938 0.34766 16.668 24.672 17.23 25.02-0.085938zm58.906 0c-1.0312-16.066-23.914-16.367-25.008 0.085938 0.33594 16.668 24.684 17.23 25.008-0.085938zm-147.28 29.461c-1.0312-16.066-23.914-16.367-25.008 0.085938 0.34766 16.656 24.672 17.23 25.008-0.085938zm58.922 0c-1.0547-16.066-23.93-16.367-25.02 0.085938 0.34766 16.656 24.66 17.23 25.02-0.085938zm58.895 0c-1.0312-16.066-23.902-16.367-25.008 0.085938 0.34766 16.656 24.684 17.23 25.008-0.085938zm-147.27 29.449c-1.043-16.055-23.914-16.355-25.02 0.085937 0.35938 16.664 24.684 17.242 25.02-0.085937zm58.918 0c-1.043-16.055-23.914-16.355-25.008 0.085937 0.34766 16.664 24.66 17.242 25.008-0.085937zm58.91 0c-1.043-16.055-23.914-16.355-25.02 0.085937 0.34766 16.664 24.672 17.242 25.02-0.085937zm58.906 0c-1.0312-16.055-23.914-16.355-25.008 0.085937 0.33594 16.664 24.684 17.242 25.008-0.085937zm-147.28 29.461c-1.0312-16.055-23.914-16.367-25.008 0.085938 0.34766 16.664 24.672 17.238 25.008-0.085938zm58.922 0c-1.0547-16.055-23.93-16.367-25.02 0.085938 0.34766 16.664 24.66 17.238 25.02-0.085938zm58.895 0c-1.0312-16.055-23.902-16.367-25.008 0.085938 0.34766 16.664 24.684 17.238 25.008-0.085938zm-147.27 29.469c-1.043-16.066-23.914-16.367-25.02 0.085938 0.35938 16.645 24.684 17.219 25.02-0.085938zm58.918 0c-1.043-16.066-23.914-16.367-25.008 0.085938 0.34766 16.645 24.66 17.219 25.008-0.085938zm58.91 0c-1.043-16.066-23.914-16.367-25.02 0.085938 0.34766 16.645 24.672 17.219 25.02-0.085938zm58.906 0c-1.0312-16.066-23.914-16.367-25.008 0.085938 0.33594 16.645 24.684 17.219 25.008-0.085938zm-176.73-648.06c-1.043-16.066-23.914-16.367-25.02 0.070313 0.35938 16.656 24.684 17.234 25.02-0.070313zm58.918 0c-1.043-16.066-23.914-16.367-25.008 0.070313 0.34766 16.656 24.66 17.234 25.008-0.070313zm58.91 0c-1.043-16.066-23.914-16.367-25.02 0.070313 0.34766 16.656 24.672 17.234 25.02-0.070313zm58.906 0c-1.0312-16.066-23.914-16.367-25.008 0.070313 0.33594 16.656 24.684 17.234 25.008-0.070313zm-147.28 29.449c-1.0312-16.066-23.914-16.367-25.008 0.070313 0.34766 16.668 24.672 17.246 25.008-0.070313zm58.922 0c-1.0547-16.066-23.93-16.367-25.02 0.070313 0.34766 16.668 24.66 17.246 25.02-0.070313zm58.895 0c-1.0312-16.066-23.902-16.367-25.008 0.070313 0.34766 16.668 24.684 17.246 25.008-0.070313zm-147.27 29.457c-1.043-16.066-23.914-16.379-25.02 0.070313 0.35938 16.672 24.684 17.234 25.02-0.070313zm58.918 0c-1.043-16.066-23.914-16.379-25.008 0.070313 0.34766 16.672 24.66 17.234 25.008-0.070313zm58.91 0c-1.043-16.066-23.914-16.379-25.02 0.070313 0.34766 16.672 24.672 17.234 25.02-0.070313zm58.906 0c-1.0312-16.066-23.914-16.379-25.008 0.070313 0.33594 16.672 24.684 17.234 25.008-0.070313zm-147.28 29.461c-1.0312-16.066-23.914-16.367-25.008 0.070312 0.34766 16.66 24.672 17.234 25.008-0.070312zm58.922 0c-1.0547-16.066-23.93-16.367-25.02 0.070312 0.34766 16.66 24.66 17.234 25.02-0.070312zm58.895 0c-1.0312-16.066-23.902-16.367-25.008 0.070312 0.34766 16.66 24.684 17.234 25.008-0.070312zm-147.27 29.461c-1.043-16.066-23.914-16.379-25.02 0.070312 0.35938 16.668 24.684 17.234 25.02-0.070312zm58.918 0c-1.043-16.066-23.914-16.379-25.008 0.070312 0.34766 16.668 24.66 17.234 25.008-0.070312zm58.91 0c-1.043-16.066-23.914-16.379-25.02 0.070312 0.34766 16.668 24.672 17.234 25.02-0.070312zm58.906 0c-1.0312-16.066-23.914-16.379-25.008 0.070312 0.33594 16.668 24.684 17.234 25.008-0.070312zm-147.28 29.461c-1.0312-16.055-23.914-16.367-25.008 0.070313 0.34766 16.668 24.672 17.234 25.008-0.070313zm58.922 0c-1.0547-16.055-23.93-16.367-25.02 0.070313 0.34766 16.668 24.66 17.234 25.02-0.070313zm58.895 0c-1.0312-16.055-23.902-16.367-25.008 0.070313 0.34766 16.668 24.684 17.234 25.008-0.070313zm-147.27 29.445c-1.043-16.066-23.914-16.367-25.02 0.070312 0.35938 16.672 24.684 17.246 25.02-0.070312zm58.918 0c-1.043-16.066-23.914-16.367-25.008 0.070312 0.34766 16.672 24.66 17.246 25.008-0.070312zm58.91 0c-1.043-16.066-23.914-16.367-25.02 0.070312 0.34766 16.672 24.672 17.246 25.02-0.070312zm58.906 0c-1.0312-16.066-23.914-16.367-25.008 0.070312 0.33594 16.672 24.684 17.246 25.008-0.070312z"/>
</svg>
