<?xml version="1.0" encoding="UTF-8"?>
<svg width="1200pt" height="1200pt" version="1.1" viewBox="0 0 1200 1200" xmlns="http://www.w3.org/2000/svg">
 <g>
  <path d="m521.43 996.44c-6.4492-0.55469-12.125 4.2266-12.68 10.676-0.55078 6.4492 4.2305 12.125 10.676 12.676 0.12891 0 13.012 1.3594 19.645 10.34 4.2656 5.7734 5.332 14.078 3.168 24.688-0.62109 3.0469-0.007813 6.2148 1.707 8.8086 1.7148 2.5938 4.3867 4.3984 7.4336 5.0195 0.77344 0.15625 1.5586 0.23437 2.3438 0.23437 5.5664-0.003906 10.359-3.9219 11.473-9.375 3.5781-17.531 1.0586-32.188-7.4766-43.559-12.836-17.117-33.93-19.312-36.289-19.508z"/>
  <path d="m676.13 994c-2.3633 0.19531-23.457 2.3867-36.301 19.504-8.5352 11.371-11.055 26.027-7.4766 43.559 1.1133 5.4492 5.9062 9.3672 11.469 9.375 0.78906 0 1.5742-0.078125 2.3438-0.23438 3.0469-0.62109 5.7227-2.4297 7.4375-5.0195 1.7109-2.5938 2.3242-5.7617 1.7031-8.8086-2.1641-10.609-1.0977-18.918 3.168-24.688 6.5625-8.8789 19.242-10.293 19.637-10.336v-0.003906c6.4453-0.54688 11.23-6.2227 10.68-12.668-0.55078-6.4492-6.2227-11.234-12.672-10.684z"/>
  <path d="m547.35 661.08c-3.0352 0.67188-5.6797 2.5234-7.3516 5.1445-1.668 2.625-2.2305 5.8047-1.5547 8.8398 5.3086 23.863 9.2656 60.668-2.0078 100.52l0.003906-0.003906c-1.7656 6.2305 1.8555 12.707 8.0859 14.469 6.2266 1.7617 12.703-1.8555 14.465-8.0859 12.605-44.551 8.2227-85.488 2.3438-111.99v0.003906c-0.67188-3.0352-2.5273-5.6758-5.1484-7.3438-2.625-1.668-5.8008-2.2266-8.8359-1.5508z"/>
  <path d="m667.52 675.06c1.4062-6.3164-2.5781-12.578-8.8984-13.98-6.3164-1.4062-12.578 2.5781-13.98 8.8945-5.8906 26.5-10.27 67.434 2.3438 111.98 1.7617 6.2305 8.2383 9.8477 14.469 8.0859 6.2266-1.7617 9.8477-8.2383 8.0859-14.469-11.285-39.844-7.3242-76.652-2.0195-100.52z"/>
  <path d="m890.24 117.16c-8.5352-62.789-39.457-97.711-52.348-109.82-3.9766-3.75-9.4141-5.5352-14.836-4.8672-5.4219 0.66406-10.27 3.707-13.223 8.3047-22.004 34.297-127.45 204.64-142.63 341.02h0.003906c-19.812-13.41-43.281-20.379-67.203-19.949-0.85547-0.015625-1.6953-0.027344-2.5469-0.027344v0.003907c-23.043 0.074219-45.547 6.9609-64.688 19.797-15.246-136.34-120.6-306.55-142.6-340.84-2.9531-4.5977-7.8008-7.6406-13.223-8.3047-5.4219-0.66797-10.859 1.1172-14.836 4.8672-12.891 12.109-43.812 47.031-52.348 109.82-10.352 76.156 14.707 166.49 74.473 268.49 5.4062 9.0234 8.0312 19.438 7.5508 29.945-2.3672 43.52 17.676 69.805 30.977 82.309-5.8984 6.0742-11.746 11.68-16.941 16.238-10.172 8.7656-16.789 20.949-18.598 34.254-2.043 12.727 1.7969 25.691 10.441 35.254-4.4414 1.3203-8.7305 3.1172-12.781 5.3594-5.3633 3.3867-7.0586 10.426-3.8242 15.883 3.2305 5.457 10.219 7.3516 15.766 4.2734 0.027343-0.015625 0.52344-0.28906 1.3438-0.68359v0.003906c5.2422 12.387 13.508 23.258 24.047 31.617-5.3242 20.715-15.688 74.461 1.668 130.68 28.609 92.664 44.613 203.01 50.305 247.4-2.5977 24.141 1.4609 50.516 12.77 66.02v0.003906c5.8789 8.6367 15.117 14.402 25.457 15.887 1.8125 4.418 3.875 8.7266 6.1719 12.91l-2.5586 12.637c-0.0625 0.28906-0.10938 0.58203-0.14453 0.875l0.003907 0.003906c-2.3711 17.688 4.3906 35.371 17.957 46.965 19 16.043 40.508 24.172 63.91 24.172h0.16797c24.797-0.25391 48.805-8.7539 68.234-24.16 13.57-11.605 20.332-29.297 17.953-46.992-0.050781-0.37891-0.11328-0.75391-0.19531-1.125l-2.957-13.125c2.293-3.9141 4.3828-7.9453 6.2617-12.074 10.484-1.4023 19.875-7.2031 25.824-15.953 11.309-15.508 15.371-41.891 12.77-66.023 5.6914-44.395 21.695-154.74 50.305-247.4 17.301-56.035 6.8945-109.37 1.4727-130.15 10.887-8.4023 19.418-19.473 24.766-32.141 0.83594 0.39844 1.3516 0.67969 1.4062 0.71484 5.5781 3.2812 12.762 1.418 16.043-4.1641 3.2812-5.5781 1.418-12.762-4.1602-16.043-3.8008-2.1055-7.8047-3.8125-11.953-5.0938 7.7812-10.086 11.066-22.934 9.0781-35.52-1.8086-13.305-8.4219-25.488-18.598-34.254-5.1953-4.5547-11.043-10.164-16.941-16.238 13.301-12.504 33.344-38.789 30.977-82.312h0.003907c-0.48438-10.504 2.1445-20.918 7.5469-29.941 59.773-102.01 84.832-192.34 74.48-268.5zm-64.066-88.41c10.25 10.832 26.559 32.359 35.816 66.633-8.9062-11.656-16.785-20.406-18.609-22.41v0.003907c-0.61328-0.67188-1.3047-1.2734-2.0586-1.7852-1.9219-1.3125-12.039-7.2656-22.414 4.3672-21.633 24.266-91.719 186.66-110.39 315.13h0.003906c-5.0742-6.5078-10.547-12.691-16.383-18.516-0.96875-0.95703-1.9453-1.8594-2.9219-2.7852 7.2266-127.03 108.64-295.79 136.96-340.64zm-452.36 0c28.309 44.828 129.61 213.4 136.95 340.39l0.003906 0.003907c-6.9531 6.6406-13.402 13.789-19.305 21.379-19.219-132.7-92.344-294.08-110.96-314.96-10.363-11.633-20.492-5.6797-22.41-4.3672v-0.003907c-0.75391 0.51172-1.4453 1.1133-2.0586 1.7852-1.7656 1.9375-9.1797 10.172-17.727 21.254 9.3164-33.602 25.375-54.77 35.516-65.48zm41.363 388.12h0.003907c0.73437-15.098-2.9961-30.078-10.727-43.066-48.402-82.605-73.035-156.51-73.52-220.27 3.7227-16.445 23.281-42.297 35.793-57.148 21.594 34.402 93.984 198.22 104.68 324.44-2.2656 4.0352-4.2188 7.7734-5.8438 11.035h-0.003906c-2.3047 4.8359-4.043 9.9219-5.1719 15.16-1.793 7.7148-10.781 20.52-21.871 33.574-9.6914-9.2344-25.188-29.492-23.324-63.73zm6.8516 187.17h0.003906c3.0352 0.24219 6.0312 0.83594 8.9297 1.7695 10.184 3.3203 19.254 10.863 27.117 22.48-6.1797 0.19922-12.297-1.2656-17.715-4.2422-7.875-4.8086-14.227-11.75-18.324-20.016zm68.066 34.539c-12.656-29.438-30.113-47.957-51.879-55.051h0.003906c-3.2969-1.0742-6.6797-1.8711-10.109-2.3828 1.6367-3.1797 3.9023-5.9922 6.6602-8.2656 6.6211-5.3555 16.332-7.2188 28.871-5.5273 17.098 2.3008 27.324 12.656 31.262 31.641l0.078125 0.38672v-0.003907c4.2383 19.746 3.4336 40.242-2.3438 59.594-0.070313 0.19922-0.12891 0.39844-0.17188 0.60547-0.45312 1.3555-4.7148 12.867-22.941 26.852-4.6016 3.5312-8.3281 4.9062-11.07 4.1133-2.0703-0.60156-9.2422-4.2305-17.453-25.262 0.94922-5.8594 1.9805-10.906 2.9219-15l-0.007813-0.003906c4.3906 1.0117 8.8789 1.5195 13.383 1.5195 4.3242-0.03125 8.6406-0.46094 12.891-1.2773 3.6641 4.5664 10.137 5.7305 15.16 2.7227 5.0234-3.0078 7.0586-9.2656 4.7617-14.652zm160.93 517.01h0.007812c-15.199 11.844-33.859 18.383-53.125 18.625h-0.12891c-17.992-0.09375-35.336-6.7148-48.812-18.637-4.3594-3.7578-7.4805-8.75-8.9453-14.32 3.2461 3.1133 6.7031 6 10.344 8.6406 13.973 10.152 30.801 15.613 48.07 15.602 18.867-0.074218 37.176-6.3945 52.066-17.98 3.5352-2.7266 6.9023-5.6641 10.078-8.8047-1.1094 6.5664-4.4844 12.535-9.5391 16.863zm43.07-85.176c-4.0352 5.5273-10.098 10.203-24.52 2.9727l0.007812-0.003906c-5.7656-2.7812-12.699-0.42188-15.566 5.3008-2.8711 5.7227-0.62109 12.688 5.0547 15.648 1.3398 0.67187 2.668 1.2695 3.9844 1.832v-0.003907c-6.5469 12.699-15.699 23.875-26.863 32.793-21.691 16.691-50.668 17.484-72.102 1.9688-11.922-9.0742-21.434-20.934-27.699-34.547 1.4961-0.61719 3-1.2852 4.5156-2.0469v0.003907c2.8281-1.3672 4.9883-3.8086 6-6.7812 1.0117-2.9688 0.78906-6.2227-0.61719-9.0312-1.4102-2.8047-3.8828-4.9297-6.8711-5.8945s-6.2383-0.69141-9.0195 0.75781c-14.422 7.2305-20.488 2.5586-24.52-2.9727-14.242-19.527-10.523-68.145 2.7266-81.66l0.003906 0.003906c20.301-21.273 34.621-47.535 41.496-76.129 1.1406-5.8281-2.2617-11.586-7.918-13.402-5.6523-1.8164-11.773 0.88281-14.242 6.2852 1.1445-9.1836 4.4805-17.961 9.7305-25.582 8.2031-11.844 19.02-29.531 23.992-46.496 0.67578-2.3008 2.7266-9.2891 15.055-13.316h0.003906c6.6133-1.9648 13.496-2.8711 20.391-2.6836 1.8828 0.046875 3.7734 0.046875 5.668 0 6.9102-0.1875 13.805 0.71875 20.434 2.6836 12.359 4.0273 14.41 11.016 15.086 13.316 4.9727 16.973 15.793 34.652 23.992 46.496h-0.003906c5.2539 7.6211 8.5898 16.395 9.7305 25.578-2.4688-5.3984-8.5898-8.0977-14.242-6.2812-5.6523 1.8164-9.0547 7.5742-7.9141 13.402 6.875 28.594 21.191 54.855 41.496 76.129 13.266 13.504 16.984 62.125 2.7422 81.648zm66.16-446.42 0.007813-0.003906c-5.4414 3.0195-11.594 4.5078-17.812 4.3047 7.7969-11.516 16.777-19.031 26.855-22.391 2.9727-0.98438 6.0508-1.6055 9.168-1.8555-4.0859 8.2148-10.391 15.121-18.203 19.934zm-43.707 30 0.003906-0.003906c4.8477 2.0898 10.496 0.66797 13.777-3.4688 4.2461 0.82031 8.5625 1.2461 12.891 1.2773 4.2422 0 8.4727-0.44922 12.617-1.3477 1.0234 4.332 2.1602 9.7773 3.1914 16.117-8.0078 19.938-14.934 23.398-16.961 23.984-2.7539 0.80078-6.4766-0.58594-11.07-4.1133-18.23-13.984-22.5-25.496-22.945-26.852-0.042969-0.20312-0.10156-0.40625-0.17188-0.60156-5.7773-19.352-6.582-39.848-2.3438-59.594l0.082032-0.38672c3.9375-18.984 14.164-29.336 31.262-31.641 12.531-1.6836 22.246 0.17187 28.871 5.5273 2.7578 2.2773 5.0234 5.0898 6.6602 8.2656-3.4336 0.51172-6.8164 1.3086-10.113 2.3828-21.766 7.0938-39.219 25.613-51.879 55.051-2.5469 5.9453 0.20312 12.824 6.1406 15.379zm62.164-122.21 0.007812-0.003906c5.8672 4.9961 9.7109 11.965 10.801 19.594 0.56641 3.918 0.25781 7.9102-0.91016 11.691-2.2812-3.0117-4.9023-5.7422-7.8164-8.1445-11.867-9.7617-27.699-13.387-47.043-10.781-26.992 3.6328-45.137 21.426-51.094 50.105l-0.070312 0.32812c-5.0273 23.539-4.0586 47.965 2.8125 71.039 0.98828 3.625 6.7344 20.555 31.336 39.426 7.9883 6.125 15.91 9.2031 23.648 9.2031v-0.003906c2.7734 0 5.5352-0.39453 8.2031-1.1719 5.0781-1.543 9.7227-4.2539 13.57-7.9141 0.125 19.895-2.7227 39.699-8.4531 58.758-22.195 71.891-36.906 153.96-45.215 208.89-0.13281-0.14062-0.26172-0.30078-0.39453-0.4375v-0.003906c-8.0508-8.3008-14.98-17.629-20.602-27.734 5.0977-8.8008 7.9609-18.711 8.3516-28.875 0.65234-17.496-4.3633-34.734-14.297-49.152-7.2148-10.422-16.68-25.781-20.773-39.742-2.3438-7.9883-13.484-34.016-58.594-32.84l-7.332-0.039063c-42.68 0-53.406 25.055-55.695 32.875-4.0938 13.969-13.555 29.324-20.773 39.742l0.003906 0.003907c-9.9336 14.422-14.941 31.66-14.285 49.156 0.38672 10.176 3.2617 20.102 8.3711 28.906-5.6367 10.094-12.57 19.406-20.625 27.699-0.13672 0.14062-0.26172 0.30078-0.39844 0.44141-8.3047-54.934-23.02-137-45.215-208.89h0.003906c-5.75-19.234-8.5859-39.219-8.4219-59.289 3.957 3.9062 8.8008 6.7969 14.121 8.418 2.6641 0.77344 5.4258 1.168 8.2031 1.1719 7.7344 0 15.664-3.0781 23.652-9.2031 24.594-18.867 30.34-35.793 31.332-39.426 6.8711-23.07 7.8398-47.496 2.8125-71.039l-0.070313-0.32812c-5.9453-28.68-24.09-46.473-51.094-50.105-19.359-2.6094-35.176 1.0234-47.043 10.781-2.9492 2.4297-5.6016 5.1992-7.9062 8.2539-1.5156-3.7383-1.9805-7.8164-1.3516-11.797 1.0898-7.6328 4.9336-14.602 10.805-19.598 14.172-12.422 55.965-53.703 61.945-79.453 0.71094-3.4609 1.8281-6.8281 3.3281-10.027 39.125-78.75 90.758-87.297 112.32-87.016h3.4609c63.082 0 100.93 66.434 111.11 87.012h-0.003906c1.5039 3.207 2.6211 6.5781 3.3398 10.043 5.9766 25.75 47.773 67.023 61.945 79.453zm16.816-157.97 0.007812-0.003906c-7.7344 12.988-11.465 27.969-10.727 43.07 1.1055 20.391-3.6875 38.266-14.25 53.137v-0.003907c-2.6914 3.8008-5.7461 7.332-9.1172 10.547-11.07-13.043-20.047-25.832-21.836-33.535-1.1328-5.2266-2.8633-10.309-5.1562-15.145-1.5195-3.0703-3.4805-6.832-5.8594-11.047 10.711-126.55 82.641-290.1 104.12-324.44 12.695 15.078 32.688 41.5 35.977 57.891l0.37891-0.078124c-0.65234 63.609-25.293 137.28-73.52 219.59z"/>
 </g>
</svg>
