<?xml version="1.0" encoding="UTF-8" standalone="no"?>
<svg
   width="1200pt"
   height="1200pt"
   version="1.1"
   viewBox="0 0 1200 1200"
   id="svg4"
   sodipodi:docname="anthelm.svg"
   inkscape:version="1.2.2 (b0a8486541, 2022-12-01)"
   xmlns:inkscape="http://www.inkscape.org/namespaces/inkscape"
   xmlns:sodipodi="http://sodipodi.sourceforge.net/DTD/sodipodi-0.dtd"
   xmlns="http://www.w3.org/2000/svg"
   xmlns:svg="http://www.w3.org/2000/svg">
  <defs
     id="defs8" />
  <sodipodi:namedview
     id="namedview6"
     pagecolor="#ffffff"
     bordercolor="#000000"
     borderopacity="0.25"
     inkscape:showpageshadow="2"
     inkscape:pageopacity="0.0"
     inkscape:pagecheckerboard="0"
     inkscape:deskcolor="#d1d1d1"
     inkscape:document-units="pt"
     showgrid="false"
     inkscape:zoom="0.28080976"
     inkscape:cx="12.463954"
     inkscape:cy="906.30753"
     inkscape:window-width="1674"
     inkscape:window-height="752"
     inkscape:window-x="50"
     inkscape:window-y="114"
     inkscape:window-maximized="0"
     inkscape:current-layer="svg4" />
  <g
     id="g299"
     transform="translate(59.994)">
    <path
       d="M 776.12,459.53 575.3,278.82 V 176.46 c 0,-19.41 -15.883,-35.293 -35.293,-35.293 V 35.287 c 0,-19.41 -15.883,-35.293 -35.293,-35.293 h -211.77 c -19.41,0 -35.293,15.883 -35.293,35.293 v 105.88 c -19.414,0 -35.297,15.883 -35.297,35.293 v 105.88 c 0,14.469 8.8242,26.824 21.176,32.469 -37.41,189.18 -56.469,381.89 -56.469,575.3 v 239.29 c 0,38.824 31.766,70.59 70.59,70.59 h 564.71 c 38.824,0 70.59,-31.766 70.59,-70.59 l -0.004,-407.64 c 0,-99.883 -42.352,-195.18 -116.82,-262.23 z M 292.94,247.06 V 211.767 H 504.71 V 247.06 Z M 328.233,70.59 h 141.18 v 70.59 h -141.18 z m 458.82,900 c 0,29.293 -23.648,52.941 -52.941,52.941 -29.293,0 -52.941,-23.648 -52.941,-52.941 V 688.24 c 0,-29.293 23.648,-52.941 52.941,-52.941 29.293,0 52.941,23.648 52.941,52.941 z"
       id="path2"
       style="fill:#e6e6e6" />
    <g
       id="g1471"
       transform="matrix(0.51042059,0,0,0.51042059,137.0133,508.30261)"
       style="fill:#666666">
      <path
         d="m 767.2,240.2 c 12.398,0 22.398,-10 22.398,-22.398 l 0.004,-95.402 c 0,-12.398 -10,-22.398 -22.398,-22.398 h -334.6 c -12.398,0 -22.398,10 -22.398,22.398 v 95.398 c 0,12.398 10,22.398 22.398,22.398 z"
         id="path1463"
         style="fill:#666666" />
      <path
         d="M 332.4,415.6 V 524.4 H 867.8 V 415.6 c 0,-37.801 -30.801,-68.398 -68.398,-68.398 h -48.801 v -67 l -301,-0.004 v 67 H 400.8 c -37.801,0 -68.402,30.602 -68.402,68.402 z"
         id="path1465"
         style="fill:#666666" />
      <path
         d="M 332.4,564.4 H 867.8 V 883 H 332.4 Z"
         id="path1467"
         style="fill:#666666" />
      <path
         d="m 332.4,1031.6 c 0,37.801 30.602,68.398 68.398,68.398 h 398.6 c 37.602,0 68.398,-30.602 68.398,-68.398 V 922.8 h -535.4 z"
         id="path1469"
         style="fill:#666666" />
    </g>
  </g>
</svg>
