<?xml version="1.0" encoding="UTF-8" standalone="no"?>
<svg
   width="1200pt"
   height="1200pt"
   version="1.1"
   viewBox="0 0 1200 1200"
   id="svg34"
   sodipodi:docname="asso.svg"
   inkscape:version="1.2.2 (b0a8486541, 2022-12-01)"
   xmlns:inkscape="http://www.inkscape.org/namespaces/inkscape"
   xmlns:sodipodi="http://sodipodi.sourceforge.net/DTD/sodipodi-0.dtd"
   xmlns="http://www.w3.org/2000/svg"
   xmlns:svg="http://www.w3.org/2000/svg">
  <defs
     id="defs38" />
  <sodipodi:namedview
     id="namedview36"
     pagecolor="#ffffff"
     bordercolor="#666666"
     borderopacity="1.0"
     inkscape:showpageshadow="2"
     inkscape:pageopacity="0.0"
     inkscape:pagecheckerboard="0"
     inkscape:deskcolor="#d1d1d1"
     inkscape:document-units="pt"
     showgrid="false"
     inkscape:zoom="0.53125"
     inkscape:cx="750.11765"
     inkscape:cy="800"
     inkscape:window-width="1674"
     inkscape:window-height="773"
     inkscape:window-x="1970"
     inkscape:window-y="89"
     inkscape:window-maximized="0"
     inkscape:current-layer="svg34" />
  <g
     id="g32"
     style="fill:#e6e6e6">
    <path
       d="m600 546c-70.801-43.199-152.4-66-234-66h-270v60h270c82.801 0 164.4 22.801 234 66 70.801 43.199 152.4 54 235.2 54h268.8v-60h-268.8c-82.801 0-164.4-10.801-235.2-54z"
       id="path2"
       style="fill:#e6e6e6" />
    <path
       d="m330 378h-240v-108h240c78 0 186-18 265.2-105.6 60-67.199 147.6-98.398 273.6-98.398h240v108h-240c-97.199 0-196.8 6-265.2 81.602 0 1.1992-111.6 122.4-273.6 122.4zm-228-12h228c156 0 264-116.4 265.2-117.6 72-79.199 174-86.398 273.6-86.398h228v-84h-228c-122.4 0-207.6 30-265.2 93.602-64.801 72-159.6 110.4-273.6 110.4h-228z"
       id="path4"
       style="fill:#e6e6e6" />
    <path
       d="m600 858c-69.602-147.6-213.6-294-376.8-294h-127.2v72h127.2c163.2 0 276 162 376.8 330 52.801 87.602 213.6 162 376.8 162h127.2v-72h-127.2c-163.2 0-316.8-70.801-376.8-198z"
       id="path6"
       style="fill:#e6e6e6" />
    <path
       d="m96 972v60c145.2 0 280.8-69.602 364.8-186l277.2-382.8c85.199-117.6 220.8-187.2 366-187.2v-60c-145.2 0-280.8 69.602-364.8 186l-278.4 384c-84 116.4-219.6 186-364.8 186z"
       id="path8"
       style="fill:#e6e6e6" />
    <path
       d="m60 60h36v336h-36z"
       id="path10"
       style="fill:#e6e6e6" />
    <path
       d="m60 804h36v336h-36z"
       id="path12"
       style="fill:#e6e6e6" />
    <path
       d="m60 432h36v336h-36z"
       id="path14"
       style="fill:#e6e6e6" />
    <path
       d="m1110 750h-6c-130.8 0-256.8-51.602-350.4-144l-315.6-315.6c-91.199-90-213.6-140.4-342-140.4h-6v-48h6c130.8 0 256.8 51.602 350.4 144l316.8 315.6c90 90 213.6 141.6 342 140.4h6v48zm-1008-612c129.6 1.1992 252 52.801 344.4 144l316.8 315.6c88.801 88.801 210 139.2 336 140.4v-24c-129.6-1.1992-252-52.801-344.4-144l-316.8-315.6c-90-88.797-210-139.2-336-140.4z"
       id="path16"
       style="fill:#e6e6e6" />
    <path
       d="m1104 60h36v336h-36z"
       id="path18"
       style="fill:#e6e6e6" />
    <path
       d="m1104 804h36v336h-36z"
       id="path20"
       style="fill:#e6e6e6" />
    <path
       d="m1104 432h36v336h-36z"
       id="path22"
       style="fill:#e6e6e6" />
    <path
       d="m109.2 180h-13.199v72h13.199c106.8 0 208.8 42 284.4 117.6l426 424.8c75.602 75.598 177.6 117.6 284.4 117.6v-72c-106.8 0-208.8-42-284.4-117.6l-426-424.8c-75.602-75.602-177.6-117.6-284.4-117.6z"
       id="path24"
       style="fill:#e6e6e6" />
    <path
       d="m711.6 421.2-224.4 145.2c-91.199 58.801-196.8 90-306 90h-85.199v52.801h80.398c111.6 0 220.8-33.602 313.2-96l219.6-145.2c92.398-62.398 200.4-96 312-96h84v-40.801h-88.801c-108 0-213.6 31.199-304.8 90z"
       id="path26"
       style="fill:#e6e6e6" />
    <path
       d="m117.6 938.4h-27.602v-102h27.602c148.8 0 294-46.801 412.8-135.6l132-97.199c121.2-90 268.8-138 420-138h27.602v102h-27.602c-148.8 0-294 46.801-412.8 135.6l-132 97.199c-121.2 90-268.8 138-420 138zm-15.602-12h15.602c148.8 0 294-46.801 412.8-135.6l132-98.398c121.2-90 268.8-138 420-138h15.602v-78h-15.602c-148.8 0-294 46.801-412.8 135.6l-132 98.398c-121.2 90-268.8 138-420 138h-15.602z"
       id="path28"
       style="fill:#e6e6e6" />
    <path
       d="m136.8 1118.4h-46.801v-66h46.801c105.6 0 210-10.801 313.2-31.199l295.2-58.801c104.4-20.398 210-31.199 315.6-31.199h48v64.801h-48c-105.6 0-210 10.801-313.2 31.199l-295.2 58.801c-103.2 21.602-208.8 32.398-315.6 32.398zm-34.801-12h34.801c105.6 0 210-10.801 313.2-31.199l296.4-58.801c104.4-20.398 210-31.199 315.6-31.199h36v-40.801h-36c-105.6 0-210 10.801-313.2 31.199l-296.4 58.801c-104.4 20.398-210 31.199-315.6 31.199h-36v40.801z"
       id="path30"
       style="fill:#e6e6e6" />
  </g>
</svg>
