<?xml version="1.0" encoding="UTF-8"?>
<svg width="1200pt" height="1200pt" version="1.1" viewBox="0 0 1200 1200" xmlns="http://www.w3.org/2000/svg">
 <g>
  <path d="m654.55 1061.6c4.9766 3.082 11.094 3.7148 16.598 1.7188 16.473-5.9492 27.812-16.074 33.711-30.102 7.1445-16.996 4.082-35.504 0.86328-46.82-0.085937-0.34375-0.18359-0.6875-0.30078-1.0273-0.94922-3.293-2.1133-6.5195-3.4805-9.6602-2.5117-5.4805-8.7695-8.1602-14.465-6.1992-5.6992 1.9609-8.9844 7.9258-7.5898 13.789-20.48 12.574-37.246 37.715-33.957 64.984 0.68359 5.5234 3.8594 10.43 8.6211 13.316zm31.242-53.551v-0.003906c0.33984 5.5156-0.53906 11.039-2.5781 16.172-2.8125 6.3984-7.8438 11.559-14.168 14.531 0.9375-12.316 8.2656-23.324 16.746-30.703z"/>
  <path d="m533.59 985.01c2.4258-5.9141-0.33594-12.684-6.207-15.211-5.8711-2.5273-12.688 0.11328-15.316 5.9414-1.3242 3.0352-2.4531 6.1523-3.3828 9.332-0.12891 0.36328-0.23438 0.73047-0.32422 1.1055-3.2461 11.289-6.4062 29.945 0.78906 47.07 5.8984 14.027 17.238 24.152 33.711 30.102 5.5039 1.9961 11.621 1.3633 16.598-1.7188 4.7617-2.8867 7.9375-7.793 8.6211-13.316 1.75-14.504-3.082-36.91-34.488-63.305zm-2.7969 39.242-0.003906-0.003906c-1.6016-3.9297-2.4727-8.1172-2.5781-12.359 9.2344 9.457 14.805 18.531 16.324 26.66-6.1328-2.9844-11.004-8.0508-13.746-14.301z"/>
  <path d="m452.95 624.82 22.773 5.5391c26.781-110.16-57.562-198.5-61.172-202.2l-16.812 16.328c0.79687 0.82422 78.891 82.941 55.211 180.34z"/>
  <path d="m735.65 639.31c3.5977 0.003906 6.9961-1.6445 9.2188-4.4727s3.0273-6.5195 2.1758-10.016c-23.645-97.246 54.176-179.28 55.203-180.33 4.4336-4.6523 4.293-12.012-0.32031-16.488-4.6094-4.4805-11.965-4.4102-16.488 0.15625-3.6055 3.707-87.949 92.043-61.172 202.2 1.2734 5.25 5.9766 8.9492 11.383 8.9492z"/>
  <path d="m65.273 478.71c78.305 81.719 187.28 99.984 267.48 100.37 0.097656 0.16797 0.19531 0.34375 0.29297 0.51562 5.6094 17.594 72.688 232.67 62.047 416.76-2.9453 50.934 10.473 89.223 39.875 113.8h0.003906c2.9883 2.4766 6.1094 4.7852 9.3516 6.918l-0.023437 0.03125c1.9492 1.4336 4.4844 3.4688 7.4219 5.8281 23.672 19.012 72.598 58.316 149.75 58.316 0.9375 0 1.8828-0.003906 2.832-0.015625 80.266-1 123.78-36.273 144.69-53.23 1.875-1.5117 3.5156-2.8516 5.043-4.0273v0.003906c8.4336-4.2188 16.223-9.6211 23.133-16.039 26.508-24.945 35.797-62.898 27.613-112.8-10.621-64.766-3.2812-157.08 21.254-266.95 17.289-77.461 37.598-138.77 40.672-147.89 0.28516-0.46875 0.56641-0.96484 0.84766-1.4453 80.203-0.37109 189.21-18.602 267.38-100.25 48.516-50.676 61.824-101.42 62.367-103.55 1.168-4.6055-0.55859-9.4648-4.3711-12.297-68.168-50.625-154.89-66.742-250.78-46.609-40.352 8.5508-79.398 22.371-116.14 41.113-2.2422-2.9727-4.3477-6.0312-6.2812-9.125 10.328-7.3242 18.875-18.699 25.52-33.969 81.051-40.672 128.12-90.867 139.88-149.25 15.629-77.605-37.363-139.53-39.629-142.13h0.003906c-3.2344-3.707-8.4336-5.0039-13.027-3.2461-4.5938 1.7617-7.5977 6.1992-7.5273 11.117 0.023438 1.5859 1.043 156.2-105.89 210.94-3.8672-1.3672-8.1055-1.2305-11.879 0.38281-4.5703 1.9023-9.293 3.4062-14.121 4.5-23.719 5.4336-48.629 1.0938-69.109-12.043-1.1953-0.76562-2.4102-1.5508-3.6445-2.3555-14.91-9.7539-61.641-30.258-103.4-27.695-13.301 0.77344-26.633 0.75781-39.93-0.046876-37.031-2.0625-78.449 15.449-97.25 27.746-1.2344 0.80469-2.4492 1.5859-3.6484 2.3438v-0.003906c-20.48 13.141-45.391 17.48-69.105 12.043-4.832-1.0938-9.5547-2.5977-14.129-4.5-3.7695-1.6094-8.0039-1.7461-11.871-0.38281-106.7-54.637-105.91-209.35-105.89-210.94 0.074219-5.0312-3.0703-9.5469-7.8125-11.223-4.7461-1.6758-10.027-0.13672-13.129 3.8242-2.3438 2.9805-56.855 73.852-36.414 154.82 14.148 56.035 60.371 101.92 137.38 136.45 5.7227 11.648 14.434 21.578 25.238 28.773-1.4922 2.5-3.0742 5.0156-4.7188 7.5273-37.125-17.566-76.352-30.293-116.72-37.863-96.652-17.977-183.73-0.75391-251.81 49.805-3.8203 2.8359-5.543 7.6992-4.3633 12.309 0.54687 2.1406 13.957 52.934 62.562 103.66zm868.71-353.43c5.6523-19.312 9.6797-39.062 12.047-59.043 11.812 22.613 23.691 56.719 16.07 94.238-9.9297 48.855-49.848 91.961-118.68 128.26l-10.793-27.816c47.688-25.547 82.621-72.199 101.36-135.64zm-577.62 164.03c-65.055-30.852-104.03-70.102-115.9-116.82-10.156-39.992 1.7266-78.242 13.812-103.72 2.3984 19.121 6.3203 38.016 11.734 56.508 18.734 63.438 53.672 110.09 101.36 135.64zm-13.867 256.11c10.781-1.8555 23.672-1.9219 34.688 4.1094 12.145 6.6406 20.66 19.867 25.457 39.402-13.898-1.8906-31.875-5.0898-40.598-9.3555-4.1562-2.4297-12.402-17.121-19.547-34.156zm261.5 612.37c-28.848 0.46094-57.422-5.6875-83.523-17.984 5.0938 0.3125 10.129 0.46875 15.043 0.46875h0.003906c22.922-0.10547 45.758-2.7812 68.082-7.9805 0.39453-0.09375 0.80469-0.09375 1.1992 0 27.426 6.0781 55.523 8.5703 83.594 7.4102-20.984 9.7891-48.418 17.633-84.398 18.086zm-11.605-71.445c-48.207 4.4688-86.332-16.895-101.98-57.16-10.609-27.297-7.3555-55.949 7.3633-74.098 5.3906-4.6875 33.297-26.762 68.18-15.027v-0.003906c24.773 8.3008 51.578 8.3164 76.359 0.042969 34.578-11.641 62.629 9.5898 68.797 14.793 14.109 17.578 17.109 45.469 6.7461 72.145-19.098 49.141-66.742 62.855-104.96 59.312l0.003906-0.007813c-6.8242-0.63281-13.688-0.63281-20.512 0.003906zm245.62-506.8c-8.4375 4.1172-25.379 7.2383-39.039 9.1562 6.9219-22.328 17.266-36.707 30.91-42.789v0.003907c9.1367-3.7227 19.227-4.4141 28.789-1.9766-7.6367 17.719-16.438 33.137-20.664 35.605zm279.98-117.16c-55.719 58.199-137.89 90.145-238.62 92.848 0.39844-0.91797 0.79297-1.832 1.1719-2.7148 5.5977 2.7109 12.344 0.56641 15.34-4.8867 3-5.4531 1.1992-12.297-4.0898-15.57-0.125-0.078125-0.50781-0.3125-1.0781-0.64062 65.488-5.2656 89.629-52.133 90.738-54.375v-0.003906c2.8359-5.7773 0.48438-12.762-5.2695-15.645-5.7578-2.8789-12.758-0.58203-15.688 5.1523-0.9375 1.8359-22.832 42.988-84.672 41.859h0.003906c-1.4492-6.1367-3.6797-12.062-6.6406-17.633 2.1992-5.9062 3.957-11.969 5.2539-18.133 30.703-5.9102 43.035-0.77734 45.816 0.74219v-0.003907c2.7461 3.25 7.0312 4.7617 11.207 3.9531 4.1758-0.80859 7.5859-3.8125 8.9219-7.8516 1.3594-4.2266 0.30078-8.8594-2.7617-12.074-2.6562-2.9219-17.141-15.77-60.371-9.0508v0.003906c0.59375-16.504-3.1758-32.871-10.93-47.453 24.121-10.383 49.395-17.855 75.281-22.266 48.75-8.7266 126.36-12.781 223.4 15.5-11.855 25.152-27.734 48.203-47.016 68.246zm-170.37-123.45c80.891-16.844 151.86-7.0039 211.36 29.195-96.168-25.824-173.45-21.312-222.8-12.324-42.379 7.7227-71.277 19.688-84.609 26.062-2.5781-2.4648-5.3086-4.7695-8.1719-6.8984-0.054688-0.042969-0.10547-0.085938-0.16016-0.125v-0.003906c33.207-16.168 68.258-28.227 104.38-35.906zm-525.23-29.438c2.0586-6.082-1.1641-12.688-7.2227-14.812-6.0586-2.125-12.699 1.0234-14.891 7.0586-0.070312 0.19922-3.1484 8.832-8.8789 20.797-6.6367-4.875-11.965-11.316-15.512-18.75l14.609-37.648c3.4219 1.1562 7.1172 2.2031 11.051 3.1328 29.883 6.8789 61.281 1.4414 87.109-15.086 1.2734-0.8125 2.5664-1.6445 3.875-2.5039 15.582-10.195 51.918-25.715 83.098-23.953l0.003906-0.003907c14.215 0.85547 28.469 0.87109 42.688 0.039063 33.961-2.1094 74.805 14.547 89.129 23.906 1.3125 0.85938 2.6016 1.6914 3.875 2.5039 25.832 16.531 57.227 21.973 87.113 15.09 3.9336-0.9375 7.6289-1.9766 11.051-3.1328l14.656 37.766c-4.3633 10.293-9.5352 18.016-15.457 23.105-3.4766-7.8555-6.375-15.953-8.6719-24.23-1.6523-6.1836-7.957-9.8984-14.168-8.3477-6.207 1.5547-10.023 7.8008-8.5664 14.035 0.58203 2.3438 14.711 57.551 52.152 85.332 17.535 13.008 25.703 32.168 24.277 56.953-0.29688 4.9258-0.92969 9.8281-1.8984 14.668-3.5391-4.1797-6.2656-7-7.0703-7.8086l0.003906-0.003907c-4.5547-4.5977-11.973-4.6367-16.574-0.082031-4.5977 4.5508-4.6367 11.973-0.082032 16.57 5.8359 5.8945 21.684 24.5 24.898 39.609 0.39844 1.9102 0.67578 3.8398 0.83203 5.7812-22.066-2.6562-43.918 6.3828-57.656 23.852 3.6797-16.348 9.6055-32.109 17.605-46.836 3.1836-5.5977 1.25-12.719-4.3281-15.938-5.5781-3.2227-12.711-1.3359-15.969 4.2188-1.4219 2.4648-33.75 59.32-19.098 104.82-1.3672 5.2109-2.5938 10.68-3.6406 16.449h-0.003907c-1.0664 5.7812 2.3281 11.457 7.9258 13.254 5.5977 1.7969 11.66-0.83984 14.16-6.1602 13.871-1.4922 27.621-3.9648 41.145-7.3945-23.332 76.508-73.594 263.44-52.316 393.18 6.8477 41.734-0.066406 72.656-20.547 91.941-42.613 40.094-134.23 22.266-149.81 18.852 4.9922 0.44531 9.8359 0.67188 14.531 0.67578 62.16 0 99.402-37.609 113.88-74.871 16.203-41.703 7.0312-84.93-22.812-107.58-25.172-19.094-25.172-69.672-25.172-114.3 0-6.4688-5.2461-11.719-11.719-11.719-6.4727 0-11.719 5.25-11.719 11.719 0 34.629 0 72.449 11.395 101.13-14.961-2.8906-30.418-1.8203-44.84 3.1055-19.93 6.6445-41.484 6.6289-61.406-0.046875-14.121-4.8242-29.254-5.9141-43.922-3.1602 11.348-28.668 11.355-66.438 11.355-101.02 0-6.4727-5.25-11.719-11.719-11.719-6.4727 0-11.719 5.2461-11.719 11.719 0 44.621 0 95.199-25.176 114.3v-0.003907c-4.2227 3.2148-8.082 6.8867-11.508 10.941l-0.054688 0.050781c-20.828 24.609-26.043 62.902-12.125 98.723v0.003906c8.5742 22.414 24.137 41.477 44.387 54.359 22.684 14.395 50.902 20.484 81.609 17.645 1.3906-0.12891 2.7891-0.22266 4.1914-0.28516-0.20703 0.042969-0.42187 0.0625-0.62891 0.11328v0.003907c-20.992 4.9258-42.48 7.4219-64.043 7.4375-36.328-0.17188-64.613-8.5078-84.09-24.789-23.398-19.559-34-51.328-31.504-94.453 8.6992-150.55-33.234-320.81-53.324-392.21v0.003906c13.797 3.5664 27.832 6.1211 42.004 7.6406 2.4258 5.168 8.2305 7.8281 13.73 6.293 5.5-1.5312 9.0898-6.8125 8.4922-12.492-0.58984-5.7422-1.4062-11.176-2.4297-16.359 11.25-34.27-5.082-75.332-14.582-94.773h0.003907c-2.8594-5.793-9.8711-8.1719-15.668-5.3125-5.793 2.8555-8.1719 9.8711-5.3125 15.664 5.4688 11.18 9.7383 22.902 12.746 34.98-4.5664-4.8555-9.8711-8.9609-15.719-12.164-12.203-6.3867-25.984-9.1328-39.703-7.9102-0.98438-2.3242-1.5742-4.8008-1.7422-7.3203 2.9453-11.879 8.8086-22.832 17.062-31.875 3.5-3.9531 3.9102-9.7656 0.99609-14.172-2.9141-4.4023-8.4219-6.3047-13.43-4.6289-2.6406-19.434-1.8477-48.805 20.156-70.312 32.289-31.586 49.895-81.164 50.625-83.262zm-168.5 26.375h0.003906c36.984 6.9609 72.988 18.402 107.21 34.07-1.8594 2.0898-3.75 4.1289-5.7344 6.0625-2.207 2.1602-4.2344 4.3789-6.1328 6.6289-36.059-11.656-182-54.773-287.05-26.148 55.164-26.992 119.43-33.953 191.71-20.613zm82.242 67.266h0.003907c-5.9922 13.348-9.1172 27.805-9.168 42.438-25.23-0.9375-52.148 8.7695-53.512 9.2695-2.957 1.0391-5.375 3.2227-6.7148 6.0586-1.3359 2.8359-1.4805 6.0898-0.40234 9.0312 1.0781 2.9453 3.293 5.332 6.1484 6.6328 2.8516 1.2969 6.1055 1.3984 9.0352 0.28125 8.0352-2.9453 30.043-9.1797 47.18-7.7344 0.91797 5.7891 2.1992 11.516 3.832 17.145-2.3711 4.4219-4.3711 9.0312-5.9766 13.785-61.691 2.2578-79.379-31.547-80.23-33.262v0.003906c-2.7617-5.8555-9.7461-8.3594-15.598-5.5977-5.8555 2.7578-8.3594 9.7422-5.5977 15.598 0.95312 2.0352 22.719 46.832 95.504 46.832 1.4492 0 2.9648-0.058594 4.4531-0.09375 0.14453 0.59375 0.28516 1.1914 0.44531 1.7891v-0.003906c-5.625 1.6133-11.105 3.6914-16.383 6.2188-2.8398 1.3594-5.0117 3.8047-6.0312 6.7852-1.0156 2.9805-0.78906 6.2461 0.62891 9.0586s3.9062 4.9336 6.9062 5.8906 6.2617 0.66406 9.043-0.80859l0.23437-0.11328c0.41797 1.0273 0.85156 2.082 1.2969 3.1562-101.48-2.4805-181.5-33.484-238.2-92.094v-0.003906c-20.141-20.758-36.637-44.766-48.785-71.016 90.043-48.523 254.13-3.9219 301.89 10.742z"/>
 </g>
</svg>
