<?xml version="1.0" encoding="UTF-8"?>
<svg width="1200pt" height="1200pt" version="1.1" viewBox="0 0 1200 1200" xmlns="http://www.w3.org/2000/svg">
 <g>
  <path d="m577.95 919.16c-7.6406-0.039062-15.145 2.0195-21.691 5.9609-6.543 3.9375-11.879 9.6055-15.418 16.375-4.3438 8.625-7.2969 22.309 3.2656 38.523 11.227 16.695 23.594 32.594 37.02 47.578 3.6211 4.0859 8.8242 6.4258 14.285 6.4258 5.4648 0 10.664-2.3398 14.289-6.4258 13.422-14.984 25.789-30.883 37.016-47.578 10.566-16.215 7.6133-29.898 3.2812-38.52-3.5391-6.7695-8.875-12.438-15.422-16.379-6.5469-3.9375-14.051-6-21.691-5.9609zm51.113 32.875c1.6094 3.1953 2.8359 7.8086-1.9727 15.188-9.6484 14.387-20.227 28.125-31.668 41.133-11.441-13.008-22.02-26.746-31.668-41.133-4.8086-7.3789-3.5781-11.992-1.9688-15.191 1.5703-2.9023 3.9102-5.3164 6.7656-6.9805 2.8516-1.6641 6.1055-2.5117 9.4062-2.4531h34.922c3.3047-0.0625 6.5586 0.78516 9.4141 2.4492 2.8555 1.6641 5.1953 4.082 6.7695 6.9883z"/>
  <path d="m260.54 217.11c0.18359-0.097657 0.38281-0.20703 0.5625-0.3125 2.75-1.6094 67.902-38.996 114.19 3.1055 27.781 25.262 45.809 86.293 52.141 176.5 3.1484 44.84 2.5977 86.691 1.793 111.09-35.957-2.5586-138.81-1.8125-226.96 76.559-37.555-11.531-73.691-17.445-97.902-2.6914-14.605 8.9062-23.336 24.156-25.949 45.336-2.3008 18.625 5.1562 35.648 21.531 49.238 46.141 38.266 159.54 45.078 209.09 29.258 19.922-6.3594 40.508-18.395 56.871-29.492h-0.003906c0.16016 1.6953 0.41797 3.3828 0.76172 5.0508-2.3828 2.0156-4.7891 4.1523-7.2344 6.4727-3.8789 3.6562-4.793 9.4766-2.2148 14.145 2.5742 4.668 7.9844 7 13.145 5.668 2.1328 11.316 7.6016 21.734 15.703 29.914 2.8984 2.8477 6.1094 5.3555 9.5703 7.4805-3.1953 13.66-6.9414 38.816 1.8008 59.984 6.4414 15.594 23.223 42.859 38.027 66.914 8.7734 14.254 19.637 31.906 21.477 36.547 0.12109 1.3672-0.050782 4.7812-0.18359 7.5625-0.95312 19.555-2.875 59.41 35.68 92.418-0.875 15.078 0.12109 30.207 2.9727 45.035 9.7383 50.012 37.555 82.812 80.441 94.852 7.2773 2.0352 14.801 3.0586 22.359 3.0469 6.4336-0.003906 12.848-0.71875 19.121-2.1328 46.445-10.445 76.508-42.977 86.953-94.062 3.1055-15.371 4.2227-31.074 3.3203-46.73 38.582-33.016 36.641-72.863 35.676-92.418-0.13672-2.7773-0.30469-6.1875-0.1875-7.5547 1.8594-4.6875 12.715-22.309 21.477-36.547 14.805-24.055 31.586-51.328 38.027-66.914 8.9805-21.738 3.0039-49.039-1.4414-63.586v-0.003906c12.73-7.8984 22.152-20.16 26.508-34.496 5.3398 2.4844 11.691 0.61719 14.828-4.3633 3.1406-4.9844 2.0859-11.52-2.4609-15.262-2.3008-1.9219-4.5625-3.6875-6.8125-5.3906 0.41016-1.8633 0.70703-3.7461 0.89062-5.6445 16.363 11.098 36.945 23.133 56.871 29.492 49.566 15.82 162.96 9.0039 209.09-29.258 16.387-13.594 23.832-30.613 21.531-49.238-2.6133-21.18-11.348-36.438-25.949-45.336-23.949-14.594-59.559-8.9609-96.672 2.3242-88.285-78.473-192.07-78.879-228.22-76.215-0.80469-24.336-1.3477-66.039 1.7852-110.8 3.1367-44.82 9.1602-82.438 17.824-112.07 0.027343-0.10156 0.0625-0.19531 0.085937-0.30078 8.793-29.941 20.289-51.688 34.258-64.387 46.293-42.102 111.44-4.7188 114.17-3.1133 0.19141 0.11328 0.38281 0.21875 0.58203 0.32031 73.422 37.957 127.68 49.855 166.88 49.852 63.648 0 87.547-31.391 89.09-33.516l0.003906-0.003906c2.7734-3.832 2.9727-8.9648 0.49609-13-2.4766-4.0352-7.1367-6.1836-11.816-5.4453-0.69141 0.10938-69.426 10.246-121.17-42.188-5.3516-5.418-11.434-14.5-18.484-25.02-12.027-17.945-26.992-40.281-46.855-56.223-52.438-42.078-121.38-53.418-189.14-31.105-78.551 25.848-140.29 90.879-161.12 169.7-16.109 60.938-23.102 135.12-26.129 186.64-2.3867 40.609-2.7617 73.93-2.7852 89.152-12.062 2.9375-24.621 3.2031-36.797 0.77734-0.03125-15.453-0.42578-48.816-2.8125-89.359-3.0469-51.773-10.047-126.28-26.152-187.21-20.84-78.824-82.574-143.86-161.12-169.71-67.762-22.309-136.7-10.977-189.14 31.105-19.859 15.938-34.824 38.277-46.852 56.223-7.0469 10.52-13.125 19.602-18.484 25.02-51.461 52.145-120.51 42.297-121.17 42.188-4.6836-0.75-9.3594 1.3984-11.84 5.4414-2.4844 4.043-2.2812 9.1836 0.50391 13.02 2.5 3.4453 63.32 83.27 255.97-16.332zm-51.383 425.75c0.67188-7.7188 13.594-17.66 24.141-23.422 4.0859 1.4922 8.125 2.9766 12.066 4.4336 22.297 8.2227 43.359 15.988 60.531 19.773 3.9648 0.875 7.7344 1.6562 11.418 2.3945-41.195 11.805-84.574 19.219-98.672 9.375-4.5469-3.1797-9.8867-7.9336-9.4844-12.555zm92.746 40c-21.062 6.7227-58.254 8.5703-94.746 4.7031-41.145-4.3555-74.766-15.172-92.258-29.676-10.211-8.4688-14.531-17.734-13.234-28.324 1.7188-13.914 6.5859-23.137 14.891-28.191 6.2852-3.832 14.488-5.4453 23.973-5.4453 18.449 0 41.742 6.1094 65.156 13.84-9.5352 7.707-18.75 18.309-19.883 31.016-0.76953 8.7148 1.9727 21.664 19.414 33.844 8.8516 6.1836 21.797 8.6055 36.668 8.6055 31.914 0 72.656-11.164 100.68-20.316v0.003906c-12.703 8.2578-26.355 14.957-40.664 19.945zm83.723-145.14c-17.52 19.133-21.023 50.305-10.547 92.727v0.003906c-21.598-1.5508-43.035-4.793-64.125-9.6914-15.613-3.4414-35.941-10.938-57.465-18.875-8.2578-3.0469-16.684-6.1523-25.164-9.1523 58.242-46.715 122.72-59.184 164.75-61.707-2.6836 1.9961-5.1758 4.2383-7.4453 6.6992zm6.6523 153.06c9.0078-5.7656 16.691-7.9102 22.664-6.2148 13.941 3.957 22.098 28.617 26.938 46.145-17.879 1.0742-31.066-2.3906-39.277-10.367-9.7227-9.4453-10.488-23.598-10.324-29.559zm107.11 275.53c-1.1406 4.0352-2.1289 8.0938-3.0039 12.172-18.125-22.555-16.969-46.477-16.215-61.906 0.32422-6.6172 0.55859-11.398-0.80859-15.605-1.9961-6.1445-9.582-18.602-23.934-41.926-13.637-22.152-30.605-49.723-36.328-63.578-5.7539-13.926-3.625-31.641-1.293-42.762v0.003907c10.266 1.7852 20.73 2.0977 31.082 0.9375 3.1094 5.3945 9.8984 7.4102 15.449 4.582 5.5508-2.8242 7.918-9.5 5.3828-15.188-0.75781-1.7188-2.0352-6.5391-3.2656-11.195-6.0938-23.051-16.293-61.641-45.102-69.812-9.8906-2.8125-20.352-1.6602-31.559 3.4492v-0.003906c1.4766-5.5586 4.4883-10.594 8.6953-14.52 1.2109-1.0234 12.953-10.531 26.875-7.5 14.402 3.1484 28.039 18.984 39.441 45.789v0.003907c7.793 18.562 12.781 38.184 14.797 58.215 3.4375 32.605 9.0273 91.523 7.8633 119.77-0.56641 13.777 5.2227 21.695 10.18 25.91 5.4648 4.3867 12.109 7.0508 19.09 7.668-4.3281 19.875-9.4727 37.91-14.43 55.246-0.98828 3.4492-1.9648 6.8711-2.9258 10.258zm181.93 83.578c-8.6953 42.559-31.309 67.379-69.141 75.891v0.003907c-9.8945 2.2812-20.203 2.0703-30-0.60547-32.27-9.0586-53.164-32.5-62.211-69.699 13.418 15.371 30.84 26.715 50.328 32.77 8.5586 2.6992 17.484 4.0742 26.461 4.0742 8.8359-0.007812 17.625-1.3242 26.074-3.9023 22.859-6.9922 43.191-20.473 58.531-38.801zm113.82-333.91c-8.7695 8.4375-21.906 12.934-39.141 13.438 5.1797-24.355 13.125-38.762 23.727-42.852 7.9531-3.0742 17.812 0.050781 27.297 5.418l0.003906 0.003906c-1.2305 9.0859-5.4102 17.516-11.895 23.996zm-23.867-51.281c-32.324 12.488-38.984 60.672-41.484 78.809-0.13672 0.98047-0.25391 1.832-0.35547 2.5273-0.46094 3.0742 0.32031 6.207 2.168 8.7031 1.8516 2.5 4.6172 4.1602 7.6914 4.6211 0.57812 0.085938 1.1602 0.12891 1.7422 0.12891 4.4727-0.019531 8.543-2.582 10.488-6.6094 9.3945 0.16406 18.77-0.84766 27.91-3.0195 3.6836 12.828 7.0547 32.148 1.4961 45.602-5.7227 13.855-22.691 41.426-36.328 63.578-14.352 23.324-21.938 35.781-23.934 41.926-1.3672 4.2188-1.1328 8.9961-0.80469 15.617 0.75781 15.426 1.9258 39.344-16.211 61.898-0.86328-4.0234-1.8516-8.0273-2.9688-12.008-1.1094-3.9062-2.25-7.9023-3.4219-11.988-4.8125-16.812-9.957-34.773-14.656-54.305h0.003906c7.1836-0.41406 14.07-3.0039 19.754-7.418 4.957-4.1289 10.75-11.902 10.191-25.531-1.1719-28.246 4.4258-87.164 7.8633-119.77h0.003906c2.0781-20.043 7.0703-39.676 14.82-58.281 11.336-27.109 24.922-43.094 39.285-46.219 13.754-2.9922 25.387 6.5469 26.645 7.625l0.18359 0.18359c4.8945 4.4336 8.1719 10.371 9.3164 16.875-14.492-6.4531-27.68-7.4688-39.398-2.9492zm312.19-63.332c8.3047 5.0586 13.172 14.281 14.891 28.191 1.3086 10.59-3.0195 19.855-13.23 28.324-17.488 14.504-51.117 25.312-92.262 29.676-36.496 3.8633-73.684 2.0195-94.746-4.7031-14.297-4.9805-27.938-11.672-40.629-19.922 28.031 9.1406 68.738 20.301 100.64 20.301 14.867 0 27.816-2.4219 36.668-8.6055 17.441-12.188 20.184-25.129 19.414-33.844-1.1289-12.707-10.352-23.312-19.883-31.02 35.457-11.699 70.613-19.676 89.137-8.3906zm-92.602 41.484c0.40625 4.625-4.9336 9.375-9.4844 12.566-14.109 9.8438-57.488 2.4297-98.672-9.375 3.6836-0.73828 7.457-1.5195 11.422-2.3945 17.176-3.7852 38.234-11.551 60.531-19.773 3.9492-1.457 7.9883-2.9453 12.074-4.4375 10.781 5.8867 23.465 15.945 24.125 23.414zm-17.992-50.531c-8.875 3.125-17.699 6.3789-26.336 9.5664-21.523 7.9375-41.852 15.438-57.465 18.875-21.09 4.9023-42.531 8.1523-64.125 9.7188 10.473-42.422 6.9688-73.609-10.547-92.746-2.332-2.5273-4.8984-4.8242-7.668-6.8633 42.336 2.3438 107.56 14.551 166.14 61.449zm-175.68-38.672c11.652 12.82 13.402 37.031 5.2188 70.5-6.1055-2.7578-12.625-4.4805-19.297-5.0977-19.539-1.2422-47.441 8.3711-69.488 61.102-8.6289 20.707-14.191 42.559-16.508 64.871-3.5 33.242-9.1953 93.449-7.9688 123.19 0.20313 4.9023-1.2656 6.1328-1.75 6.5391-1.9648 1.6406-5.9727 2.2578-9.9375 2.2422-11.25-54.547-14.305-110.46-9.0625-165.91 0.57422-6.4453-4.1836-12.141-10.629-12.719-6.4453-0.57812-12.141 4.1797-12.719 10.629-5.582 60.402-1.8164 121.3 11.172 180.56 0.035157 0.23438 0.09375 0.44141 0.14453 0.66406 5.75 26.598 12.449 50.027 18.383 70.738 1.1641 4.0625 2.2969 8.0352 3.3984 11.914l-0.003906 0.003906c2.6172 9.25 4.4336 18.711 5.4336 28.277-3.8242 9.793-22.387 51.145-67.543 64.855h0.003907c-12.609 3.8828-26.098 3.8477-38.688-0.10156-44.676-14.062-58.457-55.379-60.938-64.219 0.99609-9.8047 2.8438-19.504 5.5273-28.984 0.95312-3.3711 1.918-6.7656 2.9023-10.191 17.406-60.898 37.137-129.92 18.258-254.42-0.96875-6.3984-6.9453-10.797-13.344-9.8281-6.3984 0.97266-10.801 6.9453-9.8281 13.344 10.75 70.891 8.4375 123.1 1.2734 166.09-2.9727 0.058594-5.8945-0.77734-8.3867-2.3945-0.53125-0.45703-2.1406-1.8438-1.9258-7.082 1.2188-29.738-4.4727-89.945-7.9688-123.19-2.2617-22.344-7.832-44.223-16.535-64.922-14.711-34.586-33.555-54.609-56.016-59.516-11.023-2.2852-22.488-0.97266-32.707 3.75-8.2305-33.555-6.5-57.828 5.1758-70.672 12.477-13.719 34.332-12.129 41.406-11.191 15.078 11.188 96.328 69.707 145.89 69.934h19.758c49.566-0.23438 130.8-58.746 145.89-69.934 7.125-0.96875 28.945-2.543 41.406 11.168zm-127.18-317.48c18.832-71.25 74.691-130.04 145.78-153.44 60.086-19.781 121.01-9.8945 167.15 27.125 17.062 13.695 30.336 33.516 42.051 50.988 7.707 11.504 14.367 21.441 21.273 28.438h-0.003906c26.781 27.023 61.938 44.16 99.719 48.613-5.0859 1.6172-10.281 2.8633-15.547 3.7383-31.789 5.3672-88.801 1.875-179.95-45.191h0.003907c-14.812-8.1094-30.777-13.902-47.344-17.184-27.781-5.4219-53.102-2.1875-74.461 9.3203-5.6055-7.3125-8.3203-22.215-8.375-32.02h-0.003906c-0.019531-6.457-5.2617-11.68-11.719-11.68h-0.023437c-3.1055 0.007813-6.0859 1.2461-8.2773 3.4492-2.1953 2.2031-3.4219 5.1875-3.418 8.293 0 3.5469 0.5 28.859 12.656 45.469-0.1875 0.16797-0.38281 0.32031-0.57031 0.48828h0.003907c-5.1562 4.7539-9.7891 10.039-13.828 15.77-7.0117-5.168-13.031-11.559-17.777-18.859-3.4297-5.4336-10.598-7.0938-16.066-3.7148-5.4688 3.375-7.1992 10.527-3.875 16.031 6.7109 10.543 15.461 19.641 25.742 26.746-4.8164 9.8516-8.918 20.031-12.277 30.469-7.2109-1.4922-13.691-5.4062-18.363-11.098-3.6094-5.3711-10.891-6.8008-16.262-3.1914-5.3711 3.6133-6.8008 10.895-3.1914 16.266 7.7539 10.277 18.832 17.539 31.344 20.555-3.0469 12.098-5.5938 24.695-7.7188 37.516-3.4922-1.3945-6.8359-3.1289-9.9844-5.1836-5.3359-3.543-12.531-2.1406-16.145 3.1484-3.6133 5.2891-2.3047 12.5 2.9375 16.184 6.1328 4.043 12.777 7.2578 19.754 9.5625-1.6406 12.965-2.8984 25.965-3.8555 38.715-7.5898 0.035156-15.047-1.957-21.609-5.7656-2.6094-1.7188-5.7969-2.3242-8.8516-1.6758s-5.7227 2.4961-7.4023 5.125c-1.6836 2.6328-2.2422 5.8281-1.5508 8.8711 0.69141 3.0469 2.5742 5.6875 5.2266 7.332 9.8828 5.9883 21.176 9.2539 32.727 9.4648-1.3008 26.035-1.4688 50.133-1.2109 69.59h0.003906c-8.5352-5.9492-18.555-9.4062-28.945-9.9844-17.211-1.4219-34.469 2.0898-49.758 10.121l-26.098 12.25c0.45313-45.562 3.9688-169.44 28.082-260.66zm-25.887 285.51 34.066-15.988c0.14062-0.0625 0.28125-0.13281 0.41797-0.20703l-0.003906 0.003906c11.375-6.0508 24.242-8.7188 37.082-7.6953 9.7305 0.875 16.57 3.75 20.328 8.5508 3.2969 4.2031 4.6133 10.477 3.9844 18.637-27.469 20.242-94.055 63.801-130.21 63.969-6.5117 0.03125-13.023 0.03125-19.539 0-36.16-0.16797-102.75-43.727-130.21-63.969-0.63672-8.1602 0.68359-14.434 3.9844-18.637 3.75-4.8008 10.602-7.6797 20.328-8.5508 12.824-1.0273 25.672 1.6367 37.031 7.6719l26.867 14.09h0.003906c29.891 15.574 65.324 16.359 95.879 2.125zm-490.36-332.41c6.9062-6.9961 13.562-16.934 21.273-28.438 11.719-17.48 24.988-37.293 42.051-50.984 46.137-37.031 107.07-46.906 167.15-27.125 71.09 23.406 126.95 82.199 145.78 153.44 24.191 91.508 27.684 216.63 28.125 262.12l-25.934-13.594-0.003906-0.003906c-15.336-8.1133-32.676-11.668-49.969-10.234-10.395 0.57812-20.422 4.0352-28.961 9.9961 0.26172-19.453 0.097656-43.547-1.2031-69.582 11.562-0.20703 22.863-3.4766 32.75-9.4727 2.6484-1.6523 4.5273-4.293 5.2148-7.3359 0.6875-3.0469 0.12891-6.2383-1.5547-8.8672-1.6836-2.6289-4.3516-4.4727-7.4023-5.1211-3.0547-0.64844-6.2383-0.046876-8.8438 1.6719-6.5664 3.8125-14.027 5.8047-21.621 5.7695-0.95312-12.672-2.1992-25.582-3.8164-38.465 7.0469-2.3398 13.742-5.6289 19.898-9.7812 5.3086-3.6914 6.6172-10.988 2.9219-16.297-3.6953-5.3086-10.992-6.6133-16.297-2.9219-3.1328 2.0898-6.4688 3.8516-9.9609 5.2617-2.1836-13.223-4.8203-26.207-7.9805-38.656 11.762-3.1641 22.395-9.5664 30.688-18.484 4.2227-4.9062 3.6719-12.305-1.2305-16.527-4.9023-4.2266-12.305-3.6758-16.527 1.2305-5.3086 5.4961-12.055 9.3945-19.469 11.25-3.3008-10.137-7.3047-20.027-11.988-29.602 10.293-7.0859 19.055-16.176 25.758-26.719 3.3906-5.5156 1.6719-12.73-3.8438-16.121-5.5117-3.3945-12.73-1.6719-16.121 3.8398-4.7578 7.2773-10.766 13.652-17.746 18.836-4.043-5.7344-8.6758-11.02-13.828-15.777-0.1875-0.16797-0.38281-0.32031-0.57031-0.48828 12.16-16.617 12.656-41.93 12.656-45.469 0-6.4531-5.2188-11.691-11.676-11.719h-0.042969c-6.4492 0-11.688 5.2148-11.719 11.664-0.054687 9.8047-2.7695 24.711-8.375 32.027-21.359-11.508-46.676-14.746-74.461-9.3242h-0.003906c-16.562 3.2812-32.531 9.0742-47.344 17.184-91.141 47.066-148.16 50.559-179.95 45.191h0.003906c-5.2656-0.875-10.461-2.1211-15.551-3.7344 37.785-4.4609 72.941-21.609 99.719-48.641z"/>
 </g>
</svg>
