<?xml version="1.0" encoding="UTF-8"?>
<svg width="1200pt" height="1200pt" version="1.1" viewBox="0 0 1200 1200" xmlns="http://www.w3.org/2000/svg">
 <g>
  <path d="m334.72 475.73 0.16406-0.19141c6.332 13.664 16.363 25.289 28.957 33.551 1.3438 16.953 5.543 66.082 12.766 117.52-12.516 41.688-19.535 84.836-20.883 128.34-3.1758 96.969 23.539 180.89 77.262 243.05 1.6758 30.391 12.125 59.645 30.086 84.215 2.5586 3.4648 5.2852 6.7539 8.0938 9.957-1.1992 11.992-1.2578 39.191 17.812 63.359 21.145 26.805 58.41 40.98 110.77 42.137h0.48828c51.641-1.0273 88.48-15.066 109.48-41.73 19.453-24.68 19.172-52.754 17.871-65.02l0.003906 0.003907c22.254-25.672 35.902-57.676 39.016-91.512 66.562-58.48 97.734-141.7 90.156-241.05l-0.003906 0.003906c-3.5977-45.43-14.109-90.039-31.172-132.29 6.8203-50.312 8.9062-98.34 9.4727-116.45 1.1523-0.60938 2.3008-1.2422 3.4375-1.9297v-0.003906c12.102-7.3828 21.668-18.277 27.422-31.23 4.4414 4.4609 11.609 4.6211 16.242 0.35938 4.6328-4.2617 5.0703-11.418 0.99609-16.215-4.3633-5.1836-9.0273-10.102-13.977-14.73-0.11719-0.11328-0.23438-0.22266-0.35547-0.33203-1.5547-1.4336-3.1055-2.8008-4.6562-4.0938h-0.003906c-3.3203-2.7695-6.9531-5.1484-10.82-7.0859 9.8164-49.266-20.266-102.76-33.641-123.45 74.312-75.469 62.707-288.2 62.16-297.52l-0.003906 0.003907c-0.22656-3.8867-2.3711-7.4062-5.7227-9.3945-3.3477-1.9844-7.4648-2.1758-10.984-0.51172-47.578 22.5-128.32 115.35-154.02 145.82-16.012-13.363-35.602-21.719-56.328-24.027-34.941-3.8867-70.195-4.043-105.17-0.46875-21.902 2.3008-42.551 11.344-59.094 25.879-26.09-30.777-108.12-124.71-155.7-147.21-3.5195-1.6641-7.6367-1.4727-10.988 0.51172-3.3477 1.9883-5.4922 5.5078-5.7227 9.3945-0.54687 9.3203-12.152 222.04 62.16 297.52-13.379 20.695-43.461 74.188-33.641 123.45l-0.003906-0.003906c-3.8672 1.9375-7.5 4.3164-10.82 7.0859-1.5391 1.2852-3.0781 2.6406-4.6211 4.0664-0.12109 0.10937-0.23438 0.21484-0.35938 0.32812-4.9609 4.6406-9.6367 9.5703-14.008 14.766-2.0508 2.3672-3.0703 5.4531-2.8281 8.5781 0.24219 3.1211 1.7227 6.0156 4.1094 8.0391 2.3906 2.0234 5.4883 3.0078 8.6094 2.7305 3.1172-0.27344 5.9961-1.7891 7.9922-4.1992zm356.4 665.91c-16.473 20.699-47.125 31.656-91.113 32.578-44.715-1.0273-75.816-12.117-92.441-32.969-6.1641-7.8203-10.324-17.031-12.113-26.832 25.332 18.539 56.887 29.645 93.281 32.512 3.5703 0.28125 7.1523 0.42187 10.75 0.42187 4.0352 0 8.0703-0.17969 12.074-0.53125 35.922-3.1875 66.73-14.434 91.984-33.484h-0.003906c-1.6875 10.328-5.9609 20.066-12.418 28.305zm17.621-64.766c-24.488 27.242-57.891 42.918-99.254 46.586h0.003906c-6.293 0.55859-12.617 0.58984-18.91 0.09375-47.812-3.7656-84.355-22.367-108.66-55.281-16.473-22.645-25.496-49.855-25.816-77.855-1.7695-82.953 22.113-124.8 42.465-145.31 1.1016-1.1719 2.6367-1.8359 4.2422-1.8398 0.58594 0 1.168 0.078125 1.7344 0.23438 2.4141 0.67188 4.2539 2.6367 4.7656 5.0898 0.98438 4.1328 2.332 8.1719 4.0195 12.07 13.027 30.234 76.586 33.434 89.195 33.766h0.64844c11.656-0.33594 70.457-3.5508 83.477-33.766 1.6875-3.8984 3.0352-7.9375 4.0195-12.07 0.51172-2.4531 2.3516-4.418 4.7656-5.0898 2.1367-0.64453 4.4492-0.023438 5.9766 1.5977 19.609 19.758 42.906 59.816 42.555 138.47h-0.003906c0.11328 34.375-12.422 67.59-35.223 93.316zm117.76-589.36c-12.625 7.6836-27.57 8.1758-37.352 7.3789 2.0078-8.8477 6.0938-21.562 14.172-31.625 5.25-6.5469 12.934-10.676 21.289-11.449 8.2773-0.80078 16.555 1.5273 23.203 6.5273-4.2422 13.344-11.391 23.137-21.312 29.176zm-21.07-195.59c-13.379-21.195-35.578-84.957 53.492-213.45-1.8594 66.84-11.898 168.32-53.492 213.46zm-328.44-64.348c1.0508-19.996 9.1758-38.965 22.922-53.523 13.746-14.559 32.219-23.758 52.121-25.957 33.316-3.4023 66.902-3.2422 100.18 0.46875 20.078 2.2969 38.648 11.766 52.301 26.668 13.652 14.898 21.461 34.227 21.996 54.426 0.78125 32.254-5.9297 59.211-19.973 80.391-9.5391-16.656-20.125-32.695-31.688-48.02-1.8359-2.5352-4.6094-4.2344-7.7031-4.7109-3.0938-0.48047-6.25 0.30078-8.7656 2.1641s-4.1797 4.6562-4.625 7.7539c-0.44531 3.1016 0.37109 6.25 2.2617 8.7422 1.3047 1.7617 2.5195 3.4375 3.75 5.125-3.082 16.938-7.7109 33.562-13.828 49.656-8.8438 22.883-24.258 51.684-48.453 63.543-14.426-10.77-56.816-47.398-62.5-109.03 1.2266-1.9336 2.5195-3.9023 3.8984-5.9102v-0.003906c1.7734-2.5625 2.4531-5.7227 1.8906-8.7891-0.5625-3.0664-2.3242-5.7812-4.8945-7.543-2.5703-1.7617-5.7383-2.4297-8.8008-1.8516-3.0625 0.57422-5.7695 2.3477-7.5234 4.9258-9.1953 13.18-16.699 27.461-22.336 42.508-15.07-20.051-21.867-47.203-20.234-81.031zm-136.22-163.47c34.848 50.738 68.125 115.31 66.254 175.03-0.79297 25.367-7.6641 42.422-13.102 52.105-44.102-48.883-52.312-161.71-53.152-227.13zm63.984 252.44c8.3164-9.207 75.977-93.367-47.316-269.58 22.539 19.195 43.898 39.738 63.961 61.512 23.344 24.789 43.496 48.207 53.117 59.582v-0.003906c-12.602 16.969-19.891 37.293-20.945 58.402-2.3945 49.578 12.113 89.082 41.953 114.24 3.3125 2.7617 7.8711 3.4883 11.875 1.8945 4.0078-1.5977 6.8203-5.2578 7.3242-9.543 0.71484-4.3125 1.7969-8.5547 3.2344-12.68 18.918 63.594 69.445 95.645 71.953 97.203 3.0547 1.8945 6.8086 2.2812 10.188 1.0508 46.66-16.996 68.57-75.383 77.793-110.84 5.8945 8.9141 11.043 18.301 15.391 28.066 1.4219 3.793 4.6992 6.5859 8.668 7.3789 3.9727 0.79688 8.0742-0.51172 10.848-3.4648 25.754-27.41 38.246-64.645 37.133-110.67v0.003906c-0.5625-22.812-8.4258-44.84-22.434-62.855 9.5625-11.352 29.148-34.195 51.898-58.434 32.312-34.426 59.438-59.422 79.715-73.551 0.027344 1.2812 0.050781 2.6328 0.070312 4.0195-143.52 188.93-74.379 268.22-63.723 278.6 8.9648 12.898 16.645 26.637 22.934 41.031 8.3164 19.113 16.566 45.883 12.227 70.406-2.7812-0.14453-5.5664-0.078125-8.332 0.19922-14.637 1.3711-28.09 8.6328-37.266 20.113-18.379 22.941-20.949 53.832-21.051 55.137h-0.003907c-0.43359 5.6367 3.2188 10.781 8.6836 12.23 7.5898 1.793 15.367 2.6758 23.164 2.625 5.1797 0.011718 10.355-0.39844 15.469-1.2188-1.8945 45.324-10.035 176.69-41.633 223.54-1.7656 2.5742-2.4297 5.75-1.8438 8.8164 0.58594 3.0703 2.3711 5.7773 4.957 7.5234 2.5898 1.7461 5.7695 2.3867 8.832 1.7812 3.0625-0.60938 5.7578-2.4141 7.4844-5.0156 12.555-18.613 21.711-47.844 28.391-79.906 8.2266 28.047 13.559 56.859 15.914 85.992 6.4453 84.566-15.855 153.85-66.285 206.41-2.6914-68.125-23.152-108.13-42.672-130.99 50.129-83.008 65.938-241.34 66.605-248.25v-0.003906c0.55078-6.4023-4.1523-12.055-10.547-12.676-6.3984-0.61719-12.098 4.0273-12.781 10.418-0.16016 1.625-15.68 157-61.977 236.07-5.4219-1.6602-11.207-1.7109-16.656-0.14844-5.1992 1.4844-9.9102 4.332-13.637 8.2461-3.7305 3.9141-6.3438 8.7539-7.5742 14.02-0.67188 2.8008-1.5859 5.5352-2.7344 8.1758-3.1133 7.2227-25.055 18.418-62.312 19.602-39.309-1.0977-64.715-12.074-67.969-19.605h0.003906c-1.1484-2.6367-2.0625-5.3711-2.7344-8.168-1.2305-5.2656-3.8438-10.105-7.5742-14.023-3.7305-3.9141-8.4375-6.7578-13.637-8.2422-5.4492-1.5625-11.234-1.5078-16.656 0.14844-46.297-79.078-61.82-234.45-61.977-236.08v0.003906c-0.26953-3.1172-1.7734-6-4.1797-8s-5.5117-2.957-8.625-2.6562c-3.1133 0.30078-5.9766 1.8359-7.9531 4.2617-1.9766 2.4258-2.9023 5.5391-2.5703 8.6484 0.66797 6.9102 16.473 165.23 66.605 248.25-19.012 22.266-38.703 60.496-42.367 124.65-38.406-54.844-56.594-123.23-54.07-203.81h0.003906c0.78125-23.527 3.25-46.965 7.3828-70.141 6.2188 30.484 14.223 52.699 24.402 67.793 1.7266 2.6016 4.4219 4.4062 7.4844 5.0156 3.0664 0.60547 6.2422-0.035156 8.832-1.7812 2.5898-1.7461 4.375-4.4531 4.9609-7.5234 0.58203-3.0664-0.082031-6.2422-1.8477-8.8164-8.9062-13.219-16.328-35.172-22.031-65.25-10.824-57.141-17.465-125.59-20.156-157.09 4.6406 0.86328 9.3477 1.2969 14.062 1.2969 8.9336 0.046874 17.812-1.3945 26.273-4.2734 4.8594-1.8438 7.9258-6.6719 7.5273-11.855-0.10156-1.3047-2.6758-32.195-21.051-55.137-9.1797-11.484-22.633-18.746-37.266-20.117-2.7773-0.27734-5.5703-0.34375-8.3555-0.19922-8.6953-48.539 31.512-106.29 35.422-111.77zm-29.391 135.29v-0.003907c8.3555 0.77344 16.035 4.9062 21.285 11.449 8.3516 10.426 12.441 23.672 14.371 32.531-10.234 1.6875-20.742 0.30078-30.191-3.9844-12.098-5.832-21.535-17.207-28.125-33.859 6.5586-4.7305 14.617-6.9102 22.668-6.1367z"/>
  <path d="m548.97 786.65c4.6914-0.007813 8.9297-2.8125 10.766-7.1328 1.8398-4.3203 0.92188-9.3164-2.3281-12.703-25.379-26.441-29.43-89.004-29.465-89.645-0.38672-6.4609-5.9336-11.387-12.395-11.004-6.4609 0.38281-11.387 5.9336-11.004 12.395 0.17188 2.9141 4.5781 71.805 35.973 104.49 2.207 2.3047 5.2617 3.6055 8.4531 3.6016z"/>
  <path d="m655.18 786.65c3.1914 0.003906 6.2461-1.2969 8.457-3.6016 31.391-32.688 35.797-101.57 35.969-104.49 0.32422-6.4219-4.5898-11.906-11.008-12.289-6.4219-0.37891-11.949 4.4844-12.387 10.898-0.039063 0.62891-4.082 63.203-29.477 89.645h-0.003906c-3.25 3.3867-4.168 8.3828-2.3281 12.703 1.8359 4.3203 6.0742 7.125 10.766 7.1328z"/>
  <path d="m535.92 934.49 2.1094-6.5898c2.5391-8.0234 1.3828-16.762-3.1523-23.848-5.3047-8.0977-13.926-13.426-23.543-14.543-15.199-2.0039-27.656 6.5195-32.512 22.242-1.4453 4.6953-1.6172 9.6914-0.49609 14.477l5.582 23.906h-0.003906c0.14453 0.61719 0.14844 1.2578 0.019531 1.875-0.37109 1.832-1.0352 4.5508-1.8008 7.6953-5.7031 23.363-17.578 71.984 4.0352 98.055 9.0039 10.863 22.18 16.352 39.215 16.352 1.4492 0 2.9258-0.039062 4.4297-0.11719 19.863-1.0508 29.164-11.016 33.469-19.199 19.004-36.094-24.285-107.65-26.137-110.68-1.8203-2.8633-2.2656-6.3945-1.2148-9.625zm6.6016 109.4c-0.88281 1.6797-3.2305 6.1406-13.965 6.707-11.535 0.61328-19.516-1.9375-24.359-7.7852-14.09-16.996-3.7344-59.422 0.6875-77.539 0.82422-3.3828 1.5391-6.3086 2-8.5898h-0.003907c0.80469-3.918 0.75-7.9648-0.16016-11.859l-5.582-23.922h-0.003906c-0.17969-0.73438-0.15625-1.5039 0.070312-2.2305 1.5977-5.1719 3.6484-6.0586 5.5391-6.0586 0.50391 0.011718 1.0039 0.054687 1.5039 0.13281 2.7344 0.22266 5.2305 1.6367 6.832 3.8633 0.83594 1.2266 1.0625 2.7695 0.60547 4.1797l-2.1094 6.5898c-3.1445 9.7109-1.8477 20.312 3.543 28.977 15.5 25.328 34.281 70.672 25.402 87.547z"/>
  <path d="m681.6 889.51c-9.6133 1.1172-18.238 6.4453-23.543 14.543-4.5391 7.0859-5.6953 15.824-3.1523 23.848l2.1094 6.5898c1.0586 3.2305 0.61719 6.7695-1.207 9.6367-1.8516 3.0273-45.137 74.578-26.133 110.68 4.3047 8.1758 13.594 18.145 33.465 19.199 1.5039 0.078126 2.9805 0.11719 4.4336 0.11719 17.031 0 30.207-5.4883 39.215-16.352 21.605-26.07 9.7422-74.691 4.0352-98.055-0.76562-3.1445-1.4297-5.8594-1.8008-7.6914-0.12891-0.61719-0.125-1.2578 0.015624-1.875l5.582-23.922c1.1211-4.7812 0.94922-9.7734-0.49609-14.469-4.8711-15.734-17.328-24.254-32.523-22.25zm10.117 29.164c0.22656 0.72266 0.25 1.4922 0.066406 2.2266l-5.582 23.926c-0.91016 3.8984-0.96484 7.9453-0.16016 11.863 0.46875 2.2773 1.1719 5.1992 2.0039 8.582 4.4219 18.117 14.777 60.543 0.6875 77.539-4.8477 5.8594-12.809 8.3984-24.363 7.7852-10.73-0.56641-13.082-5.0312-13.965-6.707-8.8789-16.875 9.9023-62.207 25.391-87.535l-0.003906 0.003906c5.3906-8.6641 6.6875-19.266 3.5469-28.977l-2.0977-6.5898c-0.45703-1.4102-0.23047-2.9531 0.60547-4.1797 1.5977-2.2266 4.0977-3.6406 6.8281-3.8633 0.5-0.078125 1.0039-0.12109 1.5078-0.13281 1.8867 0 3.9375 0.89062 5.5352 6.0586z"/>
 </g>
</svg>
