<?xml version="1.0" encoding="UTF-8" standalone="no"?>
<svg
   width="1200pt"
   height="1200pt"
   version="1.1"
   viewBox="0 0 1200 1200"
   id="svg78"
   sodipodi:docname="especes.svg"
   inkscape:version="1.2.2 (b0a8486541, 2022-12-01)"
   xmlns:inkscape="http://www.inkscape.org/namespaces/inkscape"
   xmlns:sodipodi="http://sodipodi.sourceforge.net/DTD/sodipodi-0.dtd"
   xmlns="http://www.w3.org/2000/svg"
   xmlns:svg="http://www.w3.org/2000/svg">
  <defs
     id="defs82" />
  <sodipodi:namedview
     id="namedview80"
     pagecolor="#ffffff"
     bordercolor="#666666"
     borderopacity="1.0"
     inkscape:showpageshadow="2"
     inkscape:pageopacity="0.0"
     inkscape:pagecheckerboard="0"
     inkscape:deskcolor="#d1d1d1"
     inkscape:document-units="pt"
     showgrid="false"
     inkscape:zoom="0.53125"
     inkscape:cx="751.05882"
     inkscape:cy="800"
     inkscape:window-width="1674"
     inkscape:window-height="773"
     inkscape:window-x="1970"
     inkscape:window-y="89"
     inkscape:window-maximized="0"
     inkscape:current-layer="svg78" />
  <g
     fill-rule="evenodd"
     id="g76"
     style="fill:#e6e6e6">
    <path
       d="m216.77 782.16c-14.648 4.8555-45.984 23.629-44.172 38.699 4.2773 35.539-84.141 83.023-84.141 83.062 12.027 19.926 45.945 9.6758 56.234 7.6328 18.695-3.6992 26.289-20.738 42.516-21.934 41.473-3.1211 31.953-27.48 29.293-46.484-1.0781-7.6719 24.668-69.07 0.26953-60.977z"
       id="path2"
       style="fill:#e6e6e6" />
    <path
       d="m26.828 720.57c-10.098 14.414-25.133 52.266-26.672 70.266-3.1211 36.5 43.094 79.98 67.801 102.26 16.496 14.879 55.543-15.227 68.184-28.215 26.324-27.098 23.164-40.973 22.781-40.625-16.113 13.992-34.766 29.449-54.578 29.832-19.656 0.34766-47.41 1.9648-61.824-25.055-13.953-26.133-2.6602-55.621-0.92578-71.383 0.46094-4.2773-2.1953-20.121-5.3945-23.395-2.3906-2.4688-9.6367 22.316-11.062 31.184-2.5039 15.766-1.543 44.172-2.6211 41.203-15.57-41.938 14.723-101.02 4.2773-86.031z"
       id="path4"
       style="fill:#e6e6e6" />
    <path
       d="m65.023 832.81c-8.9023-20.969 5.0117-17.422 21.934-37.273 16.922-19.852-24.207-44.25-30.949 1.0039-0.92578 5.9727-2.3516 24.785 0.15234 30.41 2.1953 4.9727 9.9062 8.4805 8.8633 5.8594z"
       id="path6"
       style="fill:#e6e6e6" />
    <path
       d="m88.035 842.75c-14.105-2.0039-15.227-10.602-14.262-11.988 9.8672-14.262 39.895-18 35.113-40.664-8.5938-40.742-31.605-19.812-47.68-24.551-21.047-6.207-18.695-45.137-23.473-52.766-14.609-23.051 31.801-72.539 48.605-92.352 79.75-94.008 75.16-134.67 129.09-216.12 14.684-22.164 64.293-87.805 87.805-97.555 23.012-9.5977-54.426 111.16-69.34 132.9-8.7109 12.641-15.688 25.133-23.781 38.852-30.219 51.301-68.957 89-100.45 136.25-12.914 19.426 74.508-75.508 107.46-131.36 2.4688-4.2031 25.824-47.988 31.992-44.055 12.875 8.1719-97.555 149.9-112.01 169.94-24.785 34.344 60.207-68.918 62.633-72.078 17.578-22.742 54.695-65.949 62.941-92.816 1.3867-4.5078 12.41-57.008 17.652-53.035 5.9375 4.4727-10.254 93.895-28.215 110.82-46.445 43.863-90.887 84.066-109.27 120.84-6.0117 11.988 96.438-128.16 144.93-120.72 32.57 5.0117 59.59 4.3555 82.754-20.891 20.582-22.434 34.227-49.605 45.867-77.434 7.707-18.426 15.34-36.539 13.105-56.969-2.6211-23.281-13.414-40.547-19.039-61.594-4.7422-17.5 50.031 56.16 24.551 112.62-14.379 31.801-45.445 98.789-78.938 112.01-29.988 11.793-58.277 12.18-86.109 28.793-34.188 20.43-96.516 67.801-115.21 103.03-4.9727 9.3672-14.07 31.762-21.969 38.777-20.195 17.848-42.477 14.34-40.781 19.695 5.2812 16.613 60.785-13.336 82.715 2.082 21.238 14.957 16.766-17.152 36.887 10.832 13.992 19.465 48.953 29.41 46.176 60.207-1.0391 11.484-11.562 32.992-11.562 35.691 0 12.719 21.625-34.961 23.164-38.738 15.727-38.391-21.316-45.289-26.672-54.539-4.5078-7.7461 43.207-16.344 48.449 10.984 3.4688 18-7.6328 39.895-12.18 57.316-6.0508 23.051-6.9375 46.445-39.934 40.703-8.1328-1.3867-2.6992-27.867-5.7812-39.316-4.5859-16.996-13.914-17.73-23.938-27.75-9.5977-9.5977-43.094-31.453-55.93-19.543-15.457 14.492 23.203 24.246 29.91 26.828 25.672 10.059-14.918 40.82-23.32 33.688-8.8633-7.5156 1.9258-17.23 10.484-20.121 10.059-3.3164-12.219-8.0547-15.379-7.2852-8.9805 2.082-6.2461 31.297-7.9414 40.395-6.6289 35.77-43.168 33.266-59.09 30.988z"
       id="path8"
       style="fill:#e6e6e6" />
    <path
       d="m379.35 457c-5.2422 2.0039-17.344 14.84-24.859 19.195-4.2031 2.4297-9.2109 4.5859-13.645 5.6289-11.793 2.8125-10.984-1.5039-19.465-5.3203-4.0859-1.8516-19.926-3.7383-19.965-4.2773-0.84766-15.57 17.77-5.9375 24.359-0.92578 12.988 9.8672 41.051-10.637 49.836-21.199 9.7891-11.832-28.676-21.738-46.098-21.121-18.039 0.65625-64.215 36.617-50.992 49.836 2.3906 2.3906 31.914 13.027 37.734 14.301 12.836 2.8516 27.52-0.19141 38.199-7.7852 4.0859-2.8906 34.383-32.105 24.859-28.406z"
       id="path10"
       style="fill:#e6e6e6" />
    <path
       d="m306.66 340.79c-7.2461 27.906-21.277 60.438-12.719 90.465 6.4375 22.781 21.008-72.426 22.164-81.445 3.2773-24.938 3.7383-52.652 0.078125-47.797-1.8867 2.5039-3.1211 14.223-9.5195 38.777z"
       id="path12"
       style="fill:#e6e6e6" />
    <path
       d="m319.3 385.7c1.7734-16.418 7.6719-33.844 8.1719-49.414 1.8516-54.617-15.109-38.543-58.316-26.672-8.3242 2.2734-25.207-3.7773-23.551-9.9844 2.6992-9.9844 49.453-26.289 59.012-27.52 43.516-5.7031 60.246-16.074 55.621 28.059-2.7734 26.363-0.5 43.633-9.5195 70.035-3.4688 10.137-6.1289 37.426-11.562 42.168-8.0938 6.8594-2.082-34.496-1.6172-36.809 2.7734-14.684 10.059-17.922 10.754-34.535 0.19141-4.7031 3.4297-69.574-5.0117-58.664-6.7852 8.8633-3.2773 59.32-7.6328 75.316-3.3516 12.297-10.871 56.93-11.215 57.664-7.6719 16.535-5.125-29.41-5.125-29.641z"
       id="path14"
       style="fill:#e6e6e6" />
    <path
       d="m372.92 337.36c1.3477-6.3984 1.5039-16.922 0.80859-25.555-0.92578-11.641-4.9727-47.023 17.461-39.855 12.371 3.9297 27.211 56.812 28.91 71.152 2.0039 17.5-16.305 83.832-22.664 79.285-4.2031-3.1211 5.4727-43.863 7.0156-50.992 3.6992-17.035 2.543-25.746-2.3516-42.281-1.2734-4.3555-9.4805-33.727-9.9844-33.148-1.2344 1.3477-2.3516 32.301-3.3516 37.812-2.1602 11.949-23.781 73.234-32.492 80.02-19.039 14.762 15.34-70.535 16.652-76.434z"
       id="path16"
       style="fill:#e6e6e6" />
    <path
       d="m380.7 421.43c2.9688-3.7383 13.914-37.078 14.57-41.977 1.1172-8.9023 0.69531-38.004-0.30859-36.348-3.082 4.9336-6.9766 23.473-8.4414 30.18-2.8125 12.68-6.207 16.383-11.062 27.328-4.3945 9.8672-0.69531 28.254 5.2422 20.812z"
       id="path18"
       style="fill:#e6e6e6" />
    <path
       d="m182.39 636.39c24.09-11.023 108.5 33.496 125.77 50.762 14.492 14.57 20.391 31.184 17.344 51.688-6.1289 41.242-51.34 99.367-33.688 34.266 8.6328-31.762 29.832-59.164-12.219-73.621-20.699-7.0547-44.25-3.6992-65.062-9.9062-19.273-5.7422-19.734-9.9844-42.207-10.676-28.059-0.76953-6.9766-34.727 10.059-42.516z"
       id="path20"
       style="fill:#e6e6e6" />
    <path
       d="m173.91 628.33c21.391-25.902 93.738-84.719 129.43-86.223 24.898-1.0039 65.602 18.5 78.09 42.207 9.5195 18.117 15.766 55.965 15.34 75.934-0.73047 30.102-21.469 69.031-37.965 93.816-8.8281 13.258-20.738 24.824-34.961 32.184-4.7422 2.4297-8.5195 3.3516-7.4766-2.6211 1.543-8.6328 17.691-45.598 23.012-54.039 25.555-40.547 61.246-103.14 2.4297-138.57-18.695-11.215-30.449-13.914-50.918-6.9375-16.188 5.5117-26.789 5.4336-42.129 8.8633-34.766 7.7461-49.453 23.512-76.586 40.703-1.6953 1.0781-3.6602 1.1953 1.7344-5.3203z"
       id="path22"
       style="fill:#e6e6e6" />
    <path
       d="m212.65 620.23c-14.723-15.918 103.22-25.402 125-13.645 36.539 19.695 6.1289 99.867 0.76953 98.133-5.7812-1.8125-13.527-43.594-37.117-55.504-23.898-12.062-70.383-9.2891-88.652-28.984z"
       id="path24"
       style="fill:#e6e6e6" />
    <path
       d="m326.93 525.76c27.945-2.9297 51.496-21.121 57.316-28.832 3.9297-5.2031 18.539 28.484 19.543 32.688 8.9414 36.617 12.719 61.324 26.52 97.711 8.0547 21.238 12.488 37.156 11.41 60.051-0.26953 5.5117-4.9336 41.203-0.76953 42.668 12.41 4.4336 8.3633-54.656 15.688-57.469 12.219-4.625 19.195 29.871 20.852 37.043 0.42578 1.6953 8.8633 14.918 7.9414 16.148-9.9062 13.527-78.668 31.105-78.938 28.059-0.039063-0.26953 30.488-74.238 18.77-57.121-11.832 17.23-13.645 37.195-30.949 53.77-10.367 9.9062-25.902 17.848-30.949 18.27-5.3594 0.5 56.699-64.715 41.898-137.8-5.2422-25.941-12.062-49.297-15.688-75.895-4.4727-32.688-33.957-19.965-58.395-24.281-4.9727-0.84766-5.6641-4.8945-4.2773-5.0508z"
       id="path26"
       style="fill:#e6e6e6" />
    <path
       d="m452.43 349.31c8.9023 40.008-33.301 107.77-37.387 119.02-0.80859 2.2344-7.0547-3.8945-10.098-1.8867-7.3633 4.7812 33.148 172.68 43.824 189.37 4.5859 7.168 11.293 5.0508 19.348 14.801 8.0547 9.75 17.5 31.414 24.551 40.547 7.0156 9.1367 11.562 5.8203 12.641-0.15234 1.0781-5.9375-1.3867-14.453-8.9805-31.684-7.6328-17.23-20.43-43.133-31.875-69.34-13.105-30.066-41.281-95.129-36.578-127.27 3.8164-26.211 22.625-49.145 33.227-73.004 13.953-31.527-10.562-68.801-8.7109-60.359z"
       id="path28"
       style="fill:#e6e6e6" />
    <path
       d="m478.07 384.38c-2.1602 3.0469-1.2344 16.148-4.7031 28.984-8.1328 29.562-27.137 42.246-27.406 78.168-0.42578 40.242 73.812 209.64 84.719 181.23 1.9648-5.1641 2.8906-12.797-5.7812-30.336-22.855-46.098-59.781-88.461-56.852-143.73 1.6562-31.801 24.898-74.469 19.348-100.91-2.0039-9.4414-7.207-16.457-9.3281-13.414z"
       id="path30"
       style="fill:#e6e6e6" />
    <path
       d="m434.12 290.61c-9.1719 14.762 56.043 79.477 62.75 100.56 8.75 27.48 0.53906 57.277-6.9766 83.988-12.641 44.789 5.5117 73.352 23.012 114.17 8.6719 20.273 13.566 33.379 17.074 37.812 3.5078 4.4336 5.6289 0.15234 0.46094-20.43-5.2031-20.543-17.691-57.469-21.816-85.184-10.176-68.609 38.391-137.14-22.855-175.88-55.965-35.344-19.234-13.723-3.3516-10.945 16.305 2.8516-48.027-44.559-48.297-44.055z"
       id="path32"
       style="fill:#e6e6e6" />
    <path
       d="m391.53 265.71c-5.9375-1.9258-15.379-4.9336-25.363-6.2461-9.9844-1.2734-20.504-0.84766-31.566 0.69531-11.062 1.5039-22.625 4.125-39.391 10.059-16.766 5.9375-38.738 15.227-48.914 18.656-10.215 3.4297-8.7109 1.0039-4.2031-3.5859 4.5078-4.5859 11.988-11.293 20.582-16.227 8.5938-4.9727 18.348-8.1719 15.496-7.0938-2.8906 1.0781-18.461 6.3984-28.602 9.5195-10.137 3.1211-14.84 4.0078-16.383 1.3477-1.5039-2.6602 0.15234-8.9023-2.043-13.492-2.1953-4.5859-8.3242-7.4766 0.23047-10.215 8.5195-2.7383 31.684-5.3594 38.043-8.3633 6.3203-3.0469-4.2031-6.5508-14.492-10.445-10.293-3.8555-20.352-8.1328-23.898-12.18-3.5859-4.0469-0.69531-7.8633 12.18-7.707 12.875 0.15234 35.73 4.2773 50.07 7.168 14.301 2.8906 20.121 4.5859 21.508 3.8945 1.3477-0.69531-1.6953-3.7383-8.9805-6.4766-7.3242-2.7383-18.926-5.2031-31.875-22.625-12.949-17.461-27.25-49.914-34.496-68.879-7.2461-19.004-7.4375-24.438-3.1992-24.977 4.2031-0.53906 12.719 3.8555 24.168 11.949 11.41 8.0547 25.746 19.812 37.273 30.797 11.523 10.945 20.195 21.199 30.258 30.797 10.059 9.5977 21.469 18.578 30.949 29.18 9.4414 10.562 16.922 22.781 21.277 30.68 4.3164 7.9414 5.5508 11.602 7.5156 14.879 1.9648 3.2773 4.7031 6.168 6.2461 7.2852 1.5039 1.1562 1.8125 0.53906 2.4297 1.6953 0.57813 1.1562 1.5039 4.0469 2.582 6.5508s2.2734 4.625 1.6953 5.3203c-0.61719 0.69531-3.0469-0.078125-8.9805-2.0039z"
       id="path34"
       style="fill:#e6e6e6" />
    <path
       d="m414.47 269.48c-4.7812-2.3516-15.301-13.914-23.395-27.059-6.207-10.059-10.793-20.93-13.258-25.438-6.6289-12.027-33.957-39.547-46.445-54.078-12.641-14.723-33.879-32.801-39.277-40.125-13.336-18.078 68.957 59.09 49.184 37.195-7.4023-8.1328-32.105-34.188-33.227-43.285-1.9258-15.34 53.461 48.297 47.41 39.391-1.0781-1.582-34.805-47.523-20.352-40.164 6.5508 3.2773 23.09 20.273 22.277 18.578-3.5469-7.0156-35.152-47.18-21.508-44.48 22.008 4.3164 32.84 38.543 33.918 34.922 3.2773-11.215-3.6992-35.5-4.5859-47.949-1.3867-18.617 21.355 0.5 21.355 24.398 0 26.941-7.0156 50.957-4.5859 80.25 1.4648 17.461 5.8984 26.324 16.535 39.777 13.145 16.574 11.562 20.812 16.383 40.855 0.92578 3.8164 4.4336 9.5977-0.34766 7.207z"
       id="path36"
       style="fill:#e6e6e6" />
    <path
       d="m434.09 270.83c-2.4688 0.42578-7.4375-1.6562-10.793-6.7852-3.3906-5.125-5.2031-13.336-6.9766-19.617-1.7734-6.2812-3.5078-10.637-6.2812-15.496-2.7734-4.8555-6.6289-10.254-10.137-15.957-3.5078-5.7031-9.1367-14.031-11.141-23.395-4.8164-22.742-0.57812-85.875 10.754-102.99 2.9688-4.4727 14.145-19.543 19.891-19.117 17.113 1.1953 31.566 29.832 34.691 45.48 1.8125 9.1367 2.8906 19.812 4.8555 27.984 1.9648 8.1328 4.8945 13.762 7.168 20.621 2.2734 6.8594 3.9688 14.918 3.5859 34.383-0.38672 19.426-2.8125 50.223-4.5859 68.379-1.7734 18.117-2.8516 23.629-5.8203 25.746-2.9688 2.1602-7.8633 0.92578-13.336-1.8125-5.4727-2.7383-11.562-7.0156-11.41-8.9805 0.15234-2.0039 6.5508-1.6562 7.8633-4.9336 1.3086-3.2773-2.5039-10.137-5.3203-16.148-2.8125-6.0117-4.6641-11.215-3.7383-14.262 0.92578-3.0469 4.5859-4.0078 7.2461-6.2461 2.6602-2.2734 4.3555-5.9727 5.2031-10.523 0.84766-4.5859 0.84766-10.059 0.69531-17.461-0.15234-7.4023-0.46094-16.691-1.3086-23.859-0.84766-7.168-2.1953-12.18-5.0859-17.191-2.8906-5.0508-7.3242-10.059-11.062-14.648-3.7383-4.5859-6.7852-8.6719-8.4414-8.0547-1.6562 0.61719-2.0039 5.9375-1.7344 11.371 0.23047 5.3945 1.0039 10.871 0.30859 13.184-0.69531 2.2734-2.8125 1.3477-4.9727-0.92578-2.1602-2.2734-4.2383-5.9727-4.2383-4.2773 0 1.6562 2.1211 8.6719 4.1641 14.918 2.082 6.2461 4.0469 11.719 6.9375 15.227 2.8906 3.5078 6.707 5.0508 9.5977 8.3633 2.8906 3.3516 4.8555 8.5586 5.6289 13.258 0.76953 4.7031 0.26953 8.9805-1.4258 12.875-1.7734 3.8945-4.8164 7.4023-5.9727 11.293-1.1562 3.8555-0.38672 8.1719 1.2344 12.141 1.582 3.9688 4.0469 7.6328 5.2812 10.906 1.1953 3.2773 1.1953 6.168-1.2734 6.5898z"
       id="path38"
       style="fill:#e6e6e6" />
    <path
       d="m474.02 166.8c13.914 18.191 16.035 37.312 24.859 54.965 6.7461 13.527 25.902 43.711 22.855 56.621-1.5039 6.4766-6.2461 12.41-12.641 16.922-18.77 13.184-53.887 4.4727-51.266 1.0391 5.8984-8.1328 7.1289-4.4336 10.176-18.117 4.625-20.93 5.2031-51.688 6.207-73.543 0.34766-8.0547-1.9648-40.125-0.19141-37.852z"
       id="path40"
       style="fill:#e6e6e6" />
    <path
       d="m526.94 270.37c3.4297-3.0078 6.7852 19.504 7.207 20.469 2.3516 5.4727 4.4727 12.336 4.5469 19.504 0.23047 18.387-9.2891 31.836-25.438 40.086-7.4375 3.8164-19.695-3.9688-20.738-9.5977-1.0039-5.2031 19.273-17.922 21.469-29.332 3.625-19.039-20.773 14.723-21.047 14.723-7.1289-0.5-4.0469-15.188 3.9688-20.699 7.207-4.9727 14.34-7.2852 22.203-15.727 4.5859-4.9336 6.707-20.004 7.7852-19.426z"
       id="path42"
       style="fill:#e6e6e6" />
    <path
       d="m544.09 292.69c-1.7344 3.1211 5.2812 44.789-21.391 61.824-10.754 6.8594 4.4727 56.891-0.30859 90.23-9.9062 68.918 5.2812 109.35 20.738 173.37 0.96484 4.125 0.96484-0.61719 1.4258-7.5156 3.3164-49.914-11.758-89.461-8.9023-143.11 1.543-28.715 2.1953-61.055 9.5977-88.844 4.9336-18.578 10.754-36.965 10.754-56.469 0-6.2461-8.4023-35.848-11.91-29.41z"
       id="path44"
       style="fill:#e6e6e6" />
    <path
       d="m569.34 319.44c-2.1602 5.3203-4.3164 48.488-8.7109 65.102-11.102 41.977-4.4336 54.348-6.2461 91.312-2.043 42.246-1.1562 69.457 2.0039 110.93 2.2344 29.68-9.1367 76.277-23.32 103.18-12.336 23.359-19.617 23.359-33.996 39.316-3.5078 3.8945-1.3086 10.793 3.082 11.41 9.8281 1.4648 29.371-27.25 32.262-31.684 24.477-37.195 36.23-85.184 41.434-128.82 4.1641-34.383 1.8867-72.039 7.168-104.07 5.0117-30.371 24.129-54.539 24.398-84.914 0.078126-6.7461-8.7109-69.996-18.117-62.941-2.543 1.9258 0.34766 54.617 0 62.324-0.23047 5.1641-8.9414 60.555-16.148 53.344-5.2812-5.3203 16.148-53.344 8.2109-97.363-0.61719-3.3164-7.5547-38.16-12.027-27.137z"
       id="path46"
       style="fill:#e6e6e6" />
    <path
       d="m620.56 367c-0.53906 0.88672 2.6211 50.184-10.676 69.957-16.922 25.324-17.461 96.594-19.812 128.47-2.6992 36.191-31.684 142.11-59.203 167.59-2.6602 2.4688-13.219 13.762-25.863 12.875-2.2734-0.15234 4.1641 8.9805 10.793 11.293 6.6289 2.2734 16.383-0.11719 27.059-8.9805 48.758-40.395 89.039-205.4 88.574-264.11-0.23047-31.953 8.4023-63.406 8.4023-84.719 0-10.445-12.68-43.016-19.234-32.34z"
       id="path48"
       style="fill:#e6e6e6" />
    <path
       d="m673.06 408.51c-4.2773-6.707-19.926-21.469-22.973-12.488-2.3125 6.8242-1.9258 98.52-7.3633 127.43-8.2852 43.711-38.391 151.59-56.852 193.11-7.8633 17.77-41.359 85.645-66.141 53.344-1.543-1.9648 0.30859-1.6562 0.15234 0.15234-1.7734 19.195 8.0156 43.168 30.449 39.469 38.121-6.168 68.648-90.117 78.207-122.11 13.723-45.828 60.477-253.81 44.52-278.91z"
       id="path50"
       style="fill:#e6e6e6" />
    <path
       d="m693.49 435.22c-9.3672 27.637-34.188 281.49-100.6 380.12-27.559 40.895-55.117 4.7422-55.621 10.215-1.0391 10.984 11.141 36.078 21.625 42.398 39.895 23.973 116.48-65.68 132.29-93.125 21.816-37.891 37.621-96.824 43.285-140.53 6.0898-46.793 18-75.277 26.211-117.37 3.7383-19.117 2.6992-56.312-23.012-59.59-7.0547-0.92578-8.9023 38.43-10.367 46.176-10.137 54.387-23.012 100.75-34.766 153.18-8.3242 37.426-7.9805 67.723-27.445 102.91-1.1562 2.082-30.719 47.293-30.18 26.055 0.26953-12.336 31.297-82.062 37.965-108.23 15.535-61.055 41.09-145.31 45.715-207.25 1.2344-16.496-18.965-53.152-25.133-34.922z"
       id="path52"
       style="fill:#e6e6e6" />
    <path
       d="m813.71 509.54c-5.6289-6.5508-16.305-13.566-23.012-12.641-21.43 2.9297-43.902 164.62-50.145 199.2-9.8672 54.965-38.66 97.172-73.93 139.45-22.164 26.594-25.711 26.402-42.09 57.625-15.148 29.062-49.531-6.2461-54.539-1.1953-2.043 2.043 30.527 85.145 85.953 48.758 20.773-13.645 61.477-50.992 77.434-69.496 30.605-35.461 47.215-94.242 55.156-139.61 8.7891-49.953 15.148-94.781 25.133-145.39 3.2383-16.344 11.023-63.867 0-76.664z"
       id="path54"
       style="fill:#e6e6e6" />
    <path
       d="m850.67 538.91c-8.4414 3.6992-39.277 158.19-43.902 184.12-13.145 73.773-17.113 106.88-32.262 138.34-23.434 48.719-79.594 97.941-128.66 108.85-11.41 2.543-20.43-9.4414-22.855-4.5859-3.1602 6.2812 36.465 87.535 65.523 59.742 6.668-6.3594 59.742-56.582 64.91-42.359 3.8555 10.562-33.34 63.02-45.098 70.383-9.75 6.1289-69.535-23.82-34.148 50.531 9.1719 19.234 50.723 40.934 67.375 34.188 25.133-10.137-24.398-29.254-27.445-31.184-21.391-13.414 107.96-125.08 128.35-192.84 12.336-41.012 34.766-158.53 40.82-204.55 3.8555-29.023 15.609-107.96 8.25-135.33-3.5469-13.219-28.023-40.934-40.855-35.344z"
       id="path56"
       style="fill:#e6e6e6" />
    <path
       d="m910.84 578.49c-0.5 0.23047-31.027 302.11-37.348 329.36-18.926 81.828-65.141 115.86-107 179.31-8.7891 13.297-11.832 29.758-1.0781 43.285 12.062 15.188 68.34-23.82 79.711-32.07 40.125-29.141 64.023-75.43 82.176-120.84 20.043-50.109 27.172-117.98 29.102-171.45 1.6953-45.984 8.4414-87.305 5.1641-134.13-1.3867-20.43-14.414-109.08-50.762-93.43z"
       id="path58"
       style="fill:#e6e6e6" />
    <path
       d="m964.07 598.77c-1.1953 2.9297 17.578 58.625 19.543 70.422 11.41 69.031-2.5039 176.22-15.418 246.49-19.695 107.27-55.273 182.74-152.87 224.21-19.852 8.4414 52.266 9.2891 90.539-12.062 38.621-21.547 96.207-126.23 108.96-165.39 20.621-62.98 16.727-186.52 11.141-251.96-2.582-30.102-48.258-144.46-61.902-111.7z"
       id="path60"
       style="fill:#e6e6e6" />
    <path
       d="m997.8 596.38c-1.543 4.5859 5.7812 14.957 14.301 25.902 30.719 39.508 31.145 63.676 36.887 112.16 5.0859 42.859 34.074 118.87 32.34 146-2.3125 36.465-41.012 106.73-57.895 140.53-20.121 40.242-41.09 96.129-85.953 112.16-20.852 7.4375 54.309 53.035 121.64-90.734 21.355-45.559 48.605-71.422 55.773-125.69 4.7812-35.961-31.336-167.24-40.242-210.03-5.2422-25.246-7.707-60.168-22.238-81.367-6.9766-10.176-49.375-44.402-54.539-28.984z"
       id="path62"
       style="fill:#e6e6e6" />
    <path
       d="m1084.5 626.83c-8.6328-3.9297-20.391-2.6992-19.465 7.3633 0.92578 10.059 14.492 28.945 22.008 59.938 7.5547 30.988 9.0977 74.082 17.23 103.95 8.1328 29.871 15.688 35.152 23.859 55.621 8.1328 20.469 10.562 31.605 7.5547 54.5-10.215 77.051-45.984 115.9-79.98 168.55-9.3672 14.531-41.473 47.91-45.211 61.902-8.4414 31.723 66.645-13.762 125.27-114.02 19.965-34.188 42.938-156.49 31.645-190.52-5.5508-16.766-15.457-35.035-22.203-56.082-6.707-21.008-10.176-44.828-16.496-66.758-6.3203-21.969-15.496-42.051-22.781-56.699-7.3242-14.648-12.797-23.781-21.43-27.75z"
       id="path64"
       style="fill:#e6e6e6" />
    <path
       d="m1112.7 636.81c1.0781-2.7383 8.0938 0.65625 15.07 6.707 7.0156 6.0898 14.031 14.918 18.926 24.977 4.8945 10.059 7.6328 21.355 11.602 36.426 3.9688 15.109 9.1367 33.996 14.918 51.535s12.18 33.688 13.836 42.207c1.6953 8.5586-1.3477 9.4805-6.5508 3.8164-5.2031-5.6289-12.488-17.848-19.273-33.379-6.7852-15.535-12.988-34.457-17.422-49.414-4.4336-14.918-7.0156-25.902-10.445-35.652-3.4297-9.75-7.707-18.27-12.297-26.98-4.5859-8.6719-9.4414-17.539-8.4023-20.273z"
       id="path66"
       style="fill:#e6e6e6" />
    <path
       d="m1159.6 989.38c-6.2461 18.77-14.492 36.734-25.016 53.961-10.523 17.191-23.32 33.688-33.688 47.988-10.367 14.34-18.27 26.52-23.781 33.535-5.5117 7.0156-8.5195 8.8633-3.9688 8.8633 4.5859 0 16.766-1.8516 27.289-6.0117 10.523-4.1641 19.348-10.637 29.102-21.121 9.75-10.523 20.43-25.055 28.059-44.559 7.6328-19.465 12.18-43.863 17.23-68.223 7.0547-34.344 16.766-68.996 17.5-104.11 0.30859-13.875 0.30859-33.031-0.76953-40.242-1.0781-7.168-3.1992-2.2734-3.9297 4.7031-5.3945 49.531-11.91 86.84-28.059 135.21z"
       id="path68"
       style="fill:#e6e6e6" />
    <path
       d="m1047.6 799.58c8.5938 13.184 19.582 50.184 20.699 66.141 1.4648 21.547-27.098 97.285-32.184 85.875-1.9648-4.4336-0.76953-22.434 1.0781-38.469 3.2383-28.484 11.102-32.918 6.2461-60.977-0.15234-0.76953-5.5117-67.414 4.2031-52.535z"
       id="path70"
       style="fill:#e6e6e6" />
    <path
       d="m481.84 154.89 0.23047 0.73047c1.2344 3.9297 2.6992 8.0156 4.0859 11.949 1.6172 4.7031 4.125 6.0117 8.9414 5.7031 3.3906-0.23047 5.9375-1.1562 9.1367-1.9258 1.8867-0.42578 2.2344 0.039063 1.1953 1.7734-10.023 16.766-14.105 10.832-5.1641 31.066l0.26953 0.65625c7.9414 18.156 16.996 36.039 29.18 51.766 10.328 13.375 22.547 35.613 35.191 46.793 2.9688 2.582 11.641-12.836 12.566 2.7734 0.34766 5.3945 1.2344 10.254 7.3633 11.41 6.207 0.76953 5.6289-0.84766 10.754 3.9297 2.7383 2.6211 12.875 11.871 14.414 14.34 2.5039 4.0078 1.7734 8.8633 3.0469 13.414l0.23047 0.76953c3.1992 9.4414 11.68-1.6953 15.84 2.6992 2.1953 2.3125 4.1641 4.1641 6.5156 6.3203 3.2773 2.9688 5.4727 3.3906 9.8281 2.2734 1.8516-0.46094 7.4766-3.0078 8.7109-2.4688 1.5039 0.69531 0.15234 3.7383-0.19141 4.8555-2.0039 6.1289-3.6992 14.918-2.082 21.277 1.582 5.6289 7.8633 3.3516 12.297 2.582 3.3906-0.61719 6.7461-1.1953 10.098-1.8867 6.2812-1.3867 5.8984 0.65625 5.7031 6.707-0.11719 4.5859-0.26953 7.6328 0.26953 12.219 0.5 4.0469 2.8906 17.922 4.5859 21.625 6.4766 13.836 0.26953-21.895 28.676 1.4258l0.53906 0.46094c6.7461 5.4336 5.5508 10.137 9.3281 16.305 4.5469 7.3633 9.7891-3.1211 15.301 0.34766 3.1992 2.043 8.7109 6.7461 11.719 9.3672 4.8164 4.125 9.4414 8.4414 13.992 12.836 3.0469 2.9688 3.1992 5.7422 3.5078 9.9062 0.65625 8.4805 1.2734 15.766 11.871 11.832 10.793-4.0078 32.57 6.9766 39.391 15.227 5.8594 7.0547 9.75 21.895 10.023 30.605 0.69531 23.203 48.527-27.676 62.598 24.051 2.082 7.5156 8.2109 21.16 18 12.371 18.578-16.727 39.16 21.047 39.547 21.238 8.3633 3.8555 9.5977-22.625 30.719-5.4727 6.207 5.0508 9.6367 3.9297 15.031-1.3867 3.7383-3.7383 23.973-4.5078 24.629-3.5859-0.23047 0.23047-9.25 1.0391-10.098 2.3125 5.4336 5.8203 20.195 11.91 27.945 8.75 3.2773-1.3867 5.2812-0.46094 8.5586-0.078125 1.582 0.19141 3.5859 17.074 10.137 21.43 5.5508 3.6602 20.391 5.8984 25.594 4.8164 42.785-8.9414 47.602 17.77 48.141 17.652 0.34766-0.078125 26.559 30.027 41.703 15.766 1.6172-1.6172-0.88672-2.6992-2.1953-3.4688-0.88672-0.5-5.7812-2.8516-5.5898-3.9688 0.23047-1.6953 8.1328-0.57812 9.5586-0.42578 3.082 0.30859 6.5898 0.69531 9.6367-0.11719 1.0039-0.26953 5.7812-1.6562 6.3984-2.1953 1.0781-0.92578-0.19141-1.6172-1.2344-1.6953-2.8906-0.15234-5.3203 1.3086-8.9023 0.88672-7.207-0.92578-13.414-3.7773-20.582-4.9727-2.1953-0.34766-6.668-0.76953-8.1328-2.543-0.84766-1.0039-2.9688-3.6992-2.7734-5.0117 0.34766-1.2734 4.9336-1.1953 6.1289-1.2344 3.5469-0.15234 7.4766-0.23047 10.984-0.57812 4.125-0.34766 9.1367-1.4648 13.184-2.3125 0.65625-0.11719 3.8164-0.69531 3.0078-1.6953-0.76953-0.92578-8.0547 0.42578-9.4414 0.57812-3.9688 0.5-6.168 0.65625-10.176 0.34766-6.1289-0.42578-11.102-1.1953-16.418-4.5859-2.1953-1.4258-3.1992-2.6992-4.7031-4.7812-0.26953-0.38672-0.38672-0.57812-0.57813-1.0391-0.57812-1.582 3.5078-2.043 4.5078-2.1953 4.7812-0.73047 9.5195-0.80859 14.301-1.1562 3.2383-0.23047 7.8633-1.3086 10.906-2.543 0.84766-0.34766 5.3203-2.043 5.7031-2.6992 0.57812-1.0391-1.1562-1.0039-1.8125-0.88672-2.6992 0.5-5.3594 1.8516-8.3633 2.4297-3.2773 0.61719-5.5898 0.76953-8.9805 0.65625-5.9375-0.23047-11.449-0.42578-17.383-0.96484-4.1641-0.34766-7.168-0.11719-11.293 0.46094-3.082 0.42578-4.6641 0.46094-7.6328-0.57812-3.1992-1.1172 0-1.9258 1.6562-2.4297 4.5859-1.4258 8.3633-2.2734 12.641-4.7031 4.5078-2.543 7.0156-5.0508 10.676-8.5586 0.34766-0.34766 1.8516-1.7734 0.61719-2.082-1.3867-0.38672-5.2812 3.3516-6.5156 4.2773-7.1289 5.5508-13.723 6.5508-22.473 6.8594-7.9805 0.26953-10.832 1.4258-18.039 4.5078-3.8555 1.6562-8.0156 2.0039-12.102 2.6992-1.5039 0.26953-1.2734 0.42578 0-0.84766 1.4648-1.5039 3.3516-3.0078 5.2812-3.7773 0.11719-0.078125 1.5039-1.1562 1.8867-1.3867 2.3906-1.4258 6.707-3.0078 9.3672-4.125 7.707-3.1992 8.2109-3.0078 14.379-8.7109 0.53906-0.46094 4.0859-3.2773 2.1953-3.6992-1.4648-0.38672-6.0508 3.8555-7.4375 4.8164-3.4688 2.3906-7.4023 3.2773-11.41 4.4336-3.7383 1.0391-7.0156 1.543-10.793 2.2734-3.6992 0.76953-7.7852 2.582-11.332 3.9688-1.7734 0.65625-3.9688 1.0781-5.8984 1.6953-1.543 0.5-3.0078 1.0391-4.5078 1.6562-2.7734 0.84766-6.207-2.2344-7.0938-4.7031-1.1172-2.9688 2.6992-2.582 4.625-2.7734 3.1992-0.34766 7.0156-1.0781 10.215-1.6172 3.8945-0.65625 6.3594-1.1953 10.098-2.543 4.125-1.5039 7.4766-2.9297 11.449-4.8555 2.3516-1.1562 5.0508-2.2734 7.4766-3.3516 3.7383-1.6562 7.4766-3.2383 11.254-4.8164 0.5-0.23047 4.4336-1.6562 3.3516-2.582-0.84766-0.69531-5.7812 1.2734-6.8984 1.6953-2.3516 0.84766-4.7031 1.7734-7.0547 2.6602-3.8164 1.4258-7.6328 2.8516-11.41 4.3555-2.4297 0.92578-12.68 4.2383-14.453 1.6953-0.80859-1.1562 1.0781-2.582 1.2734-3.3164 0 0-2.582 1.4648-2.8516 1.582-1.6562 0.84766-3.1211 1.6172-4.7812 2.4297-2.3906 1.1562-2.1953 1.582-5.1641 2.1953-2.7383 0.57812-6.7852 0.96484-9.5977 1.2344-2.082 0.19141-4.125 0.23047-6.207 0.078125-2.7734-0.19141-6.8594-0.80859-3.4688-4.2383 2.8516-2.8906 9.5195-6.2461 13.414-7.707 7.168-2.7383 10.562-3.5078 18.348-3.8555 4.4727-0.19141 13.566-1.4648 17.578-3.082 0.96484-0.38672 7.9414-3.2773 8.2109-3.625 0.38672-0.38672 0.078125-0.84766-0.11719-0.96484-1.5039-0.76953-7.9023 2.082-9.7148 2.582-4.0469 1.0391-9.8672 1.2734-14.105 1.5039-3.8164 0.19141-6.5508-0.078124-10.484 0.57813-4.9336 0.76953-12.027 2.8906-16.457 5.0117-2.2344 1.0391-9.9062 5.3203-11.641 5.4336-2.5039 0.15234 1.2734-4.0859 1.7344-4.5859 2.6992-2.7383 6.8594-5.3945 10.328-7.0938 5.4336-2.6211 7.4766-2.3516 13.219-3.3164 0.88672-0.15234 5.5117-0.73047 5.0117-2.082-0.30859-0.80859-3.5859-0.23047-4.3555-0.15234-2.6211 0.26953-5.5117 0.46094-8.0938 0.80859-7.4766 1.0039-17.422 6.7852-23.82 10.984-2.582 1.6562-8.7109 5.6289-11.793 3.7773-2.2734-1.3477-0.26953-3.7383 0.73047-5.125 5.2422-7.2852 9.5586-11.141 17.883-14.57 2.582-1.0781 3.7773-1.3477 6.4766-1.9648 0.73047-0.15234 5.4336-1.0039 4.5859-2.3516-0.38672-0.61719-3.0469 0.039063-3.7383 0.15234-3.3516 0.57812-4.7812 0.73047-8.0547 1.9258-6.4766 2.3125-9.3672 3.7773-14.84 8.0156-1.7734 1.3867-3.3906 2.7383-5.125 4.125-3.082 2.4688-9.3281 7.0547-13.336 4.5859-1.543-0.92578-0.88672-2.3125-0.5-3.7383 1.1562-4.0859 2.7734-8.5586 5.5117-11.91 4.2773-5.2422 10.676-11.293 17.113-13.605 7.4375-2.6992 15.57-3.3906 23.125-5.6641 1.6562-0.5 8.1719-3.2773 9.2891-4.1641 1.0781-0.80859 0-1.3477-1.0781-1.2344-1.9648 0.19141-6.168 2.2734-8.6719 2.8516-6.3984 1.4648-13.027 1.6172-19.543 2.2344-2.582 0.23047-3.1211 0.84766-5.3945 1.7734-6.0898 2.543-0.69531 1.1562-0.69531 1.3477 0 0.039062-5.9727 4.0078-6.5508 4.4336-4.4336 3.2383-10.715 8.9414-13.684 13.645-0.42578 0.65625-7.0156 11.449-5.8203 4.9336 0.96484-5.3594 3.0078-12.102 6.207-16.535 2.8906-4.0469 6.2812-10.793 10.715-13.105 3.9297-2.082 10.523-3.082 14.992-3.9297 2.8516-0.53906-3.5859 1.0391-3.5859 1.0391-1.6172 0.42578 3.0078-0.5 3.0469-0.5 5.4336-1.2734 10.793-2.5039 16.305-3.5469 4.7422-0.88672 9.0195-1.9648 13.527-3.6992 2.582-1.0039 1.6953-2.2734-1.0039-1.5039 0.15234 0 1.6562-0.30859 1.8516-0.15234 0 0-1.1953 0.19141-1.3477 0.23047-2.7383 0.65625-5.2422 1.543-8.0547 2.1602-5.3594 1.1562-11.023 1.7734-16.457 2.8125-3.082 0.57812-6.0898 1.0781-9.2109 1.5039-4.125 0.57812-11.023 1.7734-14.34 4.125-2.3516 1.6953-4.4727 3.9297-6.0898 6.3594-0.61719 0.96484 1.0039-1.1172-0.26953 0.76953-2.2734 3.4688-4.5078 6.4375-6.4375 10.215-2.0039 3.9688-3.4688 7.5547-5.0508 11.68-1.7344 4.4336-4.3555 8.6328-7.3242 12.371-0.69531 0.84766-1.6953 2.082-2.8516 2.2734-2.4297 0.039063-0.078125-7.707 0.26953-9.0195 1.1562-4.2031 2.8516-8.0938 4.125-12.297 1.3477-4.5078 3.9297-12.18 6.5156-16.035 1.3477-2.0039 2.3125-4.0469 3.7383-6.0898 3.6992-5.3594 7.7852-8.1719 13.566-10.906 5.6289-2.6211 8.4805-2.2734 14.34-3.0469 4.4727-0.57812 8.3242-1.3867 12.566-2.9297 0.53906-0.19141 2.4297-0.96484 1.582-1.8867-1.1172-1.1953-6.5898 0.26953-8.3633 0.5-0.76953 0.078125-6.3594 0.53906-1.9258 0.30859 2.043-0.11719 3.5859-0.46094 5.5508-0.73047 0.76953-0.11719-0.19141 0.11719 0.61719 0.039062 0.80859-0.078124 2.6602-0.5 3.2773-0.19141 0.42578 0.23047 0.61719 0.078125-0.38672 0.23047-2.6992 0.42578-5.4336 1.5039-8.3633 2.0039-3.3906 0.53906-6.2812 0.73047-9.6758 1.0039-5.5508 0.42578-8.4805 1.2734-13.645 3.6602-6.7852 3.1211-11.949 8.0547-15.688 14.453-2.0039 3.3906-3.4688 5.9375-5.0117 9.5977-1.3477 3.2773-2.4688 6.2812-3.6602 9.5977-1.1953 3.2383-4.8164 12.18-8.8633 12.219-1.0391-0.078125-0.69531-1.0039-0.5-1.6172 0.57812-1.4648 1.4258-3.082 2.043-4.625 1.543-3.9688 2.6992-8.0547 4.0469-12.102 1.6953-5.0117 2.043-10.293 3.5859-15.457 2.2734-7.7461 4.8164-13.375 10.906-18.848 2.3906-2.1211 5.0859-3.3516 8.0547-4.4336-2.2344 0.96484-5.5117 2.1953-7.207 4.0078 0.80859-0.5 1.582-1.1172 2.5039-1.6562 5.3594-3.082 12.219-4.2383 18.117-6.0508 2.9297-0.92578 6.707-2.4688 9.4062-3.8945 0.65625-0.34766 1.543-0.92578 1.1172-1.7734-0.80859-1.582-7.0938 0.61719-8.6328 0.96484-0.42578 0.078125-5.125 0.84766-1.8516 0.5 2.5039-0.23047 4.4727-1.0391 6.8594-1.543 2.043-0.42578-2.6602 1.0039 0.92578 0.19141 1.7734-0.42578 1.0039 0 1.1562 0 0.34766 0 0.57812-0.078125-0.15234 0.15234-3.0078 1.0039-5.6289 2.3516-8.7891 3.2773-5.3594 1.582-10.562 2.2734-15.84 4.3164-1.7734 0.69531 5.1641-1.6562 1.1953-0.11719-5.7031 2.2344-7.8633 3.5859-12.141 8.2109-5.0508 5.5508-7.8242 12.914-9.4805 20.121-1.0391 4.625-1.2344 7.6719-3.1211 12.219-1.3477 3.2773-4.7812 12.488-8.7109 12.836-2.0039 0.039062-0.26953-4.4336 0.039063-5.3594 0.76953-2.3125 1.9648-4.7812 2.9297-7.0938 1.4258-3.4297 2.6602-6.168 3.7383-9.75 1.0039-3.3516 1.8867-6.5156 3.0078-9.8281 0.73047-2.082 1.0391-3.3516 1.5039-5.5117 0.42578-1.9258 0.96484-4.125 1.4258-6.0898 2.082-7.9805 6.8984-10.254 13.566-13.836 3.7773-2.043 6.9375-3.3516 10.871-5.0508 4.8945-2.082 8.6328-4.3555 12.914-7.4023 0.57812-0.42578 3.5859-2.3516 3.6992-2.7383 0.42578-1.1562-1.6172-1.0391-0.92578-1.0039 0.96484 0.078125-0.26953 0.61719-0.65625 0.84766-3.082 1.9648-5.5508 4.0078-8.8281 5.8594-2.9297 1.6172-4.9336 2.6211-7.9805 3.8555-4.2031 1.7344-7.5547 3.2773-11.523 5.5117-6.0508 3.3906-9.9062 5.5508-12.371 12.527-0.15234 0.46094-0.30859 0.92578-0.42578 1.3477-1.582 5.5898-2.9297 11.023-4.8945 16.535-0.5 1.3477-1.0039 2.6992-1.5039 4.0078-2.2344 5.9375-6.8242 13.566-10.484 18.734-1.4258 2.043-11.332 22.316-14.223 21.969-2.8516-0.30859 7.7852-20.699 8.5586-21.586 4.7422-5.4336 11.484-12.758 12.68-20.043 0.42578-2.8125 0.92578-5.7422 1.4258-8.5586 1.1953-6.707 3.7383-15.148 7.5938-20.773 7.4023-10.676 10.562-13.723 23.09-18 4.5078-1.543 8.1719-3.1211 12.258-5.5898 0.73047-0.42578 1.3086-1.0391 0.65625-1.8516-0.15234-0.19141-0.19141 0.26953-0.69531 0.57812-2.043 1.3477-5.8203 3.2773-8.0547 4.125-7.4375 2.8906-11.141 2.8125-18.039 7.9414-3.625 2.6602-6.3203 5.7422-8.9805 9.3672-3.1992 4.3555-5.6641 9.2109-7.5156 14.262-1.1172 3.1211-2.082 7.0156-2.9297 10.215-0.46094 1.6953-0.73047 3.2383-1.2734 4.9727-1.3477 4.625-2.6211 8.1328-6.6289 11.102-2.8125 2.082-3.5078 1.0781-2.582-1.9258 0.88672-2.8125 1.7734-5.0508 2.4688-8.0156 0.84766-3.625 1.3867-7.3633 1.8516-11.102 0.76953-6.0508 2.1953-10.293 5.3594-15.57 4.625-7.3242 12.566-13.645 19.891-18.191 4.4727-2.7734 6.207-3.5078 11.18-5.125 3.8164-1.2344 7.1289-2.3125 10.793-4.0078 0.23047-0.11719 1.7734-0.73047 1.2344-1.2734-0.23047-0.23047-2.4688 0.84766-2.8516 1.0039-2.7734 1.1562-5.0508 1.9648-7.9023 2.8906-5.5898 1.7734-7.707 2.3516-12.758 5.5508-2.9688 1.8867-6.0508 4.0078-8.9023 6.0898-1.0039 0.73047-1.9258 1.4258-2.8516 2.2344-2.2734 2.0039-4.3164 4.125-6.3594 6.3594-2.7383 3.0078-4.3945 5.8984-6.0508 9.5586-1.9258 4.2383-2.543 7.5156-3.3164 12.062-0.30859 2.0039-0.96484 4.3945-1.4648 6.4375-1.0781 4.2773-2.9297 8.2109-5.0508 12.062-0.15234 0.23047-3.9688 6.9375-4.2773 5.3594-0.26953-1.1953 2.3906-7.5938 2.9688-9.0586 1.1562-3.0469 2.0039-5.2812 2.6992-8.5195 0.84766-4.0469 1.6562-7.8633 2.3125-11.949 0.5-3.2773 1.5039-6.7852 2.3125-10.023 2.4688-9.75 7.7461-15.262 15.648-21.047 2.8125-2.043 5.4336-4.3555 8.3633-6.3984 3.8945-2.7383 5.7031-4.0859 10.176-6.0117 4.2773-1.8516 8.2109-3.1211 11.91-6.0508 0.84766-0.65625 4.0469-3.082 4.125-4.0469 0.11719-1.1953-1.543-0.80859-2.1211-0.57812-2.2734 1.0039-4.2383 2.8906-6.7852 4.0469-2.8906 1.2734-6.2461 2.1953-9.2891 3.5078-5.2031 2.1602-9.7891 5.5508-14.301 8.9023-2.1953 1.6172-4.0078 3.0469-6.2812 4.5469-3.4297 2.2344-5.8594 4.2383-8.7109 7.207-6.7461 7.1289-8.4023 12.758-11.18 21.934-1.0391 3.4297-1.8125 6.3984-3.1211 9.7891-1.9258 4.9727-4.9336 11.68-9.4805 14.723-1.5039 1.0391-1.6953 0.5-1.3086-1.1953 0.69531-3.1602 3.0078-7.4023 4.2773-10.602 0.65625-1.6172 2.6602-6.0117 2.8906-7.4375-0.11719 0.15234-1.0039 2.5039-0.039063-0.26953 3.1992-9.2109 6.6289-18.5 10.484-27.445 3.6602-8.5586 6.707-12.797 14.609-17.77 5.7812-3.625 7.0938-4.2031 11.523-9.6758 0.76953-0.96484 2.1953-3.0078 3.1211-3.5469 0.26953 0.69531-0.15234 1.4648 0.34766 1.7734 0.65625 0.42578-0.078125 0.88672 0.26953-0.23047 1.2344-3.7773 4.6641-8.5586 7.2852-11.523 0.76953-0.84766 5.4336-5.5117 3.625-6.4375-1.0781-0.5-4.0078 2.582-4.8164 3.3516-4.3945 4.125-6.9766 7.3633-10.484 12.18-2.582 3.5859-4.8164 6.4766-8.5938 8.8633-7.8633 5.0117-12.18 7.4766-17.152 15.879-2.4297 4.0859-4.3164 8.5195-6.1289 12.914-3.8164 9.2891-7.9414 20.43-12.797 29.293-4.0078 7.3242-7.3633 11.332-17.922 19.812-2.4297 1.9648-13.297 13.105-16.418 12.41-8.7891-1.9258 17.27-25.902 20.738-29.832 7.3633-8.4414 11.832-18.926 16.305-29.102 3.2773-7.4023 6.207-14.918 9.4414-22.316 2.8125-6.4766 4.8555-12.449 6.8242-19.234 4.3945-15.379 8.7109-28.098 10.406-44.25 0.42578-3.8945 0.88672-7.6328 1.6562-11.484 0.5-2.5039-0.19141-3.7773-1.3477-0.46094-2.582 7.3633-3.0469 16.344-4.8164 24.168-2.3516 10.445-5.9727 20.699-9.2109 30.914-2.2344 6.9766-4.6641 13.336-7.9414 19.926-3.3516 6.668-6.2812 13.527-9.75 20.195-3.4688 6.668-28.328 29.832-34.691 33.957-10.562 6.8594 20.352-37.852 20.969-39.816 2.2734-7.5938 4.9336-15.84 7.5938-23.281 1.8867-5.2422 4.3555-10.871 6.3984-16.148 3.0078-7.7461 6.1289-15.07 9.8281-22.547 2.4688-4.9336 4.9336-9.2109 7.207-14.262 2.4688-5.5508 4.0859-9.5586 7.2461-14.84 0.80859-1.3477 3.2773-5.2031 3.082-6.668-0.42578-3.082-4.125 3.6602-4.4336 4.125-5.2812 8.25-8.5586 16.961-13.453 25.516-5.7031 9.9453-10.176 20.543-15.07 30.914-3.3906 7.168-6.3203 14.762-9.4805 22.086-2.6992 6.207-4.4336 11.332-7.7852 17.383-3.3164 5.9727-20.121 25.363-25.168 29.68-4.7812 4.0859 15.34-23.012 15.57-23.629 1.2734-3.5078 2.6211-6.8594 3.9297-10.293 2.1953-5.8594 3.7773-11.215 6.3594-17.035 1.7734-4.0469 3.082-7.3242 4.4727-11.523 2.6602-8.0938 6.4766-16.844 9.6367-24.859 4.4727-11.41 9.3281-22.781 14.031-34.074 0.73047-1.6562 4.0859-8.5586 2.8516-10.059-0.61719-0.76953-1.4258 0.76953-1.6953 1.2734-1.582 2.582-3.5469 7.3633-4.7812 10.254-3.5469 8.0938-7.0156 16.227-10.715 24.246-2.8125 6.0898-5.3594 12.527-8.1719 18.734-2.3516 5.2031-4.3945 10.023-6.5508 15.34-2.2344 5.5508-5.6289 11.023-8.1328 16.691-2.4297 5.4336-11.988 25.246-17.152 27.52-3.8164 1.6562 0.57812-14.879 1.0039-16.148 1.7734-5.4727 3.3164-10.059 4.7031-15.648 1.6953-6.7852 4.5859-14.223 7.1289-20.773 1.543-3.9688 3.3516-7.9805 4.9336-12.062 2.6992-6.8242 6.2812-14.145 9.4062-20.852 5.4336-11.719 12.449-22.781 20.352-32.957 3.1211-4.0078 5.7812-7.6328 9.2109-11.449 1.0039-1.1562 4.6641-5.0117 4.3164-6.3594-0.42578-1.8516-3.5078 2.3516-4.125 3.0078-2.9297 3.1992-5.2031 5.7422-7.9805 9.2109-5.2422 6.6289-9.6758 12.371-14.414 19.426-3.4297 5.0508-5.2031 7.4375-7.8633 13.184-2.4297 5.2031-4.625 9.8281-7.2852 14.918-3.625 6.9375-6.6289 13.684-9.9062 20.738-9.8672 21.277-21.391 30.258-28.406 43.168-1.6562 2.9688-18.734 30.18-23.781 31.453-11.449 2.8906-3.1602-8.2109-2.4688-10.406 2.4688-7.4766 24.898-33.266 27.906-40.625 4.3164-10.484 9.6367-19.039 15.84-28.562 6.9375-10.637 13.914-20.312 19.543-31.762 1.0039-2.0039 6.168-12.141 6.2812-13.492 0.23047-2.1953-1.6953-1.0781-2.6602 0.19141-2.4688 3.3516-6.1289 11.18-8.4023 15.262-5.4727 9.9062-13.836 20.352-20.543 29.68-4.0469 5.6289-8.0156 10.871-11.91 16.652-1.9648 2.9297-9.3672 14.301-6.707 2.8516 1.9648-8.4414 8.5586-22.434 13.219-29.793 7.1289-11.215 15.918-21.43 23.434-32.453 4.5469-6.6289 8.7891-11.332 12.605-18.617 1.2344-2.3516 6.207-11.91 6.5898-13.723 0.039062-1.6562-1.2734-0.76953-1.9258 0.039062-3.4297 4.7031-5.6289 10.637-8.7109 15.648-8.5586 13.605-19.195 25.324-28.945 38.004-11.062 14.414-16.457 24.551-23.781 41.051-1.4648 3.2773-12.102 27.059-8.6719 6.3594 0.80859-5.0508 3.1602-10.793 4.5859-15.84 0.84766-3.082 2.3125-7.168 3.4297-10.254 1.9258-5.4336 4.3555-11.719 6.6289-16.996 3.8164-8.9023 9.5586-17.539 14.762-25.746 4.0859-6.5156 11.141-14.84 17.035-19.852 1.3086-1.1562 8.5195-6.707 7.4023-8.4805-0.88672-1.4258-4.3945 2.082-5.2812 2.8516-5.4336 4.4336-8.5195 6.6289-13.219 11.949-4.3164 4.8945-7.3633 8.5938-11.023 13.992-6.6289 9.6367-12.102 17.152-17.305 27.828-3.8555 7.8633-8.0547 16.766-12.488 24.281-0.88672 1.5039-9.2891 15.262-11.141 12.41-1.8516-2.8516 8.5195-24.246 10.328-28.328 2.9297-6.5898 5.3203-12.988 8.4414-19.582 4.625-9.7891 8.3633-19.773 12.758-29.602 3.4297-7.707 7.707-14.918 12.102-22.086 3.8164-6.207 6.7852-10.562 11.41-16.188 1.1953-1.4258 5.6641-6.6289 5.3945-8.2109-0.46094-2.582-4.5859 3.2773-5.125 3.9297-4.8945 5.7422-8.9023 10.445-12.988 16.922-2.5039 3.9688-5.0117 7.5547-7.3242 11.68-3.082 5.4336-5.7812 9.8672-8.3633 15.648-2.2734 5.0117-4.7812 10.137-7.1289 15.109-3.6602 7.5938-8.0547 15.148-11.988 22.625-1.7734 3.3516-8.3633 13.836-11.254 15.84-1.8867 1.2734-1.3086-0.19141-3.6992 2.6211-1.8867 2.2734-0.15234-2.9688 0-3.5859 1.0781-3.8555 2.1953-8.0547 3.1602-11.949 1.2344-5.0859 2.4688-9.8672 3.625-14.992 0.84766-3.6992 2.3125-8.2109 3.3516-11.988 1.1172-4.0078 2.1602-7.9805 3.2383-11.988 1.3477-4.9336 3.4297-10.945 5.125-15.84 3.4688-9.8281 10.137-21.625 16.074-30.258 3.0078-4.3555 5.7031-8.2109 8.9023-12.488 1.6953-2.2344 10.984-15.379 11.449-17.113 0.34766-1.3477-0.42578-1.7734-1.582-0.5-1.3477 1.5039-4.2031 5.7031-5.5508 7.5938-3.1211 4.3555-6.0508 8.3242-9.2891 12.566-8.8633 11.562-19.156 27.598-23.973 41.281-1.9258 5.4336-3.9688 10.367-5.6289 15.996-2.4297 8.25-5.6289 16.188-8.0547 24.438-5.5508 19.004-11.371 20.504-20.699 35.5-2.2734 3.625-20.773 20.469-25.016 21.277-5.9727 1.1562 21.895-28.676 22.664-30.605 4.2031-10.137 9.1367-21.082 12.371-31.527 1.543-4.9336 2.3906-7.4766 3.3516-12.719 0.76953-4.2383 1.7734-8.7891 2.6992-12.988 0.92578-4.125 2.8906-9.1719 4.1641-13.414 1.0039-3.3516 2.3906-7.1289 3.5859-10.484 2.6211-7.4023 5.5898-14.145 8.9805-21.238 2.1953-4.5469 4.8945-9.1719 7.168-13.723 1.0039-2.082 5.0859-9.7148 5.0117-11.484-0.078125-1.7734-1.543-0.57812-2.1602 0.34766-1.7344 2.582-4.2773 7.8633-5.8594 10.832-2.9297 5.6641-6.168 10.832-8.9023 16.652-1.8867 4.0078-3.625 7.2461-5.3203 11.41-1.4258 3.5078-2.7383 6.9375-4.125 10.406-1.6953 4.2383-3.1992 8.5195-4.8164 12.797-1.4648 3.8164-2.2344 6.168-3.3516 10.137-1.0391 3.8555-2.1953 7.8242-3.2773 11.719-1.1562 3.9688-6.1289 15.84-9.5195 18.117-4.125 2.7383 3.3516-24.477 3.5078-25.133 2.4688-10.715 6.3203-20.969 8.8633-31.836 0.26953-1.1562 0.53906-2.2734 0.84766-3.4297 1.6953-6.2812 3.1602-12.68 4.8555-18.965 2.3906-9.0586 7.707-25.902 12.488-33.535 0.73047-1.1562 6.3203-9.5977 4.3555-10.293-1.0781-0.38672-3.8164 4.4727-4.5859 5.5898-4.2031 6.1289-6.9375 12.875-9.6367 19.812-3.8164 9.7148-6.5898 20.699-9.75 30.758-2.0039 6.3984-4.0469 12.336-5.6289 18.848-2.1211 8.5586-5.7031 16.652-8.4414 25.055-1.1172 3.3516-6.7461 20.852-9.5586 21.777-2.4688 0.76953-2.1953-6.3203-2.043-7.707 0.92578-7.7461 4.0078-16.805 7.5156-23.742 1.6562-3.2773 8.8281-18.27 6.668-21.047-1.543-2.0039-4.6641 0.73047-5.0117-0.039062-0.30859-0.65625-0.76953-0.73047-0.61719-1.9648 0.30859-2.1602 2.543-5.8594 3.5469-8.1328 4.0859-9.1367 7.9414-19.117 11.641-28.445 3.2773-8.0938 6.9766-15.918 10.176-24.168 0.15234-0.34766 4.7812-10.984 3.1211-10.715-1.3867 0.23047-17.27 36.617-18.848 40.277-4.4336 10.484-8.9023 20.273-14.145 30.41-1.8516 3.625-3.625 7.7852-5.4336 11.523-3.1602 6.3984-5.9375 11.254-8.25 18.117-2.7734 8.2109-5.9375 14.648-7.9023 23.395-0.92578 4.2031-17.191 22.086-23.203 21.43-7.207-0.80859 8.8633-11.719 9.75-17.613 1.0039-6.7461 5.0117-16.691 7.6328-23.203 3.9688-9.9453 7.6719-19.004 10.754-29.332 3.082-10.406 7.6719-21.777 11.758-31.875 3.9297-9.75 7.4766-14.918 13.566-23.395 3.1211-4.3555 5.8594-8.5586 9.2109-12.836 1.6953-2.1602 9.9062-12.219 10.023-13.992 0.15234-1.8125-1.7344 0.039062-2.1211 0.42578-3.082 3.625-6.2461 7.9023-9.2891 11.719-4.625 5.7812-9.0586 12.102-13.453 18.117-6.207 8.6328-8.5195 13.801-12.68 23.359-4.0859 9.4062-8.0938 18.809-11.719 28.406-0.57812 1.543-3.7773 9.5195-1.5039 2.6211 2.043-6.2461 0.61719-2.8516 0.46094-3.5859-0.30859-1.7344 2.1953-8.3633 2.8516-10.484 0.92578-2.8906 1.9258-5.7031 2.8125-8.7109 2.3906-7.8242 6.207-15.109 8.3633-22.781 1.6953-5.9727 5.8594-11.371 7.7852-17.27 3.3516-10.367 9.1719-19.039 15.227-27.945 1.1562-1.6562 4.2031-5.7031 4.2031-7.6719l-0.039063-0.5c-1.543-0.15234-1.6172 0.42578-2.582 1.7734-5.5117 7.7852-10.793 14.648-15.418 23.09-6.207 11.371-12.336 24.207-17.074 36.27-2.082 5.3594-3.8945 10.137-6.2461 15.457-3.0469 6.8594-5.2422 13.801-8.5195 20.738-1.4648 3.1211-8.6719 19.465-11.793 19.891-1.9258-0.15234 4.0078-15.766 4.5078-17.539 2.9297-9.75 5.4336-19.004 7.707-28.91 1.8867-8.4023 6.0508-18.926 9.7891-26.672 2.1602-4.5078 3.9688-8.5586 6.3984-13.066 4.9336-9.2109 9.6758-17.422 13.801-27.137 0.73047-1.6953 4.3555-9.2891 4.0469-10.715-0.92578-4.2773-7.1289 11.371-7.3242 11.793-5.7812 12.797-13.801 24.707-20.043 37.504-4.3164 8.8633-8.5586 17.27-11.141 26.902-2.2344 8.4414-5.5898 18.23-9.0195 26.25-3.1211 7.2852-11.332 21.16-16.805 26.559-2.8516 2.8125-3.4297 0.38672-2.6211-2.543 1.4258-5.2422 5.1641-12.988 7.4023-18.27 2.9297-7.0156 5.7031-14.34 8.3242-21.469 1.3477-3.6992 2.2734-6.3594 3.3906-10.176 1.4258-4.8555 2.9688-9.5977 4.3164-14.531 1.6953-6.0508 4.7812-12.914 7.1289-18.809 1.7734-4.5469 3.9688-9.0195 5.9375-13.492 4.6641-10.637 11.719-20.391 16.344-31.336 0.61719-1.4648 3.2383-7.1289 3.1211-8.4023-0.5-2.4297-2.8516 2.1602-3.0078 2.4297-1.8125 3.5469-3.1602 7.2852-5.0117 10.832-5.1641 9.6367-10.832 18.117-15.496 28.137-2.8516 6.1289-5.8594 11.91-8.4805 18.191-1.8867 4.625-3.4688 8.0938-5.0117 12.988-1.582 4.9727-3.2773 9.6758-5.0508 14.609l-0.23047 0.61719c-1.2344 3.3516-2.9297 7.1289-4.4336 10.406-1.7734 3.9297-4.3555 8.9414-6.4375 12.758-4.4336 8.1719-16.766 29.18-22.625 35.344-3.0469 3.1992-13.527 4.6641-14.648 1.2734-2.543-7.6328 14.918-30.141 18.848-36.578 6.8984-11.254 15.148-21.699 20.969-33.727 4.5859-9.4414 7.7852-16.805 10.562-27.02 1.3867-5.0117 2.9297-9.9453 4.3164-14.957 3.4297-12.297 6.3594-15.996 13.145-26.289 0.92578-1.4258 1.9258-2.8125 2.8906-4.2383 1.582-2.2734 9.0195-12.988 8.75-15.031-0.11719-1.1172-1.1953-0.5-1.6562 0-4.7812 5.7812-7.4766 12.641-13.219 18.27-1.4258 1.3867-2.1211 1.9648-3.625 3.1602-2.8516 2.2734-3.4688 5.2031-4.5078 8.6328-1.3477 4.4727-2.6211 8.6328-3.8945 13.145-3.625 12.914-8.0547 25.633-14.762 37.348-6.6289 11.641-12.605 20.121-22.277 29.449-5.125 4.8164-5.0859 1.0781-3.3516-3.3906 3.0469-7.8633 9.4805-17.344 13.914-24.824 3.082-5.125 6.4375-9.9062 9.3672-15.188 5.5508-10.137 9.1367-18.191 12.949-29.141 1.4258-4.0859 2.543-7.1289 3.625-11.332 3.0078-11.562 6.6289-19.387 12.641-29.641 0.46094-0.76953 5.7031-9.5586 3.1602-9.1367-1.3867 0.23047-4.625 6.707-5.3594 8.0156-4.9727 8.5586-7.7852 13.492-11.18 23.012-2.2734 6.4766-3.7773 12.566-6.3984 19.078-4.125 10.328-8.4414 19.656-15.188 28.602-1.7734 2.3906-2.4688 2.7383-4.5859 4.5078-0.92578 0.76953-2.4297 3.082-3.4297 2.7734-1.1562-0.34766-1.1172 0.039062-1.7734 1.1953-2.0039 3.4297-3.7773 7.9414-5.7422 11.562-0.96484 1.7734-8.8633 14.723-10.098 15.031-0.039062-0.46094 7.3242-13.566 8.1328-15.188 3.082-6.3203 6.0117-13.066 8.9023-19.504 1.0781-2.3516 2.043-4.7422 3.1211-7.1289 3.082-6.8594 6.0508-14.031 8.9414-20.969 3.7383-9.0977 6.2461-18.156 9.4414-27.367 2.9688-8.4805 8.3242-16.344 12.18-24.629 0.30859-0.69531 4.2031-8.2852 2.0039-8.0938-1.582 0.15234-5.2422 9.3281-6.1289 11.023-2.7383 5.2812-5.9727 9.6367-8.4414 15.34-2.1602 4.8555-3.9297 10.754-5.8594 15.84-2.7734 7.3633-5.125 13.723-8.4414 20.93-2.9297 6.3594-5.8594 12.719-9.0586 19.004-1.2734 2.4688-2.3516 4.8555-3.6992 7.3633-4.7812 8.9805-8.2109 15.957-14.531 24.051-5.9375 7.5547-14.492 16.535-22.895 21.199-7.9414 4.4336-3.4297-5.5898-2.082-8.75 2.7734-6.4766 7.8242-12.875 11.793-18.809 4.2773-6.4375 8.5938-12.797 12.797-19.273 2.3516-3.5859 4.5859-6.8242 6.8594-10.523 4.125-6.6289 8.1328-14.262 11.793-21.238 2.4297-4.6641 4.6641-10.023 6.9766-14.879 3.6992-7.7852 7.1289-15.957 10.754-23.859 2.3125-5.0859 3.9297-8.7891 5.6641-14.223 0.76953-2.5039 5.8984-17.23 5.9727-18.387 0.15234-2.3516-1.4648-0.84766-2.082 0.42578-1.9258 4.0859-3.9688 10.523-5.5117 14.957-1.4258 4.125-2.4297 7.207-4.2773 11.215-3.8555 8.3633-7.9414 16.883-11.949 25.168-2.1602 4.4336-4.4727 8.8633-6.6289 13.297-3.0078 6.0898-7.4023 13.219-11.023 19.004-6.0898 9.6367-14.492 20.195-22.047 28.793-3.3164 3.7773-8.0547 8.3633-12.258 11.215-3.5859 2.4297-2.7383-1.9648-1.9258-4.0859 2.082-5.4727 7.707-13.801 10.871-19.312 3.4297-6.0117 7.5156-13.258 10.137-19.617 3.2383-7.7852 7.207-14.762 11.062-22.203 2.6211-5.0859 4.8555-10.754 7.3633-15.996 3.9297-8.1328 7.7461-15.57 11.102-24.012 2.1602-5.4336 4.125-10.293 6.6289-15.648 2.2734-4.7812 4.3164-9.1719 5.3594-14.414 0.15234-0.80859-0.92578-2.6992-2.082 0.65625-0.42578 1.2734-0.84766 2.582-1.3867 3.7773-0.5 1.0781-0.53906 3.5078-1.2734 5.3594-1.582 4.0078-4.0078 8.1328-5.7812 12.258-3.082 7.1289-5.7812 13.914-9.4414 20.852-3.7383 7.0547-7.168 13.762-11.215 20.66-4.8555 8.3242-8.5195 16.996-13.492 25.324-2.9297 4.9336-6.4375 10.293-9.6758 15.07-3.6992 5.5117-8.5938 11.062-13.184 15.84-3.1211 3.3164-7.1289 6.0898-3.6602-1.0781 3.3164-6.8242 8.2109-13.762 12.062-20.469 3.7773-6.5156 8.7891-12.449 12.797-19.039 5.3594-8.7891 10.293-17.77 15.727-26.52 3.6992-5.9375 7.7852-12.797 10.984-18.926 3.5078-6.5898 5.8203-13.105 9.7148-19.695 0.42578-0.69531 5.8594-8.9414 3.1602-8.6328-2.0039 0.23047-10.098 16.188-11.293 18.617-5.2812 10.906-11.523 20.469-18.191 30.527-1.4258 2.1953-2.8516 4.3555-4.2773 6.5898-5.125 8.0938-9.8281 15.688-15.918 23.203-2.4297 2.9688-14.184 18.461-16.961 19.312-2.6602 0.80859-0.65625-4.5859-0.30859-5.7031 3.0469-10.059 6.168-16.035 10.715-25.324 0.92578-1.8867 1.6172-3.2773 2.6992-5.0508 2.0039-3.3516 4.5469-6.7852 6.3984-10.137 0.078125-0.15234 6.2812-16.727 7.4375-19.926 1.5039-4.125 3.1211-8.3242 4.7031-12.449 2.2734-5.8203 4.0469-11.793 6.3203-17.578 2.543-6.3984 4.7031-12.641 7.4766-18.965 1.3086-3.0078 2.6992-6.0117 4.125-8.9414 0.30859-0.65625 4.3164-8.4414 1.582-8.0938-1.4648 0.19141-5.4727 8.25-6.2461 9.75-4.7031 8.8633-9.4414 19.656-12.797 29.18-2.3516 6.7461-6.207 13.992-9.1719 20.621-2.3906 5.4336-4.3945 10.367-7.1289 15.727-4.0859 8.0547-7.6719 15.457-12.488 23.125-4.0859 6.5898-8.3633 13.145-12.488 19.695-3.7383 6.0117-16.074 41.742-22.473 42.246-10.984 0.88672 6.7852-35.035 9.9844-40.82 1.4648-2.6602 5.0508-23.051 5.6289-23.203 0.46094-0.15234 0.23047 0.19141 0.84766-0.76953 4.2773-6.4375 6.707-14.105 11.293-20.812 1.8516-2.6992 3.6992-5.2422 5.7812-7.7852 2.582-3.1602 4.7812-6.707 7.4375-9.9844 5.2812-6.4766 11.18-13.219 15.727-20.195 1.9648-3.0078 3.7773-6.7852 5.7422-9.9844 3.5078-5.8984 13.027-24.359 18.309-27.789 1.3086-0.84766-1.3086 0.19141-2.7383 1.582-5.3203 5.2422-13.414 19.812-17.883 26.828-4.4727 7.0156-6.6289 9.9844-13.066 15.688-0.76953 0.65625-1.543 1.3477-2.2734 2.0039-1.6953 1.5039-1.6562 0.57812-3.0078 1.3477-2.8516 1.6172-1.4258-0.80859-1.1953-2.8516 0.92578-7.7461 6.0508-16.574 9.6758-23.551 1.1953-2.3125 27.098-32.492 16.496-26.902-0.76953 0.38672-26.902 39.238-28.871 42.168-0.84766 1.2734 17.73-37.926 17.77-38.004 0.26953-1.0391 1.1172-5.5117-1.4648-4.8555-2.0039 0.53906-6.707 10.137-7.8633 12.336-2.4688 4.5078-4.5859 9.6367-7.0156 14.34-3.6602 7.1289-6.7461 14.531-10.406 21.66-4.3164 8.3633-7.707 16.883-11.91 25.285-2.1953 4.3945-8.75 18.77-11.484 21.699-4.2383 4.625-18.117 39.969-26.172 39.969-4.8164 0 13.992-42.938 15.918-46.715 1.8516-3.6992 3.6992-7.9023 5.4336-11.719 1.4258-3.1211 6.2812-15.648 7.6719-17.5 0.11719 0.92578-2.0039 7.707 0.42578 2.1602 0.76953-1.7734 5.8594-13.414 6.7852-13.801 0.34766-0.15234 1.0391-1.543 2.2344-2.3516 1.5039-1.4258 7.9414-13.375 9.6758-16.148 4.4727-6.8984 8.9805-13.066 13.145-20.234 0.57813-1.0391 3.3906-5.2031 2.4688-6.0898-3.1211 2.3906-5.3594 7.207-8.9805 10.254-0.34766 0.26953-2.3906 2.2734-2.582 2.1602-0.19141-0.15234-0.26953-1.0391-0.26953-1.1562-0.11719-1.3086-2.4688 3.5859-0.039062-2.043 2.2734-4.7812 12.062-16.383 12.527-20.504 0.11719-0.96484-0.078124-1.1953-0.88672-1.543-1.6172-0.26953-5.5898 5.6289-6.5898 6.8984-2.6992 3.5078-5.5117 6.9375-8.2109 10.406-4.3555 5.5508-8.5938 13.684-11.793 20.043-2.9688 5.8203-5.7031 11.719-8.4023 17.652-2.1953 4.8555-4.7812 9.4805-6.9766 14.379-4.1641 9.2891-8.5938 18.461-13.414 27.406-4.4336 8.1328-7.207 15.262-13.336 22.512-2.4688 2.8906-8.6719 10.254-12.758 9.4805-5.8984-1.7734 7.6719-25.285 9.4805-28.328 1.9258-3.3164 3.6992-6.5156 5.5508-9.8281 3.3906-6.0117 6.9375-11.719 10.215-17.883 4.5859-8.5586 9.7148-16.652 14.379-25.207 2.582-4.7812 4.7812-8.4414 7.707-12.988 4.2773-6.5898 8.0547-13.605 11.949-20.43 3.5469-6.3594 5.7031-13.027 9.6758-19.039 0.84766-1.2734 3.7773-5.2812 2.543-6.668-1.582 0.23047-3.8164 3.8164-4.8555 5.125-3.1211 3.9297-4.4336 8.6328-6.8594 13.105-2.1602 4.0078-4.4336 7.9805-6.668 11.988-3.3516 5.8203-6.1289 10.754-9.9844 16.344-2.543 3.6992-4.9336 7.168-7.168 11.062-3.9297 6.9375-8.6328 13.066-12.719 19.773-4.2773 7.0156-27.289 43.246-11.062 10.832 4.7812-8.3633 10.137-16.457 15.188-24.707 2.4688-4.0469 4.5078-7.1289 6.6289-11.41 2.3906-4.8164 4.8945-8.4805 7.8242-12.914 4.4336-6.668 7.9805-13.066 12.641-19.812 1.5039-2.1953 5.3945-10.023 5.3594-12.141-0.73047 0.5-4.5859 8.2852-5.5117 9.7148-9.7148 14.918-23.512 21.199-34.074 38.543-7.7461 12.68-30.141 60.398-43.746 63.906-31.105 8.0156 70.883-103.61 72.5-105.77 2.6992-3.5859 5.2812-8.8633 7.9414-12.875 2.3516-3.5859-0.19141-3.4688-2.4297-0.65625-4.6641 5.8203-5.5508 11.215-12.18 15.688-8.0547 5.3945-15.996 9.0977-23.668 15.262-10.023 8.0156-18.117 16.691-26.402 26.402-3.5078 4.1641-6.4375 7.6328-9.7148 12.062-26.133 35.578-9.5977 1.7734-0.15234-12.527 4.4336-6.707 7.3633-11.91 12.719-18.078 4.2031-4.8164 7.2461-8.1719 12.027-12.527 4.4336-4.0469 9.2109-7.6719 13.453-11.988 2.6602-2.7383 4.7031-4.7812 7.5547-7.3242 4.8945-4.3555 9.3281-8.9023 12.758-14.531 0.73047-1.1953 5.2422-8.2109 5.2031-8.9805-0.15234-1.8516-2.6602 0.76953-3.0078 1.1953-3.6992 4.5469-5.3594 9.2891-9.9844 13.762-4.8164 4.6641-9.8672 8.9414-14.723 13.645-5.4727 5.2812-11.832 9.4062-17.578 14.57-6.4766 5.7812-11.293 10.945-16.535 17.883-30.797 40.934-21.277 15.57 0.53906-12.102 1.9258-2.3906 3.6602-4.8555 5.6289-7.2852 4.0859-5.125 6.8984-9.4414 11.719-14.07 5.5508-5.2422 13.375-13.762 16.574-20.699 2.4688-5.3594 4.125-10.176 6.207-15.648 0.15234-0.38672 2.1602-4.5469-0.078125-3.3164-1.5039 0.84766-5.2031 11.523-6.3594 13.992-3.6602 7.9805-5.5508 10.328-11.449 16.727-4.7031 5.0859-9.4805 8.7891-13.914 14.145-9.25 11.254-18.926 22.086-28.098 33.418-32.34 39.238-14.648 2.082-6.3984-15.496 2.1602-4.625 3.9297-9.2891 7.5547-12.914 2.6602-2.6992 4.9336-5.8594 7.2852-8.8281 2.8516-3.5859 5.5508-7.207 8.1719-10.984 4.0859-5.8984 8.4805-11.68 12.488-17.578 4.0469-5.9727 5.0117-12.297 7.4375-18.887 0.38672-1.1172 2.5039-6.207 2.3516-7.0156-0.26953-1.5039-1.6172-0.078126-2.0039 0.53906-2.6211 3.9297-4.5078 11.562-6.0898 16.148-2.543 7.207-9.3281 14.648-13.953 20.93-2.7383 3.7383-5.125 6.7852-8.3633 10.215-3.3164 3.5469-4.1641 6.4375-6.8242 9.8672-0.65625 0.84766-3.1992 3.6992-4.4727 2.082-0.65625-0.80859-0.23047-1.8516-0.26953-2.543-0.38672 0.5-0.078125 2.7383-0.76953 2.1953-0.42578-0.30859 2.082-8.5195 2.2734-9.4062 0.80859-3.2773 1.3867-5.8203 2.543-9.0586 2.8125-7.8633 6.0508-14.223 10.023-21.508 2.1953-4.0078 3.9297-8.3633 5.5508-12.605 0.76953-2.0039 4.7812-10.754 4.3945-12.336-1.0039-2.7734-3.2773 1.9648-3.7773 2.8906-2.5039 4.7031-3.9297 9.0586-6.0117 13.836-1.2734 2.8516-2.9297 5.5117-4.3164 8.3242-1.1172 2.1953-2.6992 5.5508-5.7031 4.8945-0.84766-0.19141-0.61719 0.84766-0.65625 1.6562-0.26953 4.0859-3.3516 13.684-4.7812 17.809-0.53906 1.582-1.1562 3.1211-1.7344 4.6641-3.0469 7.707-7.1289 16.457-11.641 23.434-3.4688 5.3203-10.754 12.297-16.613 14.531-3.6992 1.4258-5.8594 0.38672-3.1211-3.5469 2.8906-4.125 8.1328-9.0586 11.641-12.914 6.9375-7.6328 10.254-12.258 15.031-21.277 2.3125-4.3555 4.8164-10.832 5.8984-15.688 0.61719-2.7734-1.1172 2.543 0-1.7344 0.92578-3.7773 1.4648-7.0156 1.9258-10.871 0.57812-4.625 2.1602-9.9453 3.8164-14.262 1.7734-4.4727 3.6992-8.8633 5.4727-13.297 0.34766-0.88672 2.3906-6.4375-0.26953-5.5508-2.043 1.1172-4.6641 7.4766-6.3594 9.8672-4.0078 5.8203-3.6992 5.125-5.2031 12.527-2.2734 11.562-4.3945 21.316-10.832 31.605-3.7383 5.9375-9.75 12.219-15.535 16.188-3.2773 2.1953-14.918 9.9062-17.074 3.5469-2.043-6.3984-1.8516-7.7852 4.5859-11.023 7.0938-3.5469 8.5586-2.8125 14.648-8.9805 10.293-10.445 15.609-23.051 18.117-37.348 0.84766-5.0859 2.1602-9.6367 2.9688-14.801 0.46094-3.0078 3.625-20.273 3.082-21.777-1.6562-3.3516-3.4297 2.7734-3.7383 3.9297-1.0781 4.5078-1.8125 9.5977-2.8125 14.301-1.0781 4.8945-2.3516 10.137-3.6992 14.957-2.082 7.3633-5.0508 15.648-7.8242 22.855-1.7734 4.5859-3.5078 7.7461-6.7852 11.484-0.65625 0.76953-2.4688 2.6602-3.3164 1.0781-0.84766-1.6562 2.2734-6.3984 3.082-8.3242 1.582-3.6992 2.1953-8.5938 3.2773-12.605 1.7734-6.668 4.0859-13.258 4.7031-20.195 0.23047-2.6211 0.5-5.2422 0.80859-7.8242 0.57812-4.7031 1.1953-9.3672 1.8125-14.07 0.23047-1.8516 0.88672-6.4375 0.19141-8.0938-1.2344-2.4297-3.0078 0.61719-3.4297 1.7734-2.7734 8.25-3.2773 12.758-3.7773 21.277-0.26953 5.5117-1.8516 11.023-2.2344 16.574-0.11719 2.2344 0.42578 2.3125-0.23047 4.8945-1.6953 6.8984-3.7383 13.027-7.8242 18.926-1.7734 2.543-4.9336 4.625-7.5156 6.3594-1.582 1.0039-2.3516 0.5-2.043 0.5 0 0-0.88672-0.46094-0.15234-1.8516 1.2344-2.3516 4.7812-3.8945 6.6289-7.4375 2.543-4.8555 3.8164-9.7891 4.4727-15.188 0.53906-4.5469 1.4258-8.9023 1.9648-13.492 0.57812-4.7031 0.96484-6.2461 0.42578-11.141-0.26953-2.3516-0.53906-4.7031-0.80859-7.0156-0.42578-3.6602-1.3477-6.5508-2.6992-9.9844-2.043-4.6641-4.5859-2.0039-4.3164 2.1211 0.34766 5.2422 1.4258 8.9023 1.2734 14.57-0.26953 8.5195-1.6172 22.164-5.4727 29.758-2.043 4.0078-4.3555 6.668-5.8594 11.023-0.73047 2.1211-2.043 7.168-3.1992 8.7109-1.1953 1.582-3.2773 1.8516-3.2773-0.57813-0.039063-2.043 0.57812-6.2812 0.84766-8.4414 0.34766-2.6992 0.57812-5.0859 1.0391-7.8633 0.65625-3.7773 1.1562-7.2852 1.9258-11.023 1.2734-6.1289 2.6211-11.91 3.0469-18.23 0.34766-5.7812 0.23047-12.027-0.26953-17.77-0.61719-6.5898-0.69531-6.5508 1.8516-12.641 0.46094-1.1172 2.043-4.8164 0.11719-5.3594-1.4258-0.42578-3.5859 3.082-4.2773 4.0859-2.2734 3.1992-4.2773 6.4375-4.2773 10.484 0 2.6992 0.34766 5.4727 0.38672 8.2852 0 3.0078-0.11719 6.0508-0.65625 9.0195-1.0039 5.4336-3.625 15.227-8.2109 18.656-6.168 4.3555-6.9766-16.418-6.707-19.426 0.73047-7.8242 2.4297-10.906 4.7422-18 1.2344-3.7773 1.8516-8.7109 1.2344-12.641-0.23047-1.582-1.2344-3.8164-3.2383-3.082-2.543 0.92578-3.0078 6.5156-3.6992 8.7891-0.92578 3.1992-3.2383 7.4023-4.7422 10.523-0.88672 1.8867-2.3516 5.3945-4.9336 3.8555-0.92578-0.53906-2.043-1.582-2.9297-2.2734-7.4766-5.5898-16.535-6.9766-25.594-8.0156-0.65625-0.078125-2.7734-0.30859-2.4297 1.0039 0.42578 1.8125 7.4375 2.8516 9.2109 3.2773 6.168 1.582 14.57 4.6641 14.992 12.141 0.039063 0.61719-0.15234 2.9297 0.26953 3.082 0.46094 0.19141 0.92578-0.65625 1.4258 1.6172 0.57812 2.6602 0.57812 9.7891 2.1953 11.41 1.1562 1.1562 2.3125 0.34766 3.3516 2.9688 0.15234 0.34766 0.26953 0.76953 0.42578 1.1562 1.8516 5.5117 2.8516 14.918 5.5508 19.273 2.1211 3.4297 6.5508-0.80859 8.2109-2.5039 1.3477-1.4258 2.7383-3.2383 4.1641-4.5078 0.92578 0.38672 0.61719 1.4648 0.53906 2.5039-0.26953 4.2383-1.7734 9.0586-2.5039 13.453-0.96484 6.168-1.6562 9.3672 0.84766 15.188 1.9648 4.5859 0.11719 5.7031 1.3867 10.445z"
       id="path72"
       style="fill:#e6e6e6" />
    <path
       d="m1160.8 668.34c4.3555-10.832 22.316 29.719 23.859 35.691 4.0859 15.496 12.297 34.961 15.07 49.105 0.88672 4.4727-0.73047 4.9336-3.4297 2.0039-8.4414-9.1719-15.648-31.258-19.234-43.324-3.6992-12.527-5.7031-21.047-11.91-32.801-2.3906-4.5469-4.9336-9.1719-4.3945-10.637z"
       id="path74"
       style="fill:#e6e6e6" />
  </g>
</svg>
