<?xml version="1.0" encoding="UTF-8" standalone="no"?>
<svg
   width="1200pt"
   height="1200pt"
   version="1.1"
   viewBox="0 0 1200 1200"
   id="svg4"
   sodipodi:docname="ferme.svg"
   inkscape:version="1.2.2 (b0a8486541, 2022-12-01)"
   xmlns:inkscape="http://www.inkscape.org/namespaces/inkscape"
   xmlns:sodipodi="http://sodipodi.sourceforge.net/DTD/sodipodi-0.dtd"
   xmlns="http://www.w3.org/2000/svg"
   xmlns:svg="http://www.w3.org/2000/svg">
  <defs
     id="defs8" />
  <sodipodi:namedview
     id="namedview6"
     pagecolor="#ffffff"
     bordercolor="#666666"
     borderopacity="1.0"
     inkscape:showpageshadow="2"
     inkscape:pageopacity="0.0"
     inkscape:pagecheckerboard="0"
     inkscape:deskcolor="#d1d1d1"
     inkscape:document-units="pt"
     showgrid="false"
     inkscape:zoom="0.53125"
     inkscape:cx="751.05882"
     inkscape:cy="800.94118"
     inkscape:window-width="1674"
     inkscape:window-height="752"
     inkscape:window-x="50"
     inkscape:window-y="114"
     inkscape:window-maximized="0"
     inkscape:current-layer="svg4" />
  <path
     d="m600.05 38.527c-74.039 0.050781-147.34 14.738-215.68 43.223-68.344 28.48-130.38 70.195-182.54 122.74l335.34 29.363-383.45 26.078c-38.012 50.023-67.367 106.07-86.832 165.81l172.63 15.113-181.41 12.34c-13.059 47.918-19.699 97.355-19.758 147.02 0.19141 26.609 2.2773 53.176 6.2344 79.492 193.34-133.38 431.78-212.19 689.8-212.19 149.46 0 292.33 26.48 423.71 74.645-6.3086-59.32-22.027-117.26-46.562-171.64l-217.96-14.82 202.11-17.703c-31.496-59.398-73.406-112.66-123.73-157.25l-412.41-18.734 362.18-20.953c-94.172-66.359-206.47-102.16-321.67-102.54zm206.23 462.6c-289.97 0.003906-549.66 122-724.48 314.42 20.883 50.375 48.988 97.438 83.434 139.71 160.15-248.92 450.46-415.26 782.05-415.26 69.574 0 137.31 7.3594 202.43 21.23-106.56-38.781-222.35-60.102-343.43-60.102zm197.21 65.152c-337.59 0-622.7 211.44-714.34 501.36 48.941 32.449 102.67 57.027 159.22 72.832 46.141-315.54 333.53-558.58 681.22-558.58 10.562 0 21.047 0.26953 31.492 0.72266l0.003906-0.003907v-0.52734c-50.809-10.309-103.51-15.809-157.59-15.809zm158.16 35.523c-305.05 5.1641-550.66 239.64-550.66 528.2 0 10.574 0.36719 21.062 1.0195 31.48l-0.003906-0.007813c68.008-1.4648 135.19-15.27 198.26-40.746-4.6211-24.949-7.0391-50.602-7.0391-76.797 0-208.3 152.38-382.98 357.85-430.83l-0.003907-0.003906c0.22656-3.7617 0.41797-7.5273 0.56641-11.293zm-1.9141 38.152c-141.03 53.621-240.59 183.64-240.59 335.69 0 27.27 3.3008 53.797 9.3672 79.344v-0.003906c66.523-48.082 121.7-110.16 161.65-181.86 39.949-71.707 63.699-151.3 69.574-233.17z"
     id="path2"
     style="fill:#e6e6e6" />
</svg>
