<?xml version="1.0" encoding="UTF-8" standalone="no"?>
<svg
   width="1200pt"
   height="1200pt"
   version="1.1"
   viewBox="0 0 1200 1200"
   id="svg32"
   sodipodi:docname="laine.svg"
   inkscape:version="1.2.2 (b0a8486541, 2022-12-01)"
   xmlns:inkscape="http://www.inkscape.org/namespaces/inkscape"
   xmlns:sodipodi="http://sodipodi.sourceforge.net/DTD/sodipodi-0.dtd"
   xmlns="http://www.w3.org/2000/svg"
   xmlns:svg="http://www.w3.org/2000/svg">
  <defs
     id="defs36" />
  <sodipodi:namedview
     id="namedview34"
     pagecolor="#ffffff"
     bordercolor="#000000"
     borderopacity="0.25"
     inkscape:showpageshadow="2"
     inkscape:pageopacity="0.0"
     inkscape:pagecheckerboard="0"
     inkscape:deskcolor="#d1d1d1"
     inkscape:document-units="pt"
     showgrid="false"
     inkscape:zoom="0.47375"
     inkscape:cx="800"
     inkscape:cy="805.27704"
     inkscape:window-width="1920"
     inkscape:window-height="1024"
     inkscape:window-x="0"
     inkscape:window-y="0"
     inkscape:window-maximized="1"
     inkscape:current-layer="svg32" />
  <g
     id="g30"
     style="fill:#008000"
     transform="matrix(1.6458917,0,0,1.6458917,-387.53774,-387.53934)">
    <path
       d="m 440.81,660.68 v 40.855 H 759.17 V 660.68 Z"
       id="path2"
       style="fill:#008000" />
    <path
       d="m 769.04,878.18 c 0.93359,-0.90234 1.8594,-1.8125 2.7812,-2.7305 21.84,-22.07 33.324,-52.352 31.605,-83.355 -1.719,-31.003 -16.477,-59.832 -40.621,-79.355 h -13.461 c -11.137,24.121 -16.773,50.41 -16.508,76.973 0.10547,9.2305 1.7422,18.375 4.8359,27.066 7.7031,21.762 18.25,42.41 31.367,61.406 z"
       id="path4"
       style="fill:#008000" />
    <path
       d="m 712.61,918.79 c 17.305,-9.0195 33.465,-20.086 48.133,-32.957 -14.109,-20.156 -25.43,-42.129 -33.652,-65.316 -3.4922,-9.8633 -5.332,-20.234 -5.4414,-30.695 -0.26562,-26.488 4.9961,-52.742 15.449,-77.086 h -78.859 c -11.137,24.121 -16.773,50.41 -16.508,76.973 0.0859,9.2266 1.7031,18.371 4.7773,27.066 13.719,38.719 36.352,73.664 66.07,102.02 z"
       id="path6"
       style="fill:#008000" />
    <path
       d="m 701.9,924.03 c -29.539,-29.055 -52.074,-64.453 -65.906,-103.51 -3.4922,-9.8633 -5.332,-20.234 -5.4414,-30.695 -0.26562,-26.488 4.9961,-52.742 15.449,-77.086 h -83.137 c -11.133,24.121 -16.773,50.41 -16.508,76.973 0.0898,9.2266 1.7031,18.371 4.7773,27.066 17.871,50.426 50.754,94.164 94.227,125.34 19.516,-3.6992 38.508,-9.7734 56.551,-18.086 z"
       id="path8"
       style="fill:#008000" />
    <path
       d="m 460.71,816.78 c -3.0742,-8.6953 -4.6914,-17.84 -4.7773,-27.066 -0.26563,-26.562 5.3711,-52.852 16.508,-76.973 h 78.141 c -10.438,24.348 -15.688,50.602 -15.406,77.086 0.10547,10.461 1.9453,20.832 5.4414,30.695 17.348,48.992 48.32,92.012 89.273,124.01 -24.934,3.082 -50.191,2.2852 -74.883,-2.3555 -43.5,-31.184 -76.398,-74.945 -94.27,-125.39 z"
       id="path10"
       style="fill:#008000" />
    <path
       d="M 528.73,935.71 C 490.816,924.105 456.304,903.417 428.2,875.448 406.352,853.382 394.86,823.104 396.571,792.1 c 1.7109,-31.004 16.461,-59.836 40.602,-79.363 h 22.984 c -10.453,24.344 -15.715,50.598 -15.449,77.086 0.10547,10.461 1.9453,20.832 5.4414,30.695 15.777,44.547 42.848,84.238 78.566,115.19 z"
       id="path12"
       style="fill:#008000" />
    <path
       d="m 440.81,605.6 v 43.887 H 759.17 V 605.6 Z"
       id="path14"
       style="fill:#008000" />
    <path
       d="M 440.81,594.4 H 759.17 V 550.513 H 440.81 Z"
       id="path16"
       style="fill:#008000" />
    <path
       d="m 771.83,324.55 c -0.92188,-0.91797 -1.8477,-1.8281 -2.7812,-2.7305 -13.117,18.996 -23.664,39.641 -31.367,61.402 -3.0938,8.6953 -4.7266,17.84 -4.8359,27.066 -0.26562,26.562 5.3711,52.855 16.508,76.973 h 13.461 c 24.145,-19.52 38.906,-48.348 40.621,-79.352 1.7188,-31.004 -9.7617,-61.285 -31.605,-83.355 z"
       id="path18"
       style="fill:#008000" />
    <path
       d="m 712.61,281.21 c 17.305,9.0156 33.465,20.082 48.133,32.957 -14.109,20.156 -25.43,42.125 -33.652,65.316 -3.4922,9.8594 -5.332,20.23 -5.4414,30.691 -0.26562,26.488 4.9961,52.742 15.449,77.086 h -78.859 c -11.137,-24.117 -16.773,-50.41 -16.508,-76.973 0.0859,-9.2227 1.7031,-18.371 4.7773,-27.066 13.719,-38.715 36.352,-73.66 66.07,-102.01 z"
       id="path20"
       style="fill:#008000" />
    <path
       d="m 645.35,257.88 c 19.516,3.7031 38.508,9.7734 56.551,18.086 -29.539,29.059 -52.074,64.457 -65.906,103.52 -3.4922,9.8594 -5.332,20.23 -5.4414,30.691 -0.26562,26.488 4.9961,52.742 15.449,77.086 h -83.137 c -11.133,-24.117 -16.773,-50.41 -16.508,-76.973 0.0898,-9.2227 1.7031,-18.371 4.7773,-27.066 17.871,-50.422 50.754,-94.164 94.227,-125.34 z"
       id="path22"
       style="fill:#008000" />
    <path
       d="m 629.86,255.47 c -40.953,32 -71.922,75.023 -89.273,124.02 -3.4961,9.8594 -5.332,20.23 -5.4414,30.691 -0.27734,26.488 4.9688,52.742 15.406,77.086 h -78.141 c -11.137,-24.117 -16.773,-50.41 -16.508,-76.973 0.0898,-9.2227 1.7031,-18.371 4.7773,-27.066 17.871,-50.449 50.77,-94.211 94.27,-125.39 24.688,-4.6445 49.949,-5.4375 74.879,-2.3555 z"
       id="path24"
       style="fill:#008000" />
    <path
       d="m 428.2,324.55 c -21.848,22.062 -33.34,52.34 -31.629,83.344 1.7109,31.004 16.461,59.836 40.602,79.363 h 22.984 c -10.453,-24.344 -15.715,-50.598 -15.449,-77.086 0.10547,-10.461 1.9453,-20.832 5.4414,-30.691 15.777,-44.551 42.848,-84.242 78.566,-115.2 -37.918,11.609 -72.426,32.293 -100.54,60.266 z"
       id="path26"
       style="fill:#008000" />
    <path
       d="M 759.17,539.32 H 440.81 v -40.855 h 318.36 z"
       id="path28"
       style="fill:#008000" />
  </g>
</svg>
