<?xml version="1.0" encoding="UTF-8" standalone="no"?>
<svg
   width="1200pt"
   height="1200pt"
   version="1.1"
   viewBox="0 0 1200 1200"
   id="svg10"
   sodipodi:docname="noun-molecule-4406927.svg"
   inkscape:version="1.2.2 (b0a8486541, 2022-12-01)"
   xmlns:inkscape="http://www.inkscape.org/namespaces/inkscape"
   xmlns:sodipodi="http://sodipodi.sourceforge.net/DTD/sodipodi-0.dtd"
   xmlns="http://www.w3.org/2000/svg"
   xmlns:svg="http://www.w3.org/2000/svg">
  <defs
     id="defs14" />
  <sodipodi:namedview
     id="namedview12"
     pagecolor="#ffffff"
     bordercolor="#000000"
     borderopacity="0.25"
     inkscape:showpageshadow="2"
     inkscape:pageopacity="0.0"
     inkscape:pagecheckerboard="0"
     inkscape:deskcolor="#d1d1d1"
     inkscape:document-units="pt"
     showgrid="false"
     inkscape:zoom="0.47375"
     inkscape:cx="800"
     inkscape:cy="803.16623"
     inkscape:window-width="1920"
     inkscape:window-height="1024"
     inkscape:window-x="0"
     inkscape:window-y="0"
     inkscape:window-maximized="1"
     inkscape:current-layer="svg10" />
  <g
     id="g8"
     style="fill:#e6e6e6">
    <path
       d="m1e3 850c-10 0-22.5 2.5-32.5 5l-65-130 117.5-187.5c5-7.5 5-17.5 0-27.5l-120-190 42.5-120h7.5c55 0 100-45 100-100s-45-100-100-100-100 45-100 100c0 35 17.5 65 45 85l-37.5 115h-182.5c-7.5 0-17.5 5-20 12.5l-120 187.5h-172.5l-87.5-132.5c15-17.5 25-40 25-67.5 0-55-45-100-100-100s-100 45-100 100 45 100 100 100c12.5 0 22.5-2.5 32.5-5l87.5 132.5-117.5 187.5c-5 7.5-5 17.5 0 27.5l115 185-62.5 82.5c-7.5-7.5-17.5-10-30-10-55 0-100 45-100 100s45 100 100 100 100-45 100-100c0-25-10-47.5-25-65l62.5-85h187.5c7.5 0 17.5-5 20-12.5l117.5-187.5h170l67.5 132.5c-15 17.5-25 42.5-25 67.5 0 55 45 100 100 100s100-45 100-100-45-100-100-100zm-50-800c27.5 0 50 22.5 50 50s-22.5 50-50 50-50-22.5-50-50 22.5-50 50-50zm-260 300h172.5l110 175-110 175h-172.5l-110-175zm-540-50c0-27.5 22.5-50 50-50s50 22.5 50 50-22.5 50-50 50-50-22.5-50-50zm75 850c-27.5 0-50-22.5-50-50s22.5-50 50-50 50 22.5 50 50-22.5 50-50 50zm310-250h-172.5l-110-175 110-175h172.5l110 175zm465 100c-27.5 0-50-22.5-50-50s22.5-50 50-50 50 22.5 50 50-22.5 50-50 50z"
       id="path2"
       style="fill:#e6e6e6" />
    <path
       d="m525 600h-150c-15 0-25 10-25 25s10 25 25 25h150c15 0 25-10 25-25s-10-25-25-25z"
       id="path4"
       style="fill:#e6e6e6" />
    <path
       d="m812.5 672.5c2.5 2.5 7.5 2.5 12.5 2.5 7.5 0 17.5-5 22.5-12.5l75-125c7.5-12.5 2.5-27.5-7.5-35-12.5-7.5-27.5-2.5-35 7.5l-75 125c-7.5 15-5 30 7.5 37.5z"
       id="path6"
       style="fill:#e6e6e6" />
  </g>
</svg>
