<?xml version="1.0" encoding="UTF-8"?>
<svg width="1200pt" height="1200pt" version="1.1" viewBox="0 0 1200 1200" xmlns="http://www.w3.org/2000/svg">
 <g>
  <path d="m462.38 702.57c-1.7969 6.2188 1.7852 12.715 8.0039 14.512 6.2188 1.8008 12.719-1.7852 14.516-8.0039 48.086-166.32-20.609-314.04-23.559-320.24-1.3281-2.8164-3.7227-4.9883-6.6562-6.0391-2.9297-1.0469-6.1602-0.88672-8.9727 0.44922s-4.9766 3.7383-6.0195 6.6719c-1.0391 2.9375-0.86719 6.1641 0.47656 8.9727 0.69531 1.4375 67.859 145.81 22.211 303.68z"/>
  <path d="m530.98 736.82c-0.87109 3.0078-0.5 6.2422 1.0312 8.9766 1.5273 2.7344 4.0898 4.7422 7.1133 5.5742 3.0195 0.83594 6.25 0.42188 8.9648-1.1445 2.7148-1.5625 4.6875-4.1523 5.4844-7.1836 13.246-48.078 0.67578-105.14 0.13672-107.55h-0.003907c-1.418-6.3125-7.6875-10.281-14-8.8633-6.3164 1.418-10.285 7.6875-8.8672 14 0.12109 0.53516 11.801 53.844 0.14062 96.188z"/>
  <path d="m726.36 717.55c3.6875 0.003906 7.1562-1.7266 9.375-4.6719 2.2148-2.9453 2.9141-6.7617 1.8906-10.301-45.5-157.36 21.387-301.93 22.211-303.68 1.3711-2.8125 1.5586-6.0547 0.52344-9.0039-1.0352-2.9531-3.207-5.3672-6.0312-6.7109-2.8281-1.3398-6.0703-1.4961-9.0117-0.43359s-5.3359 3.2578-6.6523 6.0977c-2.9492 6.207-71.645 153.93-23.559 320.24 1.4492 5.0117 6.0391 8.4648 11.254 8.4648z"/>
  <path d="m657.72 751.66c3.6562 0.003906 7.1094-1.7031 9.3242-4.6133 2.2188-2.9141 2.9492-6.6914 1.9766-10.219-11.629-42.219-0.050781-95.34 0.13672-96.18 0.69922-3.0391 0.16016-6.2305-1.5-8.8672-1.6602-2.6406-4.3047-4.5078-7.3477-5.1953-3.043-0.68359-6.2305-0.125-8.8633 1.5469-2.6289 1.6719-4.4844 4.3281-5.1523 7.3711-0.54297 2.4062-13.109 59.469 0.13672 107.55h-0.003907c1.4023 5.082 6.0195 8.6055 11.293 8.6094z"/>
  <path d="m512.73 842.02c5.293 5.7344 10.289 11.738 14.969 17.984 1.9766 2.7969 3.7891 5.7109 5.418 8.7227 8.5625 14.988 21.488 37.625 62.395 37.668 1.1445 0.03125 2.2695 0.046874 3.375 0.046874 43.918 0 58.727-23.504 68.605-39.195 1.7031-2.707 3.3125-5.2656 4.8125-7.2461l0.003907 0.003906c4.6797-6.2461 9.6758-12.246 14.969-17.98 22.695-24.332 13.672-51.051 5.7266-61.781-1.832-2.543-4.6055-4.2461-7.7031-4.7266-3.0977-0.48438-6.2578 0.29688-8.7773 2.1602-2.5156 1.8633-4.1836 4.6602-4.6289 7.7617-0.44141 3.1016 0.375 6.2539 2.2734 8.7461 1.8477 2.9336 3.1055 6.1953 3.7031 9.6094 1.3867 7.9062-1.1445 15.184-7.7344 22.246v0.003906c-5.8398 6.3164-11.352 12.93-16.512 19.812-2.1094 2.7891-3.9844 5.7617-5.9688 8.9062-9.0195 14.324-18.32 29.129-51.66 28.203h-0.35938c-27.395 0-34.246-11.984-42.172-25.859v0.003906c-2.1172-3.8984-4.4844-7.6562-7.0859-11.25-5.1602-6.8867-10.672-13.5-16.512-19.816-14.344-15.375-5.8047-29.312-4.0273-31.848 1.8945-2.4961 2.7109-5.6445 2.2695-8.75-0.44141-3.1016-2.1094-5.8945-4.6289-7.7617-2.5195-1.8633-5.6797-2.6406-8.7773-2.1602-3.0938 0.48438-5.8711 2.1875-7.7031 4.7266-7.9375 10.723-16.965 37.441 5.7305 61.77z"/>
  <path d="m29.984 649.78c3.6367-0.027344 7.2656-0.38281 10.84-1.0586 8.4492-1.5977 16.582-4.5391 24.098-8.7109 17.32-9.1055 37.156-12.266 56.445-8.9883 39.09 6.0273 86.324-0.53516 126.34-17.578 45.938-19.555 78.895-50.953 92.793-88.414h0.003906c3.4648-8.7695 9.7812-16.117 17.93-20.859-0.21875 16.965 2.9414 33.805 9.2891 49.543 6.6719 15.801 10.246 32.738 10.523 49.891-0.003906 18.133-1.5234 36.234-4.543 54.113-9.1289 56.109 9.8672 203.41 74.785 240.36 1.625 2.0938 3.332 4.168 5.1797 6.2148 0.35156 0.44922 16.531 21.562 20.359 64.453 2.543 28.523 48.543 78.898 108.28 78.895 1.4688 0 2.9531-0.03125 4.4375-0.089844 8.4258-0.35547 16.949-0.35156 25.312 0 61.473 2.5781 111.36-50.293 113.91-78.801 3.8242-42.891 20.008-64.016 20.359-64.453 1.8477-2.043 3.5547-4.1172 5.1797-6.2148 64.922-36.945 83.906-184.25 74.785-240.36-2.7422-16.375-4.2617-32.93-4.5391-49.527 0.074219-17.562 4.6445-34.812 13.273-50.105 7.6758-14.219 8.582-34.555 7.25-52.656 7.8242 4.3594 13.902 11.281 17.215 19.598 13.902 37.461 46.855 68.863 92.793 88.414 40.016 17.035 87.246 23.598 126.33 17.578v0.003906c19.293-3.2773 39.129-0.12109 56.449 8.9883 7.5156 4.1719 15.656 7.1133 24.105 8.707 3.5742 0.67969 7.2031 1.0352 10.84 1.0625 9.2852 0 16.477-2.7148 21.461-8.125 7.8711-8.5391 6.2344-19.688 5.5234-22.984-15.59-100.95-63.75-189.2-139.31-255.22-64.453-56.336-149.24-96.414-238.71-112.86-6.4883-1.5664-12.773-3.8828-18.727-6.9062-7.8555-9.293-16.352-18.023-25.422-26.129-33.289-29.754-90.957-65.215-176.57-65.215h-0.32031c-82.355 2.2344-139.11 37.5-172.22 66.707h0.003907c-8.4492 7.4531-16.434 15.418-23.906 23.848-6.6016 3.3633-13.574 5.9414-20.773 7.6875-89.469 16.449-174.25 56.531-238.72 112.86-75.559 66.027-123.72 154.29-139.31 255.22-0.70312 3.3008-2.3438 14.445 5.5234 22.984 4.9844 5.4102 12.176 8.125 21.461 8.125zm346.3-225.42c5.1562-3.0469 14.824-7.5625 22.66-4.3555 9.0234 3.6992 15.723 17.961 18.945 40.238-12.25 4.0195-25.691 6.0938-33.348-0.125-9.0703-7.3711-9.2773-25.629-8.2578-35.758zm326.34 542.32c-1.3516 15.211-39.332 59.582-89.57 57.469-9.0234-0.37891-18.203-0.37891-27.285 0-50.293 2.1719-86.992-41.797-88.387-57.465-0.37891-4.2344-0.87109-8.2773-1.4453-12.156 8.8438 14.836 16.887 22.082 29.348 26.484l0.003906-0.003907c19.797 7.3047 41.363 8.3555 61.777 3.0078 7.0195-1.8281 14.43-1.4922 21.258 0.96875 8.1406 2.7344 16.676 4.1133 25.262 4.0781 14.07-0.32031 27.984-3.0391 41.145-8.0391 12.453-4.4062 20.496-11.652 29.344-26.484-0.57422 3.8633-1.0703 7.9062-1.4492 12.141zm112.87-506.58c-7.6445 6.2344-21.094 4.1758-33.371 0.14844 3.2227-22.281 9.9219-36.543 18.945-40.238 7.8438-3.2227 17.543 1.3281 22.68 4.3672 1.0469 10.094 0.87891 28.273-8.2539 35.723zm250.41-56.824c53.477 54.652 93.828 126.97 108.01 219.38 0.066406 0.42187 0.15625 0.83984 0.26562 1.25 0.074219 0.625 0.074219 1.2539 0 1.875-0.73437 0.3125-3.6133 1.1914-10.781-0.10938v0.003907c-5.9844-1.1484-11.746-3.25-17.066-6.2188-21.84-11.574-46.879-15.645-71.262-11.586-34.953 5.3906-77.418-0.57812-113.59-15.969-39.953-17.008-68.363-43.645-80-75-7.3906-18.672-23.23-32.711-42.656-37.809-0.57812-3.125-1.1406-5.8789-1.6289-8.1172 6.0312-8.2539 9.543-19.359 10.258-32.695h0.003906c0.32422-6.668 0.035157-13.348-0.86719-19.961 1.8438-6.8281 2.9961-13.824 3.4375-20.883 18.391 13.473 32.828 32.457 40.738 42.871 2.1562 3 4.4766 5.8828 6.9453 8.6328 4.5156 4.6367 11.938 4.7383 16.574 0.22266 4.6367-4.5156 4.7383-11.934 0.22266-16.574-0.79297-0.8125-3.0664-3.8086-5.0742-6.4531-10.23-13.477-30.234-39.789-57.316-55.277 57.793 19.895 94.945 26.199 96.711 26.484v0.003906c6.3867 1.0586 12.422-3.2578 13.484-9.6406 1.0586-6.3867-3.2578-12.422-9.6406-13.484-0.46875-0.074219-45.469-7.7148-112.69-32.594-0.46875-2.543-0.89453-5.1211-1.2734-7.7344 117.1-4.0703 221.04 65.199 227.2 69.387zm-90.703-70.359c-39.793-13.84-87.945-24.492-139.05-22.367-1.6523-9.3945-4.5859-18.516-8.7266-27.109-0.19141-0.39453-1.6562-3.3867-4.5078-8.2031h0.003906c53.578 10.746 105.02 30.23 152.28 57.68zm-589.01-11.562v-0.003906c0.71484-9.5742 3.2422-18.93 7.4492-27.562 1.2734-2.3438 16.641-30.066 48.309-57.781 43.754-38.301 96.398-58.562 156.46-60.223 62.359 0.03125 116.21 19.746 160.06 58.594 32.996 29.227 47.695 58.969 47.797 59.172 4.2734 8.6992 6.8398 18.137 7.5625 27.801 1.3242 21.746 6.7344 42.422 11.309 58.027v0.003906c1.707 6.5977 2.1211 13.461 1.2227 20.215-9.3242-3.7773-21.723-6.3281-34.027-1.3398-17.316 7.0117-28.48 26.27-33.207 57.266l-1.4336 7.1836-0.003906 0.003906c-0.69531 2.9805-1.6133 5.9023-2.7539 8.7461-2.6797 6.543-5.8594 10.953-7.6875 11.27-3.3164 0.22266-6.3242 2.0352-8.0742 4.8633-4.8789 9.8438 1.9102 18.402 10.078 18.402 0.67578 0 1.3516-0.058593 2.0195-0.17578 12.129-2.1094 19.734-12.727 24.344-23.055 15.969 5.1016 29.57 6.0273 40.691 2.793 6.4023 35.008 1.1055 55.863-1.8867 61.406l-0.003906 0.003907c-10.531 18.781-16.074 39.953-16.09 61.488 0.28906 17.777 1.9102 35.508 4.8398 53.043 4.7227 29.023 0.77344 78.406-9.6094 120.09-4.7578 20.215-11.91 39.789-21.305 58.309 1.1719-33.863-12.891-65.965-25.102-83.797v-0.003906c-3.4336-5.168-10.234-6.8789-15.703-3.9531-2.8594 1.6211-4.9062 4.3633-5.6406 7.5664-0.73828 3.1992-0.097656 6.5625 1.7617 9.2695 8.3516 13.074 14.547 27.406 18.348 42.449 7.543 30.727 1.7109 56.832-17.344 77.59-27.148 29.594-38.691 43.359-44.113 52.648-7.5625 12.93-12.043 15.309-17.551 17.258-20.816 7.3672-37.059 8.5938-51.109 3.8594v-0.003906c-11.305-3.9766-23.555-4.4336-35.125-1.3047-15.746 4.0352-32.352 3.1445-47.578-2.5508-5.5039-1.9492-9.9883-4.3281-17.547-17.254-5.4258-9.2812-16.969-23.059-44.117-52.648-19.047-20.758-24.879-46.875-17.344-77.59v-0.003906c3.8008-15.035 9.9922-29.363 18.336-42.434 1.8711-2.7031 2.5195-6.0664 1.7891-9.2695s-2.7734-5.957-5.6289-7.582c-5.4727-2.9414-12.285-1.2344-15.723 3.9375-12.207 17.832-26.277 49.941-25.113 83.816-9.3984-18.52-16.551-38.094-21.309-58.309-10.379-41.684-14.328-91.066-9.6094-120.09 3.2344-19.184 4.8555-38.602 4.8477-58.051-0.29688-20.148-4.4648-40.051-12.281-58.625-9.332-22.707-8.1562-45.367-5.9102-59.316 11.156 3.3008 24.828 2.3945 40.898-2.7383 4.6094 10.328 12.215 20.945 24.344 23.055l-0.003906-0.003906c0.66797 0.11719 1.3438 0.17578 2.0234 0.17578 8.6172 0 15.703-9.5352 9.1406-20.062-1.5859-2.2031-4.2109-3.4141-6.9141-3.1875-2.0195 0-5.3555-4.9219-8.082-11.781-1.0703-2.7539-1.9531-5.582-2.6328-8.457l-1.4336-7.2109c-4.7422-30.863-15.898-50.043-33.172-57.035-12.301-4.9766-24.695-2.4414-34.016 1.3359-0.90234-6.7539-0.49219-13.617 1.2109-20.215 4.5938-15.594 10-36.281 11.332-58.027zm-8.7734-46.172c-2.9336 4.6875-4.4531 7.5742-4.6562 7.9531-0.066406 0.125-0.13281 0.25391-0.19141 0.38281h0.003906c-4.125 8.5703-7.0469 17.668-8.6875 27.039-51.113-2.125-99.277 8.5352-139.07 22.375 47.344-27.508 98.902-47.02 152.6-57.758zm-351.54 348.61c0.11719-0.37109 0.19531-0.75391 0.23438-1.1445 14.18-92.406 54.535-164.73 108.02-219.38 6.1602-4.1992 109.94-73.477 227.19-69.375-0.37891 2.6055-0.80078 5.1836-1.2734 7.7344-66.828 24.73-111.95 32.473-112.69 32.594l0.003906 0.003907c-6.3867 1.0586-10.703 7.0938-9.6406 13.48 1.0586 6.3867 7.0977 10.703 13.48 9.6406 1.7656-0.29687 38.922-6.6016 96.711-26.484-27.086 15.488-47.086 41.801-57.316 55.277-2.0078 2.6445-4.2812 5.6406-5.0742 6.4531h0.003907c-4.5156 4.6367-4.418 12.059 0.22266 16.574 4.6367 4.5117 12.059 4.4141 16.57-0.22266 2.4727-2.75 4.7891-5.6328 6.9492-8.6328 7.9062-10.414 22.348-29.398 40.738-42.871h-0.003907c0.44531 7.0586 1.5977 14.055 3.4414 20.883-0.90234 6.6094-1.1953 13.293-0.86719 19.957 0.70312 13.164 4.1484 24.141 10.039 32.355-0.50781 2.0312-1.0625 4.5195-1.5977 7.332-19.48 5.5898-35.207 20.008-42.461 38.934-24.992 67.355-122.07 102-193.59 90.973-24.379-4.0547-49.414 0.015625-71.25 11.586-5.3203 2.9727-11.082 5.0703-17.062 6.2188-7.1641 1.3008-10.043 0.41797-10.781 0.10938v-0.003907c-0.10547-0.66016-0.097657-1.3359 0.015625-1.9961z"/>
 </g>
</svg>
