<?xml version="1.0" encoding="UTF-8" standalone="no"?>
<svg
   width="1200pt"
   height="1200pt"
   version="1.1"
   viewBox="0 0 1200 1200"
   id="svg16"
   sodipodi:docname="noun-farm-1870544.svg"
   inkscape:version="1.2.2 (b0a8486541, 2022-12-01)"
   xmlns:inkscape="http://www.inkscape.org/namespaces/inkscape"
   xmlns:sodipodi="http://sodipodi.sourceforge.net/DTD/sodipodi-0.dtd"
   xmlns="http://www.w3.org/2000/svg"
   xmlns:svg="http://www.w3.org/2000/svg">
  <defs
     id="defs20" />
  <sodipodi:namedview
     id="namedview18"
     pagecolor="#ffffff"
     bordercolor="#000000"
     borderopacity="0.25"
     inkscape:showpageshadow="2"
     inkscape:pageopacity="0.0"
     inkscape:pagecheckerboard="0"
     inkscape:deskcolor="#d1d1d1"
     inkscape:document-units="pt"
     showgrid="false"
     inkscape:zoom="0.47375"
     inkscape:cx="800"
     inkscape:cy="803.16623"
     inkscape:window-width="1920"
     inkscape:window-height="1024"
     inkscape:window-x="0"
     inkscape:window-y="0"
     inkscape:window-maximized="1"
     inkscape:current-layer="svg16" />
  <g
     id="g14"
     style="fill:#e6e6e6">
    <path
       d="m375 360-16.875 67.5 33.75 58.125c1.875 3.75 1.875 5.625 1.875 9.375v86.25h37.5v-86.25c0-5.625 3.75-11.25 7.5-15l56.25-37.5c5.625-3.75 11.25-3.75 16.875-1.875l103.12 45 86.25-50.625c7.5-5.625 18.75-3.75 24.375 3.75l37.5 45c3.75 5.625 5.625 11.25 3.75 18.75l-28.125 78.75h35.625l50.625-116.25v-105l-7.5 3.75c-30 20.625-69.375 15-93.75-9.375l-5.625-5.625c-7.5-7.5-7.5-18.75 0-26.25s18.75-7.5 26.25 0l5.625 5.625c13.125 13.125 31.875 15 46.875 3.75l7.5-5.625-28.125-45h-270v15c0 31.875-24.375 56.25-56.25 56.25s-56.25-24.375-56.25-56.25v-33.75c0-11.25 7.5-18.75 18.75-18.75h39.375l-13.125-18.75h-91.875l-56.25 84.375 73.125 28.125c7.5 5.625 13.125 15 11.25 22.5z"
       id="path2"
       style="fill:#e6e6e6" />
    <path
       d="m523.12 125.62c15 43.125 39.375 43.125 58.125 43.125h37.5c31.875 0 56.25-24.375 56.25-56.25v-28.125l-67.5 28.125c-5.625 1.875-11.25 1.875-15 0l-50.625-26.25c-7.5-3.75-15-1.875-22.5 3.75l-18.75 18.75 15 7.5c3.75 0 7.5 3.75 7.5 9.375z"
       id="path4"
       style="fill:#e6e6e6" />
    <path
       d="m431.25 296.25c0 11.25 7.5 18.75 18.75 18.75s18.75-7.5 18.75-18.75v-15h-37.5z"
       id="path6"
       style="fill:#e6e6e6" />
    <path
       d="m918.75 804.38c-30 0-58.125-11.25-78.75-33.75l-9.375-9.375c-7.5-7.5-7.5-18.75 0-26.25s18.75-7.5 26.25 0l9.375 9.375c28.125 28.125 75 28.125 103.12 1.875l-80.625-127.5h-532.5v18.75c0 31.875-24.375 56.25-56.25 56.25h-18.75c-31.875 0-56.25-24.375-56.25-56.25v-37.5c0-11.25 7.5-18.75 18.75-18.75h39.375l-13.125-18.75h-93.75l-82.5 97.5 15 52.5h78.75c9.375 0 16.875 5.625 18.75 15l37.5 183.75 90 108.75c3.75 3.75 3.75 7.5 3.75 11.25v93.75h37.5v-93.75c0-3.75 1.875-7.5 3.75-11.25l56.25-75c3.75-5.625 13.125-9.375 18.75-7.5l146.25 37.5 163.12-54.375c5.625-1.875 13.125 0 16.875 3.75l93.75 75c5.625 5.625 7.5 13.125 5.625 20.625l-30 105h56.25l50.625-116.25 15-215.62c-15 7.5-33.75 11.25-52.5 11.25z"
       id="path8"
       style="fill:#e6e6e6" />
    <path
       d="m262.5 637.5c0 11.25 7.5 18.75 18.75 18.75h18.75c11.25 0 18.75-7.5 18.75-18.75v-18.75h-56.25z"
       id="path10"
       style="fill:#e6e6e6" />
    <path
       d="m581.25 206.25v37.5c0 11.25 7.5 18.75 18.75 18.75s18.75-7.5 18.75-18.75v-37.5c0-11.25-7.5-18.75-18.75-18.75s-18.75 7.5-18.75 18.75z"
       id="path12"
       style="fill:#e6e6e6" />
  </g>
</svg>
