<?xml version="1.0" encoding="UTF-8" standalone="no"?>
<svg
   width="1200pt"
   height="1200pt"
   version="1.1"
   viewBox="0 0 1200 1200"
   id="svg4"
   sodipodi:docname="roles.svg"
   inkscape:version="1.2.2 (b0a8486541, 2022-12-01)"
   xmlns:inkscape="http://www.inkscape.org/namespaces/inkscape"
   xmlns:sodipodi="http://sodipodi.sourceforge.net/DTD/sodipodi-0.dtd"
   xmlns="http://www.w3.org/2000/svg"
   xmlns:svg="http://www.w3.org/2000/svg">
  <defs
     id="defs8" />
  <sodipodi:namedview
     id="namedview6"
     pagecolor="#ffffff"
     bordercolor="#666666"
     borderopacity="1.0"
     inkscape:showpageshadow="2"
     inkscape:pageopacity="0.0"
     inkscape:pagecheckerboard="0"
     inkscape:deskcolor="#d1d1d1"
     inkscape:document-units="pt"
     showgrid="false"
     inkscape:zoom="0.53125"
     inkscape:cx="1107.7647"
     inkscape:cy="891.29412"
     inkscape:window-width="1920"
     inkscape:window-height="1016"
     inkscape:window-x="0"
     inkscape:window-y="27"
     inkscape:window-maximized="1"
     inkscape:current-layer="svg4" />
  <path
     d="m 930.1997,748.91696 c -0.6252,30.6025 -26.65646,57.45902 -46.36182,84.34175 -8.9197,12.98357 -12.8703,28.7371 -11.13487,44.39432 54.2677,16.34709 112.45383,26.33912 164.54709,38.00201 114.2585,25.51956 118.6627,170.65926 118.8517,267.32346 -386.49112,0 -730.45879,-5.2657 -1112.20356,-5.2657 0.194018,-96.6669 4.591892,-241.8121 118.85166,-267.32338 43.25189,-9.67966 90.70094,-18.21662 136.62125,-30.18168 15.94282,-25.90726 25.94037,-50.72177 10.2241,-74.29591 -37.40872,-56.1055 -27.80991,-81.69542 4.0153,-118.06383 h -0.006 c -20.10824,-30.60249 -29.89607,-66.83155 -27.93961,-103.3945 -8.04661,12.20748 -19.41837,21.86051 -32.7742,27.81544 -13.35541,5.95548 -28.13967,7.96038 -42.59928,5.78302 -9.10845,-1.09409 52.26846,-15.52753 49.76148,-60.08879 -2.96422,-52.37056 -35.39293,-91.43497 -25.69202,-131.75355 2.18812,-21.91984 15.01012,-47.88643 38.78294,-91.21835 51.64344,-94.19443 3.02893,-57.72255 94.19443,-206.61515 C 458.48261,-20.483374 686.36084,9.8859485 728.89804,49.397389 899.01923,31.175243 889.92678,283.33127 935.4718,350.16558 h 0.006 c 7.24898,11.74926 12.70859,24.50684 16.20083,37.86128 55.78267,55.61983 1.37974,101.37871 -2.48462,169.94182 -2.51691,44.56127 58.84849,58.99467 49.75185,60.0888 -45.56298,9.55576 -82.50397,-40.58902 -83.62984,-39.19824 -5.36799,19.77986 0.64136,38.82157 42.26539,80.35846 64.53019,64.41701 1.75157,106.49338 -7.78791,177.66833 -5.97162,44.24255 54.1063,63.36566 44.95456,63.78096 -48.40941,2.04808 -86.2017,-35.73235 -78.46139,-79.21052 6.58602,-37.06379 16.31397,-56.86022 13.90495,-72.54365 z m -164.03657,419.96334 81.76579,-74.398 -101.49598,-67.5214 124.30575,-58.03019 -108.9231,-168.67247 -44.08112,-19.72054 -3.31991,50.02639 -52.12773,338.32451 z m -227.87685,0 -52.6672,-342.49128 -2.40377,-52.25191 -56.90299,27.34081 c -20.83674,35.26462 -38.9554,68.89563 -61.24776,103.51178 l -35.39294,59.74385 124.38577,58.06745 -101.5015,67.5587 82.88061,78.5206 z m 164.93339,-319.75327 2.95346,-19.15484 3.9775,-119.89198 c -41.36442,30.71563 -81.59332,48.00508 -109.59778,48.00508 -28.00998,0 -68.24854,-17.28945 -109.61296,-47.99956 l 2.91579,115.71414 3.54095,23.04018 c 58.33101,68.22646 147.34178,66.13064 205.8149,0.28025 z M 861.08883,425.32797 c -1.11564,-15.31781 -4.14459,-30.43003 -9.01684,-44.99175 C 839.31483,341.8651 770.32276,263.32789 701.77758,195.67264 667.872,253.27653 595.1614,285.1401 525.73733,295.35841 c -85.00955,12.50922 -160.00774,12.50922 -112.51316,70.01598 47.50975,57.50731 20.0227,110.0393 -24.99664,142.54031 h 0.006 c -13.60335,10.40195 -22.70076,25.62166 -25.40642,42.52892 63.38635,119.58429 178.50997,197.99181 238.16966,197.99181 59.47343,0 174.12242,-77.97152 237.63157,-196.98461 1.20727,-4.29552 2.47925,-8.64486 3.76737,-13.032 29.33038,34.94038 72.81821,-22.81942 82.8544,-46.13968 17.03143,-39.7322 12.25052,-79.87418 -10.71447,-89.74203 -16.01733,-6.90405 -36.64849,2.79175 -53.44261,22.78768 z"
     fill-rule="evenodd"
     id="path2"
     style="fill:#e6e6e6;stroke-width:0.999999" />
</svg>
