<?xml version="1.0" encoding="UTF-8" standalone="no"?>
<svg
   width="1200pt"
   height="1200pt"
   version="1.1"
   viewBox="0 0 1200 1200"
   id="svg4"
   sodipodi:docname="troupeaux.svg"
   inkscape:version="1.2.2 (b0a8486541, 2022-12-01)"
   xmlns:inkscape="http://www.inkscape.org/namespaces/inkscape"
   xmlns:sodipodi="http://sodipodi.sourceforge.net/DTD/sodipodi-0.dtd"
   xmlns="http://www.w3.org/2000/svg"
   xmlns:svg="http://www.w3.org/2000/svg">
  <defs
     id="defs8" />
  <sodipodi:namedview
     id="namedview6"
     pagecolor="#ffffff"
     bordercolor="#666666"
     borderopacity="1.0"
     inkscape:showpageshadow="2"
     inkscape:pageopacity="0.0"
     inkscape:pagecheckerboard="0"
     inkscape:deskcolor="#d1d1d1"
     inkscape:document-units="pt"
     showgrid="false"
     inkscape:zoom="0.53125"
     inkscape:cx="750.11765"
     inkscape:cy="800.94118"
     inkscape:window-width="1674"
     inkscape:window-height="752"
     inkscape:window-x="50"
     inkscape:window-y="114"
     inkscape:window-maximized="0"
     inkscape:current-layer="svg4" />
  <path
     d="m645.41 336.67v-50.41c-6.9844 0-12.648-5.6641-12.648-12.648l0.003907-5.6523c0-20.387 8.9023-39.758 24.371-53.039 12.672-10.871 28.824-16.859 45.527-16.859h161.52c12.898 0 25.02-6.2383 32.52-16.738l19.559-27.406-12.602-18.91h53.52c14.258 0 28.031 5.1484 38.785 14.496l34.066 29.605c5.4492 4.7383 7.5352 12.289 5.293 19.152-2.4102 7.3789-9.3008 12.371-17.062 12.371h-32.676l-20.34 89.484c-6.5391 28.754-32.102 49.164-61.598 49.164l-23.039 44.578-6.1328 75.191h-18.562l-4.5352-76.559-17.062-43.211h-107.14l-59.027 43.535v76.211l-18.949 0.027344-16.535-113.47zm254.39 40.656 22.176 91.727h18.816l-21.012-112.15c-3.3594 0.76953-6.7812 1.3086-10.234 1.5859zm-169.5-18.59-31.789 23.449 17.102 86.879h19.008l-5.0391-76.246 47.508-34.078zm248.87 529.75 6.6016 35.184h154.23v53.062h-144.3l6.6016 35.184 137.7 0.003906v53.051h-1080v-53.051h523.61l-5.125-35.184-518.48-0.003907v-53.062h510.74l-5.125-35.184h-505.62v-53.051h20.305l-20.305-139.31 16.609-24.637v-65.688c-9.0977 0-16.477-7.3789-16.477-16.477v-7.3555c0-26.566 11.605-51.805 31.766-69.109 16.512-14.172 37.559-21.973 59.316-21.973h210.46c16.812 0 32.594-8.125 42.371-21.816l25.488-35.711-16.43-24.637h69.742c18.574 0 36.516 6.707 50.543 18.887l44.398 38.578c7.1055 6.1797 9.8164 16.008 6.8867 24.949-3.1562 9.6133-12.121 16.117-22.234 16.117h-42.574l-26.496 116.59c-8.5195 37.465-41.832 64.055-80.258 64.055l-30.023 58.094-7.2852 89.426h59.125l-26.832-110.96 12.684-24.551c4.5-0.37109 8.9531-1.0664 13.344-2.0742l25.789 137.59h111.85l6.9102-10.262 0.003906-72.41c-10.031 0-18.168-8.1367-18.168-18.168v-8.1133c0-29.293 12.793-57.109 35.004-76.188 18.203-15.625 41.398-24.215 65.387-24.215h232c18.539 0 35.93-8.9531 46.703-24.047l28.105-39.371-18.109-27.156h76.871c20.473 0 40.262 7.3906 55.715 20.82l48.938 42.527c7.8359 6.8047 10.824 17.641 7.5977 27.504-3.4688 10.598-13.367 17.773-24.516 17.773h-46.934l-29.207 128.53c-6.5039 28.598-26.113 51.422-51.602 62.773l153.54-0.003906v53.062zm-111.3 0h-144.18l-24.133 17.316 1.1875 17.879h174.88l-1.0938-18.336zm-163.62 88.246 2.3281 35.184h174.27l-2.0898-35.184zm-597.97-141.3h60.145l-20.605-104.65 41.41-30.539h60.949l-61.895 44.398 6 90.793h158.12l-5.3984-91.211-22.223-56.305h-139.6l-76.906 56.723zm505.08 88.246h50.113l-6.5273-33.156 2.7617-2.0391h-22.871l-23.473 17.316zm0 88.25h67.488l-6.9258-35.184h-60.562zm355.24-35.199h-55.738l-2.8672 35.184h67.117zm-21.352-88.246h-19.02l-9.7305 18.828-1.332 16.367h38.594z"
     id="path2"
     style="fill:#e6e6e6" />
</svg>
