<?xml version="1.0" encoding="UTF-8" standalone="no"?>
<svg
   width="1200pt"
   height="1200pt"
   version="1.1"
   viewBox="0 0 1200 1200"
   id="svg4"
   sodipodi:docname="typetest.svg"
   inkscape:version="1.2.2 (b0a8486541, 2022-12-01)"
   xmlns:inkscape="http://www.inkscape.org/namespaces/inkscape"
   xmlns:sodipodi="http://sodipodi.sourceforge.net/DTD/sodipodi-0.dtd"
   xmlns="http://www.w3.org/2000/svg"
   xmlns:svg="http://www.w3.org/2000/svg">
  <defs
     id="defs8" />
  <sodipodi:namedview
     id="namedview6"
     pagecolor="#ffffff"
     bordercolor="#666666"
     borderopacity="1.0"
     inkscape:showpageshadow="2"
     inkscape:pageopacity="0.0"
     inkscape:pagecheckerboard="0"
     inkscape:deskcolor="#d1d1d1"
     inkscape:document-units="pt"
     showgrid="false"
     inkscape:zoom="0.53125"
     inkscape:cx="750.11765"
     inkscape:cy="800.94118"
     inkscape:window-width="1674"
     inkscape:window-height="752"
     inkscape:window-x="50"
     inkscape:window-y="114"
     inkscape:window-maximized="0"
     inkscape:current-layer="svg4" />
  <path
     d="m439.5 157.17h116c8.332 0 15.168 6.668 15.168 15.168v111c0 8.332-6.668 15.168-15.168 15.168h-116c-8.332 0-15.168-6.668-15.168-15.168v-110.83c0-8.5 6.8359-15.332 15.168-15.332zm126 366.33c3.332 3.332 5 6.668 5 11.832v110.83c0 8.332-6.668 15.168-15.168 15.168h-105.83c-3.332 16.832-5 37-3.332 57.168v1.668h159.67c13.5 0 23.5-11.832 23.5-23.5l-0.003907-186.5h-6.668c-20.164 1.6641-38.664 6.6641-57.164 13.332zm-105.83 107.67h80.668v-82.332h-18.5c-28.504 21.832-48.668 50.332-62.168 82.332zm-262.17 324.16 60.5-50.332c43.668-35.332 100.83 28.5 55.5 67.168l-90.668 77.332c-18.5 15.168-43.668 15.168-60.5-3.332-13.5-13.5-26.832-28.5-40.332-42-43.668-45.332 20.168-105.83 65.5-62.168zm77.332-28.5-68.832 58.832c-6.668 5-15.168 3.332-20.168-1.668l-20.168-21.832c-13.5-15.168-37 5-23.5 20.168v1.668l40.332 42c6.668 6.668 15.168 8.332 21.832 1.668l92.5-75.668c16.672-16.832-5.1602-38.668-21.996-25.168zm-52-105.83c-87.332 0-156.33 70.5-156.33 156.33s68.832 154.67 156.33 154.67c85.668 0 154.67-68.832 154.67-154.67 0-85.832-69-156.33-154.67-156.33zm757.84-416.83v-241.84h-79v242h79zm152.83 0v-336h-79v336zm-307.5 0v-181.34h-79v181.5h79zm45.332 552.83 173.17 159.67c13.5 13.5 26.832 13.5 38.668 8.332 10-5 18.5-15.168 21.832-23.5 5-11.832 3.332-26.832-10-38.668l-173.17-161.16c-8.5 25.164-27 43.664-50.5 55.332zm-117.66-89c1.668 40.332 35.332 72.332 75.668 70.5 40.332-1.668 72.332-37 70.5-77.332-1.668-40.332-35.332-72.332-75.668-70.5-40.168 1.6641-72.168 35.332-70.5 77.332zm97.5-104.17c15.168 5 30.168 11.832 42 21.832 15.168-42 16.832-89 8.332-132.67-25.168-136.17-147.83-230.17-285.67-218.5-147.83 11.832-258.83 141.17-245.33 289 10 132.67 116 237 247 247 48.668 3.332 97.5-6.668 141.17-28.5-11.832-10-21.832-23.5-26.832-38.668-23.5 10-48.668 18.5-75.668 20.168-122.67 10-230.17-82.332-238.67-203.33-10-122.67 80.668-228.5 201.67-238.67 122.67-10 230.17 80.668 240.33 203.33 1.832 26.84-1.5 53.84-8.332 79.004zm-510.84-43.664c-1.668-25.168 0-48.668 3.332-72.332l-178-0.003907c-18.5 0-18.5-28.5 0-28.5h184.83c15.168-52.168 43.668-97.5 82.332-134.5-5-1.668-8.332-6.668-8.332-13.5v-110.83c0-8.332 6.668-15.168 15.168-15.168h116c8.332 0 15.168 6.668 15.168 15.168v50.332c13.5-3.332 28.5-5 43.668-6.668h15.168l-0.003906-285.5c0-11.832-10-23.5-23.5-23.5h-375l-139.5 156.16v445.34c0 11.832 10 23.5 23.5 23.5zm127.84-263.84c21.832-15.168 45.332-26.832 72.332-37v-43.668h-85.668v80.668zm-317.67-220.16v30.168l-30.168-0.003907v-30.168zm58.832 0v30.168h-30.168v-30.168zm58.836-89h-30.168v-28.5h30.168zm0 119.33h-30.168v-30.168h30.168zm0-58.832h-30.168v-30.168h30.168zm-102.5 179.83c-18.5 0-18.5-30.168 0-30.168h184.83c20.168 0 20.168 30.168 0 30.168zm0 87.332c-18.5 0-18.5-30.168 0-30.168h184.83c20.168 0 20.168 30.168 0 30.168zm0 87.336c-18.5 0-18.5-30.168 0-30.168h184.83c20.168 0 20.168 30.168 0 30.168zm374.66-374.67h-85.668v80.668h85.668z"
     id="path2"
     style="fill:#e6e6e6" />
</svg>
