<?xml version="1.0" encoding="UTF-8" standalone="no"?>
<svg
   width="1200pt"
   height="1200pt"
   version="1.1"
   viewBox="0 0 1200 1200"
   id="svg12"
   sodipodi:docname="veto.svg"
   inkscape:version="1.2.2 (b0a8486541, 2022-12-01)"
   xmlns:inkscape="http://www.inkscape.org/namespaces/inkscape"
   xmlns:sodipodi="http://sodipodi.sourceforge.net/DTD/sodipodi-0.dtd"
   xmlns="http://www.w3.org/2000/svg"
   xmlns:svg="http://www.w3.org/2000/svg">
  <defs
     id="defs16" />
  <sodipodi:namedview
     id="namedview14"
     pagecolor="#ffffff"
     bordercolor="#666666"
     borderopacity="1.0"
     inkscape:showpageshadow="2"
     inkscape:pageopacity="0.0"
     inkscape:pagecheckerboard="0"
     inkscape:deskcolor="#d1d1d1"
     inkscape:document-units="pt"
     showgrid="false"
     inkscape:zoom="0.53125"
     inkscape:cx="750.11765"
     inkscape:cy="800.94118"
     inkscape:window-width="1674"
     inkscape:window-height="752"
     inkscape:window-x="50"
     inkscape:window-y="114"
     inkscape:window-maximized="0"
     inkscape:current-layer="svg12" />
  <g
     id="g10"
     style="fill:#e6e6e6">
    <path
       d="m1082.1 1026.6c9.168-17.555 13.031-37.895 11.207-57.961-0.86328-6.8398-2.1367-13.523-4.0078-20.09-21.168-72.91-49.152-119.06-76.922-148.67-45.707-48.73-90.961-52.57-104.76-55.777-2.6289-0.5625-5.2305-1.1523-7.8711-1.6211-8.4375-7.8242-15.145-18.758-20.316-31.824-13.008-32.746-16.824-79.309-16.477-125.55 0.73047-83.27 15.348-165.77 15.348-165.77v-0.023438c0-11.531-0.27734-22.598-0.70703-33.422-0.14453-3.4219-0.37109-6.6836-0.53906-10.031-0.39453-7.3086-0.81641-14.508-1.4531-21.492-0.32422-3.6836-0.68359-7.2461-1.0312-10.848-0.63672-6.4453-1.4023-12.73-2.2578-18.863-0.44531-3.4453-0.88672-6.8867-1.4023-10.246-0.9375-6.2773-1.9922-12.422-3.0977-18.395-0.5625-2.7461-1.0078-5.5781-1.5469-8.3164-1.6914-8.1602-3.4922-16.105-5.4375-23.723-0.12109-0.27734-0.14453-0.5625-0.23828-0.88672-2.0898-7.9922-4.3086-15.562-6.707-22.871-0.76953-2.1836-1.5-4.2617-2.2578-6.3711-1.6445-5.0391-3.4922-10.008-5.3398-14.762-0.91016-2.3867-1.8711-4.7539-2.832-7.0312-1.7539-4.3086-3.6836-8.5078-5.5781-12.562-1.0078-2.2305-2.0156-4.4531-3.0703-6.5898-2.0898-4.1055-4.1758-8.0625-6.2773-11.879-1.0078-1.8008-1.9922-3.6367-2.9766-5.3633-2.832-4.9219-5.8789-9.707-8.832-14.23-0.27734-0.44531-0.53906-0.9375-0.88672-1.4023-3.3711-4.9922-6.8398-9.7305-10.309-14.184-1.0312-1.3086-2.0898-2.5312-3.168-3.7695-2.5312-3.1211-5.0391-6.1445-7.6445-9.0234-1.3555-1.4297-2.6758-2.7852-4.0078-4.2461-2.3633-2.5547-4.8008-4.9922-7.2617-7.3555-1.3555-1.332-2.6992-2.6289-4.0547-3.8633-2.5781-2.3398-5.1367-4.5234-7.7383-6.707-1.2617-1.0547-2.5312-2.1367-3.7695-3.1211-3.2773-2.5781-6.5898-5.0625-9.9375-7.3789-0.51562-0.42188-1.1055-0.86328-1.5977-1.2227-3.8633-2.6992-7.8008-5.1836-11.723-7.5234-1.1289-0.66016-2.2695-1.2617-3.3711-1.8945-2.7852-1.6445-5.6055-3.168-8.293-4.5469-1.4766-0.76953-2.8789-1.4531-4.3086-2.1602-2.5312-1.2227-4.9688-2.3867-7.4531-3.4922-1.4766-0.63672-2.8789-1.2461-4.332-1.8477-2.5312-1.0781-4.9922-2.0156-7.5469-2.9531-1.2852-0.49219-2.6523-1.0078-3.8633-1.4766-2.9297-1.0547-5.9023-2.0156-8.7461-2.8789-0.79297-0.23828-1.6445-0.53906-2.3867-0.75781-3.6367-1.0781-7.1523-2.0156-10.621-2.8789-1.1758-0.27734-2.2305-0.49219-3.3477-0.73047-2.3633-0.53906-4.7383-1.1055-7.0078-1.5469-1.332-0.25391-2.6758-0.51562-3.9375-0.73047-2.0156-0.37109-4.0312-0.70703-5.9297-1.0078-1.332-0.21484-2.6289-0.39453-3.8164-0.53906-1.8711-0.25391-3.7695-0.49219-5.6055-0.68359-1.2422-0.14062-2.3828-0.29688-3.5078-0.41797-1.9219-0.16797-3.7695-0.34766-5.6055-0.46875-0.96094-0.046875-1.8945-0.16797-2.7461-0.21484-2.5547-0.16797-4.8945-0.21484-7.1992-0.32422-1.0547-0.023437-1.9688-0.023437-3.0234-0.023437-1.1289 0-2.3398-0.023437-3.4453-0.023437-5.6289 0-10.129 0.21484-13.309 0.49219-0.44531 0-0.73047 0.023437-1.0781 0.070313-1.1523 0.070312-2.0625 0.16797-2.7227 0.23828-0.25391 0.023437-0.5625 0.046875-0.73047 0.097656-0.63672 0.023437-1.0078 0.097656-1.0078 0.097656-3.2773-0.21484-6.5391-0.34766-9.7578-0.46875-3.2148 0.097657-6.4453 0.25391-9.7578 0.42188 0 0-0.39453-0.023437-1.0078-0.097656-0.21484-0.023438-0.51562-0.046875-0.70703-0.070312-0.63672-0.070313-1.6211-0.16797-2.7227-0.25391-0.30078-0.023437-0.66016-0.023437-1.0781-0.046875-3.1758-0.28906-7.6523-0.50391-13.281-0.50391h-3.5898c-0.98438 0-1.8242 0-2.832 0.023438-2.293 0.070312-4.7539 0.19141-7.2852 0.32422-0.75781 0.046875-1.5977 0.12109-2.3867 0.19141-1.8945 0.12109-3.8633 0.27734-5.9531 0.51563-1.0781 0.070312-2.1836 0.21484-3.2383 0.34766-1.9453 0.21484-3.8867 0.46875-5.9297 0.73047-1.1758 0.16797-2.3398 0.34766-3.5391 0.51563-2.1367 0.32422-4.2461 0.68359-6.4453 1.1055-1.1523 0.21484-2.3164 0.39453-3.4922 0.61328-2.5547 0.51562-5.0625 1.1055-7.7383 1.668-0.88672 0.21484-1.7383 0.42188-2.6992 0.61328-3.5898 0.83984-7.2227 1.8008-10.871 2.9297-0.58984 0.14453-1.1758 0.37109-1.7773 0.53906-3.0469 0.96094-6.168 1.9688-9.3008 3.0703-1.1992 0.42188-2.4102 0.88672-3.6367 1.3555-2.6289 0.98438-5.2305 2.0156-7.8711 3.1211-1.332 0.53906-2.6992 1.1289-4.0078 1.7383-2.6289 1.1055-5.2305 2.3867-7.8711 3.6602-1.3086 0.63672-2.6523 1.2617-3.9609 1.9688-2.8789 1.5-5.8555 3.1445-8.7852 4.8477-0.96094 0.58984-1.9688 1.0781-2.9531 1.6914-3.9375 2.3633-7.8945 4.8711-11.879 7.6211-0.37109 0.25391-0.73047 0.53906-1.0781 0.79297-3.5156 2.4609-7.0078 5.0625-10.477 7.8242-1.1758 0.91016-2.3398 1.9219-3.5156 2.8555-2.6992 2.2305-5.3398 4.5469-7.9922 6.9375-1.332 1.2461-2.6523 2.5078-3.9375 3.7305-2.5547 2.4102-5.0156 4.9453-7.5 7.5703-1.2617 1.332-2.5312 2.6758-3.7695 4.0312-2.6758 2.9531-5.293 6.0703-7.8945 9.2539-0.96094 1.1992-1.9219 2.293-2.8789 3.5391-3.5625 4.5-7.0312 9.2383-10.43 14.27-0.25391 0.37109-0.46875 0.79297-0.70703 1.1289-3.0977 4.6211-6.0469 9.4688-9.0703 14.531-0.96094 1.668-1.8477 3.4688-2.832 5.207-2.1367 3.9102-4.2852 7.9219-6.3477 12.07-1.0547 2.1367-2.0391 4.2852-3.0469 6.4922-1.8945 4.1289-3.7695 8.3633-5.6523 12.73-0.91016 2.293-1.8945 4.5703-2.7852 6.9102-1.8711 4.8242-3.6836 9.8398-5.4102 14.977-0.68359 2.0898-1.4766 4.0547-2.1133 6.1914-2.4102 7.3555-4.6914 14.977-6.7695 22.945-0.070312 0.30078-0.16797 0.66016-0.21484 0.96094-1.9453 7.5977-3.793 15.516-5.4102 23.676-0.51562 2.6992-0.98437 5.5078-1.5234 8.207-1.1055 5.9766-2.1836 12.168-3.1445 18.469-0.51562 3.3242-0.9375 6.7695-1.4023 10.199-0.81641 6.1445-1.5977 12.422-2.1836 18.91-0.39453 3.6133-0.73047 7.1758-1.0547 10.871-0.5625 6.9375-1.0781 14.137-1.4766 21.422-0.19141 3.3711-0.42188 6.6367-0.53906 10.105-0.44531 10.801-0.73047 21.887-0.73047 33.395v0.023438s14.605 82.523 15.348 165.77c0.44531 46.262-3.4219 92.785-16.453 125.61-5.2305 13.055-11.855 24-20.316 31.754-2.7227 0.51562-5.2695 1.0781-7.8242 1.6914-13.871 3.2148-59.09 7.0312-104.79 55.738-27.793 29.652-55.777 75.863-76.969 148.71-1.8945 6.5625-3.1914 13.223-3.7695 19.969-1.8945 20.113 1.9688 40.477 11.207 57.938 45.867 86.75 287.09 113.4 482.09 113.4s436.29-26.652 482.14-113.41zm-222.85-286.33c5.3516 11.438 9.0703 23.34 11.074 35.449 3.457 1.1758 6.6484 2.543 9.6836 4.1758 32.352 17.305 44.605 57.742 27.301 90.109-11.617 21.719-34.141 35.195-58.766 35.195-10.871 0-21.73-2.7227-31.367-7.8828-15.684-8.375-27.156-22.367-32.305-39.395-5.1484-17.016-3.3711-35.027 5.0039-50.699 8.3281-15.562 22.535-27.012 39.539-32.102-5.9023-23.148-21.781-50.867-49.645-60.023l-6.5625-2.1602c-0.58984-0.19141-1.2109-0.32422-1.7656-0.57422l-2.1367-0.70703 0.13281-0.38281c-6-3.457-10.078-9.8633-10.078-17.281 0-11.027 8.9531-19.98 19.992-19.98 0.75781 0 1.4883 0.14453 2.2305 0.22656l0.10938-0.30078 1.4023 0.45703c1.6328 0.3125 3.168 0.82813 4.6328 1.5117l4.4648 1.4531c28.668 9.4141 52.488 31.77 67.059 62.91zm-474.37-336c1.2227-0.86328 2.5547-1.4531 3.9609-1.6914 3.1914-0.53906 6.5391 0.66016 9.793 3.3008 0 0 0-0.23828 0.070312-0.73047 0.34766-3.4062 2.0039-17.578 6.8281-35.27 0.058594-0.19141 0.10938-0.37109 0.15625-0.57422 0.68359-2.4492 1.4414-4.9688 2.2422-7.5352 5.1016-16.234 12.805-34.309 24.469-49.465 1.0195-1.3086 2.0898-2.5781 3.1562-3.8281 0.35938-0.43359 0.69531-0.875 1.0547-1.2969 16.031-18.336 38.641-31.02 70.453-28.066l282.94 145.64 22.992-22.129c0.75781 0.14453 1.5703 0.39453 2.2695 0.73047 7.5 3.5508 11.832 17.676 11.484 35.832-0.12109 6.0586-0.75781 12.574-1.9688 19.285-3.6602 20.605-11.699 37.598-20.207 44.855-3.4453 2.8555-6.9609 4.2227-10.262 3.6602-1.8711-0.32422-3.6602-1.2461-5.1836-2.6992-18.887 58.691-54.938 117.17-100.45 152.34-26.578 20.461-56.34 32.977-87.84 32.977-31.668 0-61.621-12.684-88.309-33.395-45.277-35.184-81.191-93.469-99.961-151.92-1.5469 1.4023-3.2148 2.3398-5.1367 2.6992-3.8398 0.68359-7.9922-1.2617-11.902-5.207-7.9219-7.9688-15.191-24.047-18.66-43.309-1.1406-6.3477-1.7656-12.516-1.9219-18.289-0.48047-17.32 3.2266-31.109 9.9375-35.918zm21.945 634.09c-4.0664 3.3828-9.1445 5.2305-14.484 5.2305h-25.055c-12.562 0-22.789-10.234-22.789-22.789l0.023437-0.88672c0.48047-12.109 10.621-21.898 22.766-21.898h25.055c2.5664 0 5.0742 0.43359 7.4883 1.2852 1.5234-0.43359 1.9922-0.78125 2.0039-0.79297 2.7852-4.9453 2.7852-25.535 2.7852-35.426 0-19.945-4.9922-44.027-13.738-66.406-4.5469-2.5781-8.207-6.4805-10.465-11.195-15.203-31.812-35.855-52.355-52.645-52.355-17.172 0-38.855 22.211-53.977 55.246-2.4727 5.3867-6.8047 9.7695-12.145 12.383-7.9062 21.422-12.254 43.465-12.254 62.316 0 8.3047 0 30.348 3.1797 35.52 0.035156 0 0.74219 0.43359 2.7344 0.92578 2.5938-0.99609 5.375-1.5117 8.1602-1.5117h25.105c11.711 0 21.469 8.9141 22.656 20.484l0.13281 1.4141c0 13.453-10.223 23.688-22.777 23.688h-25.105c-4.9805 0-9.793-1.6562-13.754-4.6914-14.34-2.6992-24.434-9.0234-30.84-19.32-7.7539-12.445-9.168-28.789-9.168-56.508 0-24.324 5.6172-52.32 15.816-79.066-1.5-5.7227-0.99609-11.699 1.4883-17.09 10.633-23.23 24.145-43.129 39.07-57.516 8.207-7.9062 17.027-14.27 26.258-18.91 3.3711-7.8828 9.1094-14.52 16.188-18.742 3.7305-20.977 15.469-43.164 32.566-61.32 23.566-25.043 53.184-38.832 83.363-38.832h6v0.13281c10.453 0.58984 18.758 9.1562 18.758 19.754s-8.3047 19.176-18.758 19.754v0.085938h-0.75781c-0.12109 0-0.23828 0.035156-0.34766 0.035156s-0.23828-0.035156-0.34766-0.035156h-4.5352c-37.176 0-67.969 35.219-75.742 62.555 5.3281 3.9492 9.6602 9.3125 12.504 15.574 25.645 12.098 48.277 37.559 65.617 73.812 2.9023 6.1094 3.2773 12.996 1.1523 19.285 10.391 26.746 16.332 55.98 16.332 80.531-0.019531 34.398-0.019531 66.93-37.52 75.281zm19.656-288.05c-5.1367-6.6602-8.3633-13.645-9.2383-20.93v-0.023438c1.1992-0.44531 3.9609-1.4023 7.668-3.0977 1.5-0.63672 3.168-1.4766 4.8477-2.4102 14.746-7.7148 36.395-23.832 36.395-52.223h0.023437c23.23 22.992 49.129 41.293 76.738 52.223 18.562 7.3789 37.945 11.461 57.84 11.461 19.922 0 39.277-4.0781 57.84-11.461 27.371-10.824 52.945-28.824 76.105-51.59 0.16797 0.097656 0.32422 0.16797 0.49219 0.25391 0.13281 9.1445 2.5312 16.992 6.2031 23.688 11.027 20.102 33.539 29.809 40.98 32.594 0.023437 0.12109 0 0.32422-0.046875 0.58984-0.83984 7.2461-4.1055 14.27-9.2539 20.93-24.324 31.105-173.26 172.03-173.26 172.03 0.003907-0.003907-148.96-140.88-173.34-172.04z"
       id="path2"
       style="fill:#e6e6e6" />
    <path
       d="m432.45 312.29c1.0195-1.3086 2.0898-2.5781 3.1562-3.8281"
       id="path4"
       style="fill:#e6e6e6" />
    <path
       d="m405.74 369.29c0.68359-2.4492 1.4414-4.9688 2.2422-7.5352"
       id="path6"
       style="fill:#e6e6e6" />
    <path
       d="m884.64 838.57c0 19.883-16.117 36-36 36s-36-16.117-36-36c0-19.879 16.117-36 36-36s36 16.121 36 36"
       id="path8"
       style="fill:#e6e6e6" />
  </g>
</svg>
