<?xml version="1.0" encoding="UTF-8" standalone="no"?>
<svg
   width="1200pt"
   height="1200pt"
   version="1.1"
   viewBox="0 0 1200 1200"
   id="svg14"
   sodipodi:docname="viande.svg"
   inkscape:version="1.2.2 (b0a8486541, 2022-12-01)"
   xmlns:inkscape="http://www.inkscape.org/namespaces/inkscape"
   xmlns:sodipodi="http://sodipodi.sourceforge.net/DTD/sodipodi-0.dtd"
   xmlns="http://www.w3.org/2000/svg"
   xmlns:svg="http://www.w3.org/2000/svg">
  <defs
     id="defs18" />
  <sodipodi:namedview
     id="namedview16"
     pagecolor="#ffffff"
     bordercolor="#000000"
     borderopacity="0.25"
     inkscape:showpageshadow="2"
     inkscape:pageopacity="0.0"
     inkscape:pagecheckerboard="0"
     inkscape:deskcolor="#d1d1d1"
     inkscape:document-units="pt"
     showgrid="false"
     inkscape:zoom="0.47375"
     inkscape:cx="800"
     inkscape:cy="805.27704"
     inkscape:window-width="1920"
     inkscape:window-height="1024"
     inkscape:window-x="0"
     inkscape:window-y="0"
     inkscape:window-maximized="1"
     inkscape:current-layer="svg14" />
  <g
     id="g12"
     style="fill:#aa0000">
    <path
       d="m768.75 337.5c0 51.777-41.973 93.75-93.75 93.75s-93.75-41.973-93.75-93.75 41.973-93.75 93.75-93.75 93.75 41.973 93.75 93.75"
       id="path2"
       style="fill:#aa0000" />
    <path
       d="m785.62 793.12c-54.375 5.625-105 30-142.5 67.5l-118.12 120c-56.25 56.25-135 88.125-217.5 88.125-90 0-165-20.625-249.38-127.5 18.75 183.75 159.38 202.5 247.5 202.5 73.125 0 142.5-28.125 191.25-76.875l120-120c43.125-43.125 101.25-71.25 165-76.875 170.62-18.75 290.62-69.375 339.38-238.12-65.625 86.25-181.88 146.25-335.62 161.25z"
       id="path4"
       style="fill:#aa0000" />
    <path
       d="m675 56.25c-172.5 0-386.25 37.5-517.5 281.25-35.625 65.625-58.125 140.62-69.375 219.38l-30 232.5c-7.5 56.25 0 157.5 151.88 223.12 125.62 54.375 245.62-13.125 288.75-60l120-120c43.125-43.125 101.25-69.375 165-76.875 393.75-50.625 360-322.5 360-322.5-5.625-210-210-376.88-468.75-376.88zm108.75 665.62c-82.5 13.125-155.62 50.625-208.12 103.12l-114.38 112.5c-30 41.25-140.62 91.875-240 48.75-131.25-56.25-136.88-150-129.38-198.75l35.625-236.25c13.125-90 45-170.62 95.625-241.88 99.375-144.38 243.75-217.5 442.5-225 219.38-7.5 410.62 131.25 435 316.88 22.5 165-95.625 285-316.88 320.62z"
       id="path6"
       style="fill:#aa0000" />
    <path
       d="m667.5 123.75c-410.62 13.125-489.38 350.62-502.5 433.12l-35.625 236.25c-18.75 103.12 75 146.25 101.25 157.5 95.625 37.5 170.62-5.625 204.38-39.375l114.38-114.38c58.125-58.125 140.62-97.5 228.75-112.5 75-11.25 315-67.5 285-275.62-20.625-163.12-198.75-290.62-395.62-285zm7.5 345c-73.125 0-131.25-58.125-131.25-131.25s58.125-131.25 131.25-131.25 131.25 58.125 131.25 131.25-60 131.25-131.25 131.25zm335.62 43.125c-39.375 84.375-112.5 106.88-219.38 133.12-1.875 0-18.75 3.75-22.5-13.125-1.875-9.375 3.75-20.625 13.125-22.5 112.5-28.125 165-50.625 195-114.38 3.75-9.375 15-13.125 24.375-9.375 11.25 5.625 15 16.875 9.375 26.25zm1.875-67.5c-9.375 0-18.75-9.375-18.75-18.75 0-16.875-1.875-33.75-7.5-50.625-3.75-9.375 1.875-20.625 11.25-24.375s20.625 1.875 24.375 13.125c7.5 20.625 9.375 41.25 9.375 61.875 0 9.375-9.375 18.75-18.75 18.75z"
       id="path8"
       style="fill:#aa0000" />
    <path
       d="m768.75 337.5c0 51.777-41.973 93.75-93.75 93.75s-93.75-41.973-93.75-93.75 41.973-93.75 93.75-93.75 93.75 41.973 93.75 93.75"
       id="path10"
       style="fill:#aa0000" />
  </g>
</svg>
