<?xml version="1.0" encoding="UTF-8" standalone="no"?>
<svg
   width="1200pt"
   height="1200pt"
   version="1.1"
   viewBox="0 0 1200 1200"
   id="svg16"
   sodipodi:docname="voie.svg"
   inkscape:version="1.2.2 (b0a8486541, 2022-12-01)"
   xmlns:inkscape="http://www.inkscape.org/namespaces/inkscape"
   xmlns:sodipodi="http://sodipodi.sourceforge.net/DTD/sodipodi-0.dtd"
   xmlns="http://www.w3.org/2000/svg"
   xmlns:svg="http://www.w3.org/2000/svg">
  <defs
     id="defs20" />
  <sodipodi:namedview
     id="namedview18"
     pagecolor="#ffffff"
     bordercolor="#666666"
     borderopacity="1.0"
     inkscape:showpageshadow="2"
     inkscape:pageopacity="0.0"
     inkscape:pagecheckerboard="0"
     inkscape:deskcolor="#d1d1d1"
     inkscape:document-units="pt"
     showgrid="false"
     inkscape:zoom="0.53125"
     inkscape:cx="751.05882"
     inkscape:cy="800.94118"
     inkscape:window-width="1674"
     inkscape:window-height="752"
     inkscape:window-x="246"
     inkscape:window-y="114"
     inkscape:window-maximized="0"
     inkscape:current-layer="svg16" />
  <g
     id="g14"
     style="fill:#e6e6e6">
    <path
       d="m352.33 732.75c2.4375-6.3008 3.918-13.086 3.918-20.25 0-7.4062-1.5195-14.438-4.125-20.926 23.906-6.4883 41.625-28.145 41.625-54.074 0-31.012-25.238-56.25-56.25-56.25h-225c-31.012 0-56.25 25.238-56.25 56.25 0 25.93 17.719 47.605 41.625 54.074-2.6055 6.4883-4.125 13.52-4.125 20.926 0 7.1641 1.4805 13.949 3.918 20.25-44.625 7.1641-78.918 45.637-78.918 92.25v225c0 72.375 58.895 131.25 131.25 131.25h150c72.355 0 131.25-58.875 131.25-131.25v-225c0-46.613-34.293-85.086-78.918-92.25zm-221.08-20.25c0-10.332 8.3984-18.75 18.75-18.75h150c10.352 0 18.75 8.418 18.75 18.75s-8.3984 18.75-18.75 18.75h-150c-10.352 0-18.75-8.418-18.75-18.75zm-18.75-93.75h225c10.352 0 18.75 8.418 18.75 18.75s-8.3984 18.75-18.75 18.75h-225c-10.352 0-18.75-8.418-18.75-18.75s8.3984-18.75 18.75-18.75zm-56.25 262.5h225v150h-225zm337.5 168.75c0 51.695-42.055 93.75-93.75 93.75h-150c-45.262 0-83.137-32.27-91.855-75h260.61v-225h-262.5v-18.75c0-31.012 25.238-56.25 56.25-56.25h225c31.012 0 56.25 25.238 56.25 56.25z"
       id="path2"
       style="fill:#e6e6e6" />
    <path
       d="m1149.8 884.59-111.26-166.89c-9.9766-14.98-26.719-23.941-44.738-23.941s-34.762 8.9609-44.758 23.945l-111.26 166.89c-20.586 30.918-31.48 66.879-31.48 104v5.1562c0 103.39 84.113 187.5 187.5 187.5s187.5-84.113 187.5-187.5v-5.1562c0-37.125-10.895-73.086-31.5-104.01zm-6 109.16c0 82.707-67.293 150-150 150s-150-67.293-150-150v-5.1562c0-29.699 8.7188-58.48 25.199-83.211l111.26-166.89c6.0391-9.0742 21.055-9.0742 27.094 0l111.26 166.89c16.465 24.73 25.184 53.512 25.184 83.211z"
       id="path4"
       style="fill:#e6e6e6" />
    <path
       d="m1056.9 1034.1 31.613 20.195c8.1758-12.77 13.594-26.793 16.125-41.68l-36.992-6.2812c-1.6719 9.8945-5.2891 19.234-10.746 27.766z"
       id="path6"
       style="fill:#e6e6e6" />
    <path
       d="m1104.5 968.85c-2.6641-14.867-8.1953-28.855-16.445-41.57l-31.461 20.438c5.5312 8.4922 9.207 17.812 10.988 27.73z"
       id="path8"
       style="fill:#e6e6e6" />
    <path
       d="m1008.9 1067.2 7.5 36.73c14.793-3.0195 28.613-8.9258 41.117-17.551l-21.281-30.863c-8.3242 5.7617-17.531 9.6797-27.336 11.684z"
       id="path10"
       style="fill:#e6e6e6" />
    <path
       d="m806.25 318.75c31.012 0 56.25-25.238 56.25-56.25s-25.238-56.25-56.25-56.25h-93.75v-75h18.75c31.012 0 56.25-25.238 56.25-56.25s-25.238-56.25-56.25-56.25h-187.5c-31.012 0-56.25 25.238-56.25 56.25s25.238 56.25 56.25 56.25h18.75v75h-93.75c-31.012 0-56.25 25.238-56.25 56.25s25.238 56.25 56.25 56.25h18.75v431.25c0 28.219 9.3203 56.195 26.25 78.75l30 39.992v31.258c0 24.414 15.73 45.039 37.5 52.801v172.2c0 31.012 25.238 56.25 56.25 56.25s56.25-25.238 56.25-56.25v-172.2c21.77-7.7617 37.5-28.387 37.5-52.801v-31.258l30-39.992c16.93-22.574 26.25-50.531 26.25-78.75v-431.25zm-281.25-243.75c0-10.332 8.3984-18.75 18.75-18.75h187.5c10.352 0 18.75 8.418 18.75 18.75s-8.3984 18.75-18.75 18.75h-187.5c-10.352 0-18.75-8.418-18.75-18.75zm75 56.25h75v75h-75zm-150 131.25c0-10.332 8.3984-18.75 18.75-18.75h337.5c10.352 0 18.75 8.418 18.75 18.75s-8.3984 18.75-18.75 18.75h-337.5c-10.352 0-18.75-8.418-18.75-18.75zm187.5 881.25c-10.352 0-18.75-8.418-18.75-18.75v-168.75h37.5v168.75c0 10.332-8.3984 18.75-18.75 18.75zm56.25-243.75c0 10.332-8.3984 18.75-18.75 18.75h-75c-10.352 0-18.75-8.418-18.75-18.75v-18.75h112.5zm56.25-543.75h-112.5v37.5h112.5v37.5h-75v37.5h75v37.5h-112.5v37.5h112.5v37.5h-75v37.5h75v37.5h-112.5v37.5h112.5v56.25c0 20.156-6.6562 40.145-18.75 56.25l-28.125 37.5h-131.25l-28.125-37.5c-12.094-16.105-18.75-36.094-18.75-56.25v-431.25h225z"
       id="path12"
       style="fill:#e6e6e6" />
  </g>
</svg>
