<?xml version="1.0" encoding="UTF-8"?>
<svg width="1200pt" height="1200pt" version="1.1" viewBox="0 0 1200 1200" xmlns="http://www.w3.org/2000/svg">
 <g>
  <path d="m1082.2 117.75c-3.75-3-9.75-4.5-14.25-2.25l-243.75 84.75c-30.75 10.5-58.5 27.75-81 49.5-42.75-21-91.5-33-142.5-33s-99.75 12-142.5 33c-22.5-21.75-50.25-39-81-49.5l-244.5-84.75c-4.5-1.5-10.5-0.75-14.25 2.25s-6 8.25-5.25 13.5l29.25 252.75c7.5 63 42 119.25 95.25 154.5 13.5 9 27.75 16.5 42.75 21.75 0.75 4.5 0.75 9.75 1.5 14.25-49.5 66.75-76.5 146.25-76.5 229.5 0 180.75 131.25 202.5 257.25 207 30 45.75 81.75 74.25 137.25 74.25s107.25-28.5 137.25-74.25c126-3.75 257.25-26.25 257.25-207 0-83.25-26.25-162.75-76.5-229.5 0.75-4.5 0.75-9 1.5-14.25 15-6 29.25-12.75 42.75-21.75 53.25-35.25 88.5-91.5 95.25-154.5l29.25-252.75c1.5-5.25-0.75-9.75-4.5-13.5zm-192 470.25c48 62.25 73.5 137.25 73.5 216 0 144-83.25 173.25-236.25 177-5.25 0-9.75 3-12.75 7.5-23.25 41.25-67.5 66.75-115.5 66.75s-92.25-25.5-115.5-66.75c-2.25-4.5-7.5-7.5-12.75-7.5-153-3.75-236.25-33.75-236.25-177 0-78.75 25.5-153.75 73.5-216 2.25-3 3.75-7.5 3-11.25-2.25-14.25-3-28.5-3-43.5 0-157.5 130.5-286.5 291-286.5s291 128.25 291 286.5c0 14.25-0.75 29.25-3 43.5 0 3.75 0.75 8.25 3 11.25zm-718.5-207-27-228.75 221.25 77.25c24 8.25 45 21 63 36.75-45 27.75-81.75 66-108.75 111.75l-75-139.5 45.75 208.5c-7.5 25.5-11.25 52.5-12 81-9-3.75-17.25-9-25.5-14.25-45.75-30.75-75.75-78.75-81.75-132.75zm856.5 0c-6 54-36 102.75-82.5 132.75-8.25 5.25-16.5 9.75-25.5 14.25-0.75-27.75-4.5-54.75-12-81l45.75-208.5-75.75 138.75c-26.25-45.75-63.75-84-108.75-111.75 18-15.75 39.75-28.5 63-36.75l221.25-77.25z"/>
  <path d="m734.25 631.5c-28.5-48.75-78.75-77.25-134.25-77.25s-105.75 28.5-134.25 76.5l-43.5 74.25c-28.5 48.75-29.25 107.25-0.75 156 27.75 48.75 78.75 78 135 78h86.25c56.25 0 107.25-29.25 135-78s27.75-107.25-0.75-156zm18 214.5c-22.5 39.75-63.75 63-108.75 63h-87c-45.75 0-86.25-23.25-108.75-63s-22.5-87 0.75-126l43.5-73.5c22.5-39 63-62.25 108-62.25s85.5 23.25 108 62.25l43.5 73.5c23.25 39.75 23.25 86.25 0.75 126z"/>
  <path d="m483 518.25c0 23.195-19.141 42-42.75 42s-42.75-18.805-42.75-42 19.141-42 42.75-42 42.75 18.805 42.75 42"/>
  <path d="m802.5 518.25c0 23.195-19.141 42-42.75 42s-42.75-18.805-42.75-42 19.141-42 42.75-42 42.75 18.805 42.75 42"/>
  <path d="m522 717.75c-28.5 0-51 22.5-51 50.25s23.25 50.25 51 50.25 51-22.5 51-50.25-22.5-50.25-51-50.25zm0 71.25c-12 0-21-9-21-20.25s9.75-20.25 21-20.25 21 9 21 20.25-9.75 20.25-21 20.25z"/>
  <path d="m678 717.75c-28.5 0-51 22.5-51 50.25s23.25 50.25 51 50.25 51-22.5 51-50.25-22.5-50.25-51-50.25zm0 71.25c-12 0-21-9-21-20.25s9.75-20.25 21-20.25 21 9 21 20.25-9 20.25-21 20.25z"/>
 </g>
</svg>
