<?xml version="1.0" encoding="UTF-8" standalone="no"?>
<!-- Created with Inkscape (http://www.inkscape.org/) -->

<svg
   width="10.070703mm"
   height="106.04831mm"
   viewBox="0 0 10.070703 106.04831"
   version="1.1"
   id="svg5"
   inkscape:version="1.2.2 (b0a8486541, 2022-12-01)"
   sodipodi:docname="resist.svg"
   xmlns:inkscape="http://www.inkscape.org/namespaces/inkscape"
   xmlns:sodipodi="http://sodipodi.sourceforge.net/DTD/sodipodi-0.dtd"
   xmlns="http://www.w3.org/2000/svg"
   xmlns:svg="http://www.w3.org/2000/svg">
  <sodipodi:namedview
     id="namedview7"
     pagecolor="#ffffff"
     bordercolor="#000000"
     borderopacity="0.25"
     inkscape:showpageshadow="2"
     inkscape:pageopacity="0.0"
     inkscape:pagecheckerboard="0"
     inkscape:deskcolor="#d1d1d1"
     inkscape:document-units="mm"
     showgrid="false"
     inkscape:zoom="0.67526655"
     inkscape:cx="-96.258285"
     inkscape:cy="410.94883"
     inkscape:window-width="1920"
     inkscape:window-height="1024"
     inkscape:window-x="0"
     inkscape:window-y="0"
     inkscape:window-maximized="1"
     inkscape:current-layer="text111" />
  <defs
     id="defs2">
    <rect
       x="-477.80322"
       y="89.640526"
       width="82.37487"
       height="435.30844"
       id="rect273" />
    <rect
       x="198.24927"
       y="122.60205"
       width="322.15286"
       height="391.57571"
       id="rect113" />
  </defs>
  <g
     inkscape:label="Calque 1"
     inkscape:groupmode="layer"
     id="layer1"
     transform="translate(-122.33984,-40.383955)">
    <g
       aria-label="RESIST"
       transform="scale(0.26458333)"
       id="text111"
       style="font-size:64px;writing-mode:tb-rl;text-orientation:upright;white-space:pre;shape-inside:url(#rect113);display:inline;fill:#808080">
      <g
         aria-label="RESIST"
         transform="translate(917.79492,42.452739)"
         id="text271"
         style="font-family:Grille;-inkscape-font-specification:Grille;shape-inside:url(#rect273);fill:#d5c7ad;fill-opacity:1;stroke:#000000;stroke-opacity:1">
        <path
           d="m -452.87688,110.17953 6.46875,0.46875 3.21875,-0.46875 0.90625,0.46875 1.40625,0.46875 4.59375,-0.46875 1.40625,0.46875 6,-0.46875 5.09375,2.3125 3.65625,2.75 q 1,2.25 1.84375,5.0625 l 0.5,4.625 -2.34375,6.46875 q -1.75,1.4375 -4.15625,2.78125 l -0.90625,1.375 4.625,6.46875 2.28125,4.59375 q 0.625,1.53125 0.9375,3.6875 l -1.375,0.90625 -5.5625,0.46875 q -2.6875,-0.125 -5.5,-0.90625 l -3.25,-4.15625 -2.3125,-4.15625 q -0.59375,-2.40625 -1.84375,-5.0625 l -2.75,-0.46875 -0.9375,0.46875 q -0.46875,0.125 -0.90625,0.90625 l 0.4375,5.53125 -0.4375,1.40625 0.90625,3.6875 q -1.40625,1.78125 -3.6875,3.21875 l -5.53125,0.46875 q -2.15625,-1.21875 -4.1875,-3.21875 l 0.5,-4.15625 -0.5,-1.40625 -0.4375,-4.59375 0.4375,-1.375 0.5,-5.5625 v -6.90625 l -0.5,-1.375 0.5,-4.15625 -0.5,-4.15625 0.9375,-1.375 -0.9375,-3.6875 z m 9.6875,3.71875 q 0.15625,0.59375 0.90625,0.90625 -0.0937,-0.625 -0.90625,-0.90625 z m -6,1.8125 -0.90625,1.84375 h 3.21875 z m 20.3125,1.84375 0.46875,2.3125 0.4375,-1.84375 z m -12.46875,2.3125 q -0.6875,2.03125 -1.84375,4.15625 l 1.40625,3.25 q 0.375,0.90625 1.375,1.375 l 7.375,-0.9375 3.25,-1.375 q -0.5625,-2.4375 -2.34375,-4.625 -3.90625,-1.5 -9.21875,-1.84375 z m 14.78125,0.90625 h 0.90625 v -0.90625 h -0.46875 z m -22.15625,1.875 q 0.78125,1.21875 2.3125,1.84375 -0.65625,-1.25 -2.3125,-1.84375 z m 23.53125,1.375 -1.375,1.84375 2.28125,2.78125 0.9375,-4.625 z m -24,4.625 q 0.4375,1.03125 1.40625,1.84375 -0.21875,-1.1875 -1.40625,-1.84375 z m 19.84375,2.75 2.3125,1.375 q -0.8125,-1.03125 -2.3125,-1.375 z m -16.59375,0.46875 q -1.28125,1.0625 -1.40625,2.78125 1.59375,-0.75 3.6875,-1.375 z m -1.40625,6 q 0.78125,0.8125 1.84375,0.90625 z m -1.375,1.84375 v 0.9375 l 0.9375,-0.5 z m 0.4375,2.78125 v -0.9375 h -0.4375 z"
           style="font-family:'Alpha Echo';-inkscape-font-specification:'Alpha Echo';fill:#d5c7ad;fill-opacity:1;stroke:#000000;stroke-opacity:1"
           id="path327" />
        <path
           d="m -447.8925,181.91391 7.25,0.875 6.8125,-0.4375 5.90625,0.4375 1.375,-0.4375 q 2.6875,0.5 4.96875,2.28125 l 0.46875,5 -0.46875,1.34375 -1.34375,2.28125 -3.1875,0.4375 -0.90625,-0.4375 -13.625,-0.46875 1.375,4.5625 13.625,-0.9375 1.34375,0.5 2.28125,1.78125 -0.46875,3.65625 q -0.75,2.5 -2.28125,5 l -6.78125,0.4375 -6.375,-1.8125 q -2,2.1875 -2.25,5.4375 2.53125,1.125 5.4375,1.375 l 12.71875,-0.90625 1.375,0.90625 0.875,5 q -0.3125,2.875 -1.8125,5.875 l -4.96875,0.46875 -1.375,-0.46875 -6.8125,-0.875 q -3.03125,0.8125 -6.375,0.875 l -6.34375,0.9375 q -2.5625,-1.1875 -4.5625,-3.625 l -0.4375,-5 0.4375,-1.375 0.46875,-3.625 -0.46875,-0.90625 v -2.71875 l 0.46875,-7.71875 -0.46875,-6.375 0.46875,-7.71875 q 1.3125,-1.96875 3.65625,-3.625 z m 15.875,4.09375 q 0.625,1.40625 2.25,2.25 -0.78125,-1.21875 -2.25,-2.25 z m -12.25,5.90625 -1.375,2.71875 q 1.15625,-1.09375 1.375,-2.71875 z m -2.28125,6.34375 q 0.15625,0.59375 0.90625,0.90625 l 0.46875,-0.46875 z m -0.90625,1.375 0.4375,1.34375 0.46875,-0.90625 z m 2.71875,1.78125 0.46875,1.375 0.4375,-0.90625 z m -2.28125,5.9375 q 0.0312,0.96875 0.90625,1.8125 0,-0.96875 -0.90625,-1.8125 z m 1.84375,2.71875 v -0.90625 h -0.46875 z m -3.1875,1.8125 q 0.40625,1.15625 1.8125,1.8125 -0.34375,-1.21875 -1.8125,-1.8125 z m 4.96875,1.375 q 0.15625,0.5625 0.9375,0.90625 -0.0937,-0.625 -0.9375,-0.90625 z m 2.28125,2.28125 -1.78125,2.25 0.875,1.375 q 0.875,-1.625 0.90625,-3.625 z m 10.90625,1.34375 -1.34375,1.8125 q 1.15625,-0.5 1.34375,-1.8125 z m -5.90625,0.4375 0.46875,1.84375 1.8125,-0.90625 z m -10.90625,0.9375 1.375,1.34375 q -0.3125,-0.96875 -1.375,-1.34375 z"
           style="font-family:'Alpha Echo';-inkscape-font-specification:'Alpha Echo';fill:#d5c7ad;fill-opacity:1;stroke:#000000;stroke-opacity:1"
           id="path329" />
        <path
           d="m -436.81438,252.72641 6.65625,1.78125 q 2.9375,1 6.1875,2.65625 2.375,1.6875 4.4375,3.96875 -1.0625,2.75 -3.09375,5.3125 -2.90625,1.0625 -6.21875,1.34375 l -5.3125,-3.125 -4.875,-0.4375 -1.78125,0.90625 q 0.46875,2.65625 3.5625,3.53125 l 7.09375,1.3125 q 2.84375,0.5625 5.75,1.78125 2.4375,1.625 4.4375,4 1.1875,3.09375 1.3125,7.0625 l -2.21875,6.21875 -4.4375,3.96875 q -2.9375,1.1875 -6.625,1.78125 l -6.65625,1.3125 q -3.125,-0.0937 -7.0625,-1.3125 -2.78125,-1.09375 -5.3125,-3.125 -2.15625,-1.75 -4.4375,-4.40625 1.25,-2.59375 4.4375,-3.96875 2.0625,-2 5.3125,-2.25 2.125,1.625 4.84375,3.125 l 2.21875,0.875 4.875,-0.4375 q 1.40625,-0.375 2.65625,-1.3125 0,-1.4375 -1.3125,-2.6875 l -6.21875,-0.4375 -1.3125,-0.4375 -6.65625,-0.875 -4.40625,-4 q -1.40625,-2.84375 -2.21875,-6.1875 l 0.875,-6.625 3.5625,-4.4375 q 2.53125,-1.75 5.75,-3.09375 z m -6.1875,5.3125 q 0.125,0.59375 0.875,0.875 -0.0937,-0.59375 -0.875,-0.875 z m -1.78125,0.875 q 0.125,0.59375 0.875,0.875 l 0.4375,-0.40625 z m 7.53125,0 -1.34375,1.78125 q 1.25,-0.5 1.34375,-1.78125 z m 4.40625,0 1.34375,3.53125 3.09375,-0.875 q -1.84375,-1.65625 -4.4375,-2.65625 z m -11.5,2.65625 -1.75,1.34375 2.625,0.4375 z m -0.875,5.34375 q -1.53125,2.375 -2.21875,5.28125 h 1.78125 l 1.3125,-3.96875 z m 7.96875,5.28125 -0.875,1.34375 1.78125,0.4375 0.40625,-1.3125 z m 11.53125,3.09375 q 0.1875,1.28125 1.3125,2.21875 -0.3125,-1.21875 -1.3125,-2.21875 z m -5.78125,0.46875 q 0.40625,2.03125 2.21875,3.53125 l 2.65625,0.4375 0.4375,-0.875 -0.90625,-0.4375 -1.3125,-1.34375 -0.4375,1.78125 q -1.40625,-1.21875 -2.65625,-3.09375 z m 4,7.0625 q 0.15625,0.46875 0.875,0.875 l 0.4375,-0.40625 z m -1.34375,3.09375 q 0.1875,0.875 0.875,1.34375 z m -18.59375,1.34375 0.46875,1.3125 q 0.875,-0.59375 1.75,-1.78125 l -1.75,-0.40625 z m 17.28125,0 q 0.0312,1.5625 1.3125,2.65625 -0.28125,-1.375 -1.3125,-2.65625 z m -13.3125,1.3125 v -0.875 h -0.4375 z m 7.53125,1.78125 v -0.90625 h -0.40625 z m -5.75,0.4375 q 0.0937,0.59375 0.875,0.875 l 2.21875,-0.875 z m 6.21875,0 q 0.15625,0.4375 0.875,0.875 -0.125,-0.59375 -0.875,-0.875 z"
           style="font-family:'Alpha Echo';-inkscape-font-specification:'Alpha Echo';fill:#d5c7ad;fill-opacity:1;stroke:#000000;stroke-opacity:1"
           id="path331" />
        <path
           d="m -436.18938,324.53891 q 3.03125,0.875 5.9375,2.28125 l 0.46875,6.875 -0.9375,4.125 0.9375,1.8125 -0.9375,12.34375 0.9375,2.75 -0.46875,3.21875 v 0.90625 h 0.46875 l -0.46875,0.46875 0.90625,5.03125 -0.90625,1.375 q -2.46875,1.65625 -5.9375,1.8125 -3,-0.5625 -5.9375,-2.28125 l -0.5,-4.125 0.5,-3.1875 -0.9375,-1.375 q 0.78125,-1.625 0.9375,-3.6875 l 0.4375,-6.40625 -0.4375,-5.9375 0.4375,-1.34375 -0.9375,-11.46875 0.5,-1.375 z m 0,5.03125 0.90625,1.375 0.4375,-1.375 z m 0.4375,1.8125 0.46875,1.375 v -1.375 z m -1.375,1.84375 q 0.375,0.84375 1.375,0.90625 -0.375,-0.65625 -1.375,-0.90625 z m 1.375,18.3125 v -0.9375 h -0.4375 z m -2.28125,0.90625 q 0.65625,0.90625 1.84375,0.90625 z m 0.46875,6.40625 -0.46875,2.28125 1.375,0.46875 0.46875,-2.28125 z"
           style="font-family:'Alpha Echo';-inkscape-font-specification:'Alpha Echo';fill:#d5c7ad;fill-opacity:1;stroke:#000000;stroke-opacity:1"
           id="path333" />
        <path
           d="m -436.81438,395.72641 6.65625,1.78125 q 2.9375,1 6.1875,2.65625 2.375,1.6875 4.4375,3.96875 -1.0625,2.75 -3.09375,5.3125 -2.90625,1.0625 -6.21875,1.34375 l -5.3125,-3.125 -4.875,-0.4375 -1.78125,0.90625 q 0.46875,2.65625 3.5625,3.53125 l 7.09375,1.3125 q 2.84375,0.5625 5.75,1.78125 2.4375,1.625 4.4375,4 1.1875,3.09375 1.3125,7.0625 l -2.21875,6.21875 -4.4375,3.96875 q -2.9375,1.1875 -6.625,1.78125 l -6.65625,1.3125 q -3.125,-0.0937 -7.0625,-1.3125 -2.78125,-1.09375 -5.3125,-3.125 -2.15625,-1.75 -4.4375,-4.40625 1.25,-2.59375 4.4375,-3.96875 2.0625,-2 5.3125,-2.25 2.125,1.625 4.84375,3.125 l 2.21875,0.875 4.875,-0.4375 q 1.40625,-0.375 2.65625,-1.3125 0,-1.4375 -1.3125,-2.6875 l -6.21875,-0.4375 -1.3125,-0.4375 -6.65625,-0.875 -4.40625,-4 q -1.40625,-2.84375 -2.21875,-6.1875 l 0.875,-6.625 3.5625,-4.4375 q 2.53125,-1.75 5.75,-3.09375 z m -6.1875,5.3125 q 0.125,0.59375 0.875,0.875 -0.0937,-0.59375 -0.875,-0.875 z m -1.78125,0.875 q 0.125,0.59375 0.875,0.875 l 0.4375,-0.40625 z m 7.53125,0 -1.34375,1.78125 q 1.25,-0.5 1.34375,-1.78125 z m 4.40625,0 1.34375,3.53125 3.09375,-0.875 q -1.84375,-1.65625 -4.4375,-2.65625 z m -11.5,2.65625 -1.75,1.34375 2.625,0.4375 z m -0.875,5.34375 q -1.53125,2.375 -2.21875,5.28125 h 1.78125 l 1.3125,-3.96875 z m 7.96875,5.28125 -0.875,1.34375 1.78125,0.4375 0.40625,-1.3125 z m 11.53125,3.09375 q 0.1875,1.28125 1.3125,2.21875 -0.3125,-1.21875 -1.3125,-2.21875 z m -5.78125,0.46875 q 0.40625,2.03125 2.21875,3.53125 l 2.65625,0.4375 0.4375,-0.875 -0.90625,-0.4375 -1.3125,-1.34375 -0.4375,1.78125 q -1.40625,-1.21875 -2.65625,-3.09375 z m 4,7.0625 q 0.15625,0.46875 0.875,0.875 l 0.4375,-0.40625 z m -1.34375,3.09375 q 0.1875,0.875 0.875,1.34375 z m -18.59375,1.34375 0.46875,1.3125 q 0.875,-0.59375 1.75,-1.78125 l -1.75,-0.40625 z m 17.28125,0 q 0.0312,1.5625 1.3125,2.65625 -0.28125,-1.375 -1.3125,-2.65625 z m -13.3125,1.3125 v -0.875 h -0.4375 z m 7.53125,1.78125 v -0.90625 h -0.40625 z m -5.75,0.4375 q 0.0937,0.59375 0.875,0.875 l 2.21875,-0.875 z m 6.21875,0 q 0.15625,0.4375 0.875,0.875 -0.125,-0.59375 -0.875,-0.875 z"
           style="font-family:'Alpha Echo';-inkscape-font-specification:'Alpha Echo';fill:#d5c7ad;fill-opacity:1;stroke:#000000;stroke-opacity:1"
           id="path335" />
        <path
           d="m -447.75188,467.58578 q 3.59375,0.6875 8.34375,0.9375 l 1.84375,-0.46875 3.21875,0.90625 1.375,-0.4375 10.1875,-0.46875 1.375,0.46875 1.40625,2.78125 0.4375,1.84375 -0.9375,5.0625 -2.28125,0.9375 -7.84375,-1.40625 0.4375,6.9375 -0.4375,1.375 0.4375,10.15625 -0.4375,5.09375 0.4375,1.84375 v 3.21875 q -2.4375,3.40625 -6.9375,4.625 -3.0625,-0.53125 -6,-1.84375 l -0.46875,-1.84375 0.46875,-0.9375 0.46875,-7.84375 -0.46875,-6.46875 0.9375,-1.375 -0.46875,-1.375 -0.9375,-4.15625 1.84375,-4.625 q -0.3125,-0.90625 -1.375,-0.9375 l -6.46875,1.40625 q -2.78125,-2.9375 -3.21875,-7.40625 1.125,-3.78125 5.0625,-6 z m 1.40625,5.5625 -0.90625,1.375 1.84375,-0.46875 q -0.1875,-0.46875 -0.9375,-0.90625 z m 7.84375,0.4375 q 0.25,1.0625 1.375,1.84375 -0.40625,-1.03125 -1.375,-1.84375 z m -1.84375,0.9375 q 0.125,0.59375 0.9375,0.90625 -0.15625,-0.46875 -0.9375,-0.90625 z m 6,2.78125 q 0.40625,0.625 1.375,0.90625 z m -4.15625,1.84375 q 0.1875,0.90625 0.9375,1.375 z m 1.875,1.84375 q -0.84375,1.3125 -0.9375,3.21875 0.84375,-1.40625 0.9375,-3.21875 z m 0,4.59375 -1.40625,6 1.40625,-0.4375 0.875,-4.15625 z m -0.5,10.1875 1.875,-0.46875 -0.9375,-0.46875 z m -0.90625,2.28125 0.90625,0.46875 v -1.375 h -0.4375 z m 1.84375,2.3125 -1.375,1.40625 q 1.15625,-0.28125 1.375,-1.40625 z"
           style="font-family:'Alpha Echo';-inkscape-font-specification:'Alpha Echo';fill:#d5c7ad;fill-opacity:1;stroke:#000000;stroke-opacity:1"
           id="path337" />
      </g>
    </g>
  </g>
</svg>
